# Blender v2.76 (sub 0) OBJ File: ''
# www.blender.org
mtllib box5.mtl
o Cube.002
v -1.000000 -1.000000 1.000000
v -1.000000 -1.000000 -1.000000
v 1.000000 -1.000000 -1.000000
v 1.000000 1.000000 -1.000000
v -1.000000 1.000000 -1.000000
v -1.000001 1.000000 0.999999
v 0.999999 1.000000 1.000000
v 1.000000 -1.000000 1.000000
vt 0.000100 0.999900
vt 0.000100 0.000100
vt 0.999900 0.000100
vt 0.999900 0.999900
vn 0.000000 -1.000000 0.000000
vn -0.000000 1.000000 -0.000000
vn -0.000000 0.000000 1.000000
vn -1.000000 -0.000000 -0.000000
vn 0.000000 0.000000 -1.000000
vn 1.000000 0.000000 0.000000
usemtl Material.002
s 1
f 1/1/1 2/2/1 3/3/1
f 4/1/2 5/2/2 6/3/2
f 7/4/3 6/1/3 1/2/3
f 6/4/4 5/1/4 2/2/4
f 2/3/5 5/4/5 4/1/5
f 8/2/6 3/3/6 4/4/6
f 8/4/1 1/1/1 3/3/1
f 7/4/2 4/1/2 6/3/2
f 8/3/3 7/4/3 1/2/3
f 1/3/4 6/4/4 2/2/4
f 3/2/5 2/3/5 4/1/5
f 7/1/6 8/2/6 4/4/6
