# This file uses centimeters as units for non-parametric coordinates.

mtllib piedra.mtl
g default
v 0.249947 0.458418 -1.595590
v -0.712933 1.106719 0.259390
v -0.069557 -1.106719 -0.770532
v -0.712932 -0.847046 0.890863
v -1.720752 0.458418 -0.187127
v 1.021297 -0.458418 0.396276
v 0.475870 0.847046 0.637930
v -1.612260 -0.458418 -0.770531
v 0.249947 -0.458418 -1.595590
v -0.295481 1.106719 -0.818600
v -0.295481 0.458418 1.337380
v -1.303300 0.458418 -1.265118
v -0.885847 -1.106719 -0.187127
v 0.475870 -0.847046 0.637930
v 1.021298 0.458418 -0.770531
v -0.712933 -0.847046 -1.265118
v -1.303299 0.458418 0.890863
vt 0.662450 0.303096
vt 0.420021 0.270518
vt 0.590281 0.113219
vt 0.590281 0.397390
vt 0.420021 0.001992
vt 0.299630 0.113219
vt 0.590281 0.001992
vt 0.347852 0.303096
vt 0.147158 0.292643
vt 0.068508 0.122383
vt 0.292483 0.050214
vt 0.001833 0.292643
vt 0.147158 0.001992
vt 0.292483 0.292643
vt 0.001833 0.050214
vt 0.207353 0.413034
vt 0.062028 0.413034
vt 0.405819 0.736263
vt 0.380885 0.590938
vt 0.577242 0.702165
vt 0.498593 0.512289
vt 0.405819 0.445613
vt 0.544664 0.401061
vt 0.668016 0.546387
vt 0.839438 0.495355
vt 0.918088 0.685232
vt 0.728211 0.401062
vt 0.728211 0.691712
vt 0.582886 0.461257
vt 0.806861 0.796459
vt 0.582886 0.751908
vt 0.225807 0.755580
vt 0.086962 0.998008
vt 0.001833 0.755580
vt 0.225807 0.925839
vt 0.375241 0.751908
vt 0.132813 0.666778
vt 0.375241 0.606582
vt 0.132813 0.495355
vt 0.204982 0.416706
vn 0.907149 0.330882 0.259996
vn 0.907149 0.330882 0.259996
vn 0.907149 0.330882 0.259996
vn -0.248278 -0.061599 -0.966728
vn -0.369196 -0.129544 -0.920279
vn -0.336872 -0.152343 -0.929144
vn -0.858463 -0.366337 0.358942
vn -0.834158 -0.424364 0.352272
vn -0.824764 -0.461364 0.326968
vn 0.709769 -0.672516 -0.209642
vn 0.660222 -0.718774 -0.217880
vn 0.794730 -0.440747 -0.417309
vn -0.473143 0.861722 -0.183225
vn -0.473143 0.861722 -0.183225
vn -0.473143 0.861722 -0.183225
vn -0.398446 -0.180189 0.899318
vn -0.398446 -0.180189 0.899318
vn -0.398446 -0.180189 0.899318
vn 0.048211 -0.972794 0.226599
vn 0.078625 -0.980721 0.178899
vn 0.073403 -0.979583 0.187159
vn 0.496020 -0.084522 0.864187
vn 0.193147 -0.372267 0.907806
vn 0.366750 -0.261636 0.892772
vn 0.349962 0.936764 -0.000379
vn 0.259584 0.952009 -0.162158
vn 0.340353 0.940113 -0.018668
vn -0.110889 0.832129 0.543383
vn -0.251889 0.783151 0.568530
vn -0.105173 0.833698 0.542113
vn -0.834158 -0.424364 0.352272
vn -0.751932 -0.603227 0.265923
vn -0.824764 -0.461364 0.326968
vn 0.124026 -0.802996 -0.582936
vn 0.124026 -0.802996 -0.582936
vn 0.124026 -0.802996 -0.582936
vn 0.835704 -0.275651 -0.474990
vn 0.709769 -0.672516 -0.209642
vn 0.794730 -0.440747 -0.417309
vn -0.248278 -0.061599 -0.966728
vn -0.324625 0.000000 -0.945843
vn -0.369196 -0.129544 -0.920279
vn 0.349962 0.936764 -0.000379
vn 0.340353 0.940113 -0.018668
vn 0.430615 0.886997 0.166756
vn -0.147360 0.706108 -0.692601
vn -0.147360 0.706108 -0.692601
vn -0.147360 0.706108 -0.692601
vn -0.110889 0.832129 0.543383
vn -0.105173 0.833698 0.542113
vn 0.026457 0.861156 0.507652
vn 0.496020 -0.084522 0.864187
vn 0.543817 -0.076765 0.835686
vn 0.632114 0.122466 0.765137
vn -0.473143 0.861722 -0.183225
vn -0.473143 0.861722 -0.183225
vn -0.473143 0.861722 -0.183225
vn -0.925939 0.118597 -0.358570
vn -0.925939 0.118597 -0.358570
vn -0.925939 0.118597 -0.358570
vn 0.078625 -0.980721 0.178899
vn 0.101616 -0.984611 0.142179
vn 0.073403 -0.979583 0.187159
vn -0.355565 -0.894075 -0.272404
vn -0.184416 -0.948373 -0.258031
vn -0.358431 -0.892877 -0.272576
vn 0.496020 -0.084522 0.864187
vn 0.366750 -0.261636 0.892772
vn 0.543817 -0.076765 0.835686
vn 0.709769 -0.672516 -0.209642
vn 0.559947 -0.826010 -0.064551
vn 0.660222 -0.718774 -0.217880
vn 0.418022 0.820076 -0.390810
vn 0.418022 0.820076 -0.390810
vn 0.418022 0.820076 -0.390810
vn 0.835704 -0.275651 -0.474990
vn 0.794730 -0.440747 -0.417309
vn 0.730482 0.000000 -0.682932
vn -0.336872 -0.152343 -0.929144
vn -0.369196 -0.129544 -0.920279
vn -0.546777 -0.247267 -0.799933
vn -0.355565 -0.894075 -0.272404
vn -0.358431 -0.892877 -0.272576
vn -0.505737 -0.816716 -0.277858
vn -0.596711 0.768466 0.231077
vn -0.596711 0.768466 0.231077
vn -0.596711 0.768466 0.231077
vn -0.858463 -0.366337 0.358942
vn -0.824764 -0.461364 0.326968
vn -0.859240 -0.388573 0.332742
g piedra_para_texturizar:Sphere002
usemtl blinn1SG
f 7/1/1 6/2/2 15/3/3
f 1/32/4 16/33/5 12/34/6
f 5/9/7 8/10/8 4/11/9
f 6/2/10 3/6/11 9/5/12
f 10/17/13 12/12/14 2/16/15
f 17/36/16 4/37/17 11/38/18
f 4/18/19 13/19/20 14/20/21
f 11/38/22 4/37/23 14/39/24
f 2/24/25 7/25/26 15/26/27
f 2/24/28 17/29/29 11/27/30
f 8/10/31 13/13/32 4/11/33
f 9/23/34 3/21/35 16/22/36
f 15/3/37 6/2/38 9/5/39
f 1/32/40 9/35/41 16/33/42
f 2/24/43 15/26/44 10/28/45
f 10/28/46 1/30/47 12/31/48
f 2/24/49 11/27/50 7/25/51
f 11/4/52 6/2/53 7/1/54
f 12/12/55 5/9/56 2/16/57
f 12/12/58 8/10/59 5/9/60
f 13/19/61 3/21/62 14/20/63
f 16/22/64 3/21/65 13/19/66
f 11/38/67 14/39/68 6/40/69
f 6/2/70 14/8/71 3/6/72
f 15/26/73 1/30/74 10/28/75
f 15/3/76 9/5/77 1/7/78
f 12/12/79 16/15/80 8/10/81
f 16/15/82 13/13/83 8/10/84
f 2/16/85 5/9/86 17/14/87
f 5/9/88 4/11/89 17/14/90
