# This file uses centimeters as units for non-parametric coordinates.

mtllib martillo.mtl
g default
v -0.032617 0.032617 0.000000
v 0.032617 0.032617 0.000000
v -0.032617 -0.032617 -0.000000
v 0.032617 -0.032617 -0.000000
v -0.044888 0.031431 -0.642195
v 0.031431 0.044888 -0.642195
v -0.031431 -0.044888 -0.642195
v 0.044888 -0.031431 -0.642195
v -0.116235 0.068505 -0.471857
v 0.111902 0.068505 -0.471857
v -0.116235 -0.068505 -0.471857
v 0.111902 -0.068505 -0.471857
v -0.116235 0.068505 -0.608867
v 0.111902 0.068505 -0.608867
v -0.116235 -0.068505 -0.608867
v 0.111902 -0.068505 -0.608867
v -0.002167 0.053416 -0.487961
v -0.002167 0.053416 -0.592764
v -0.002167 -0.053416 -0.593778
v -0.002167 -0.053416 -0.486947
v -0.132480 0.063584 -0.476779
v 0.124479 0.063584 -0.476779
v -0.132480 -0.063584 -0.476779
v 0.124479 -0.063584 -0.476779
v -0.132480 0.063584 -0.603946
v 0.124479 0.063584 -0.603946
v -0.132480 -0.063584 -0.603946
v 0.124479 -0.063584 -0.603946
vt 0.017713 0.001992
vt 0.101845 0.001992
vt 0.100315 0.830220
vt 0.001887 0.830220
vt 0.124998 0.001992
vt 0.209130 0.001992
vt 0.207600 0.830220
vt 0.109172 0.830220
vt 0.300404 0.830221
vt 0.216273 0.830221
vt 0.217803 0.001992
vt 0.316230 0.001992
vt 0.339199 0.001992
vt 0.423330 0.001992
vt 0.421801 0.830220
vt 0.323373 0.830220
vt 0.119317 0.834002
vt 0.119317 0.918134
vt 0.035185 0.918134
vt 0.035185 0.834002
vt 0.240913 0.932430
vt 0.142485 0.949785
vt 0.125130 0.851358
vt 0.223557 0.834002
vt 0.451242 0.165325
vt 0.586405 0.165325
vt 0.607173 0.312437
vt 0.430474 0.312437
vt 0.770522 0.165325
vt 0.632743 0.165325
vt 0.613283 0.018213
vt 0.789983 0.018213
vt 0.788336 0.500503
vt 0.926114 0.500503
vt 0.945575 0.647615
vt 0.768875 0.647615
vt 0.763062 0.353390
vt 0.743602 0.500503
vt 0.605823 0.500503
vt 0.586363 0.353390
vt 0.430474 0.018212
vt 0.607173 0.018212
vt 0.789983 0.312437
vt 0.613283 0.312437
vt 0.768875 0.353390
vt 0.945575 0.353390
vt 0.763062 0.647615
vt 0.586363 0.647615
vt 0.939228 0.668566
vt 0.775222 0.668566
vt 0.775222 0.337170
vt 0.939228 0.337170
vt 0.592710 0.337170
vt 0.756715 0.337170
vt 0.756715 0.668566
vt 0.592710 0.668566
vt 0.436821 0.001992
vt 0.600826 0.001992
vt 0.600826 0.333388
vt 0.436821 0.333388
vt 0.619630 0.001992
vt 0.783636 0.001992
vt 0.783636 0.333388
vt 0.619630 0.333388
vt 0.580550 0.998008
vt 0.416544 0.998008
vt 0.416544 0.834002
vt 0.580550 0.834002
vt 0.410731 0.998008
vt 0.246726 0.998008
vt 0.246726 0.834002
vt 0.410731 0.834002
vn -0.094636 0.995466 0.009583
vn -0.094636 0.995466 0.009583
vn -0.094636 0.995466 0.009583
vn -0.094636 0.995466 0.009583
vn 0.995466 0.094636 0.009583
vn 0.995466 0.094636 0.009583
vn 0.995466 0.094636 0.009583
vn 0.995466 0.094636 0.009583
vn 0.094636 -0.995466 0.009583
vn 0.094636 -0.995466 0.009583
vn 0.094636 -0.995466 0.009583
vn 0.094636 -0.995466 0.009583
vn -0.995466 -0.094636 0.009583
vn -0.995466 -0.094636 0.009583
vn -0.995466 -0.094636 0.009583
vn -0.995466 -0.094636 0.009583
vn 0.000000 -0.000000 1.000000
vn 0.000000 -0.000000 1.000000
vn 0.000000 -0.000000 1.000000
vn 0.000000 -0.000000 1.000000
vn 0.000000 0.000000 -1.000000
vn 0.000000 0.000000 -1.000000
vn 0.000000 0.000000 -1.000000
vn 0.000000 0.000000 -1.000000
vn 0.000000 1.000000 0.000000
vn 0.000000 1.000000 0.000000
vn 0.131140 0.991364 0.000000
vn 0.131140 0.991364 0.000000
vn 0.000000 -1.000000 -0.000000
vn 0.000000 -1.000000 -0.000000
vn -0.131140 -0.991364 -0.000000
vn -0.131140 -0.991364 -0.000000
vn 0.135466 0.004120 0.990773
vn 0.135466 0.004120 0.990773
vn 0.135466 0.004120 0.990773
vn 0.135466 0.004120 0.990773
vn -0.135466 0.004120 -0.990773
vn -0.135466 0.004120 -0.990773
vn -0.135466 0.004120 -0.990773
vn -0.135466 0.004120 -0.990773
vn -0.131140 0.991364 0.000000
vn -0.131140 0.991364 0.000000
vn 0.000000 1.000000 0.000000
vn 0.000000 1.000000 0.000000
vn 0.131140 -0.991364 -0.000000
vn 0.131140 -0.991364 -0.000000
vn 0.000000 -1.000000 -0.000000
vn 0.000000 -1.000000 -0.000000
vn -0.135466 0.004120 0.990773
vn -0.135466 0.004120 0.990773
vn -0.135466 0.004120 0.990773
vn -0.135466 0.004120 0.990773
vn 0.135466 0.004120 -0.990773
vn 0.135466 0.004120 -0.990773
vn 0.135466 0.004120 -0.990773
vn 0.135466 0.004120 -0.990773
vn -0.289936 -0.000000 0.957046
vn -0.289936 -0.000000 0.957046
vn -0.289936 -0.000000 0.957046
vn -0.289936 -0.000000 0.957046
vn 0.364393 -0.000000 0.931245
vn 0.364393 -0.000000 0.931245
vn 0.364393 -0.000000 0.931245
vn 0.364393 -0.000000 0.931245
vn 0.364393 0.000000 -0.931245
vn 0.364393 0.000000 -0.931245
vn 0.364393 0.000000 -0.931245
vn 0.364393 0.000000 -0.931245
vn -0.289936 0.000000 -0.957046
vn -0.289936 0.000000 -0.957046
vn -0.289936 0.000000 -0.957046
vn -0.289936 0.000000 -0.957046
vn 0.364393 0.931245 0.000000
vn 0.364393 0.931245 0.000000
vn 0.364393 0.931245 0.000000
vn 0.364393 0.931245 0.000000
vn -0.289936 0.957046 0.000000
vn -0.289936 0.957046 0.000000
vn -0.289936 0.957046 0.000000
vn -0.289936 0.957046 0.000000
vn 0.364393 -0.931245 -0.000000
vn 0.364393 -0.931245 -0.000000
vn 0.364393 -0.931245 -0.000000
vn 0.364393 -0.931245 -0.000000
vn -0.289936 -0.957046 -0.000000
vn -0.289936 -0.957046 -0.000000
vn -0.289936 -0.957046 -0.000000
vn -0.289936 -0.957046 -0.000000
vn -1.000000 0.000000 0.000000
vn -1.000000 0.000000 0.000000
vn -1.000000 0.000000 0.000000
vn -1.000000 0.000000 0.000000
vn 1.000000 0.000000 0.000000
vn 1.000000 0.000000 0.000000
vn 1.000000 0.000000 0.000000
vn 1.000000 0.000000 0.000000
s off
g martillo:Box003
usemtl martillo:blinn1SG
f 1/1/1 2/2/2 6/3/3 5/4/4
f 2/5/5 4/6/6 8/7/7 6/8/8
f 4/9/9 3/10/10 7/11/11 8/12/12
f 3/13/13 1/14/14 5/15/15 7/16/16
f 4/17/17 2/18/18 1/19/19 3/20/20
f 8/21/21 7/22/22 5/23/23 6/24/24
f 17/25/25 18/26/26 13/27/27 9/28/28
f 20/29/29 19/30/30 16/31/31 12/32/32
f 20/33/33 17/34/34 9/35/35 11/36/36
f 16/37/37 19/38/38 18/39/39 14/40/40
f 10/41/41 14/42/42 18/26/43 17/25/44
f 11/43/45 15/44/46 19/30/47 20/29/48
f 12/45/49 10/46/50 17/34/51 20/33/52
f 15/47/53 13/48/54 18/39/55 19/38/56
f 11/36/57 9/35/58 21/49/59 23/50/60
f 10/46/61 12/45/62 24/51/63 22/52/64
f 16/37/65 14/40/66 26/53/67 28/54/68
f 13/48/69 15/47/70 27/55/71 25/56/72
f 14/42/73 10/41/74 22/57/75 26/58/76
f 9/28/77 13/27/78 25/59/79 21/60/80
f 12/32/81 16/31/82 28/61/83 24/62/84
f 15/44/85 11/43/86 23/63/87 27/64/88
f 25/65/89 27/66/90 23/67/91 21/68/92
f 28/69/93 26/70/94 22/71/95 24/72/96
