# Blender v2.76 (sub 0) OBJ File: ''
# www.blender.org
mtllib moneda.mtl
o moneda:pCylinder1
v 0.183820 -0.076140 -0.022311
v 0.140689 -0.140689 -0.022311
v 0.190559 -0.078932 -0.005988
v 0.145848 -0.145848 -0.005988
v 0.076141 -0.183819 -0.022311
v 0.078932 -0.190559 -0.005988
v 0.000000 -0.198965 -0.022311
v 0.000000 -0.206260 -0.005988
v -0.076140 -0.183820 -0.022311
v -0.078932 -0.190559 -0.005988
v -0.140689 -0.140689 -0.022311
v -0.145848 -0.145848 -0.005988
v -0.183819 -0.076141 -0.022311
v -0.190559 -0.078932 -0.005988
v -0.198965 0.000000 -0.022311
v -0.206260 0.000000 -0.005988
v -0.183820 0.076140 -0.022311
v -0.190559 0.078932 -0.005988
v -0.140689 0.140689 -0.022311
v -0.145848 0.145848 -0.005988
v -0.076141 0.183820 -0.022311
v -0.078932 0.190559 -0.005988
v 0.000000 0.198965 -0.022311
v 0.000000 0.206260 -0.005988
v 0.076141 0.183820 -0.022311
v 0.078932 0.190559 -0.005988
v 0.140689 0.140689 -0.022311
v 0.145848 0.145848 -0.005988
v 0.183819 0.076141 -0.022311
v 0.190559 0.078932 -0.005988
v 0.198965 0.000000 -0.022311
v 0.206260 0.000000 -0.005988
v 0.205322 -0.205321 -0.005988
v 0.205322 -0.205321 -0.093098
v 0.268266 -0.111119 -0.005988
v 0.268266 -0.111119 -0.093098
v 0.111119 -0.268265 -0.093098
v 0.111119 -0.268265 -0.005988
v 0.000000 -0.290369 -0.093098
v 0.000000 -0.290369 -0.005988
v -0.111119 -0.268266 -0.093098
v -0.111119 -0.268266 -0.005988
v -0.205321 -0.205322 -0.093098
v -0.205321 -0.205322 -0.005988
v -0.268266 -0.111119 -0.093098
v -0.268266 -0.111119 -0.005988
v -0.290369 0.000000 -0.093098
v -0.290369 0.000000 -0.005988
v -0.268266 0.111119 -0.093098
v -0.268266 0.111119 -0.005988
v -0.205322 0.205322 -0.093098
v -0.205322 0.205322 -0.005988
v -0.111119 0.268266 -0.093098
v -0.111119 0.268266 -0.005988
v 0.000000 0.290369 -0.093098
v 0.000000 0.290369 -0.005988
v 0.111119 0.268266 -0.093098
v 0.111119 0.268266 -0.005988
v 0.205322 0.205322 -0.093098
v 0.205322 0.205322 -0.005988
v 0.268266 0.111119 -0.093098
v 0.268266 0.111119 -0.005988
v 0.290369 0.000000 -0.093098
v 0.290369 0.000000 -0.005988
v 0.194010 -0.080361 -0.093098
v 0.148489 -0.148488 -0.093098
v 0.183820 -0.076140 -0.076775
v 0.140689 -0.140689 -0.076775
v 0.080362 -0.194010 -0.093098
v 0.076141 -0.183819 -0.076775
v 0.000000 -0.209994 -0.093098
v 0.000000 -0.198965 -0.076775
v -0.080361 -0.194010 -0.093098
v -0.076140 -0.183820 -0.076775
v -0.148488 -0.148489 -0.093098
v -0.140689 -0.140689 -0.076775
v -0.194010 -0.080361 -0.093098
v -0.183819 -0.076141 -0.076775
v -0.209994 0.000000 -0.093098
v -0.198965 0.000000 -0.076775
v -0.194010 0.080361 -0.093098
v -0.183820 0.076140 -0.076775
v -0.148489 0.148488 -0.093098
v -0.140689 0.140689 -0.076775
v -0.080361 0.194010 -0.093098
v -0.076141 0.183820 -0.076775
v 0.000000 0.209994 -0.093098
v 0.000000 0.198965 -0.076775
v 0.080361 0.194010 -0.093098
v 0.076141 0.183820 -0.076775
v 0.148489 0.148489 -0.093098
v 0.140689 0.140689 -0.076775
v 0.194010 0.080361 -0.093098
v 0.183819 0.076141 -0.076775
v 0.209994 0.000000 -0.093098
v 0.198965 0.000000 -0.076775
vt 0.519676 0.687012
vt 0.519676 0.738900
vt 0.506555 0.689256
vt 0.506555 0.743047
vt 0.519676 0.773571
vt 0.506555 0.778988
vt 0.328843 0.474868
vt 0.328843 0.536074
vt 0.315722 0.472624
vt 0.315722 0.536074
vt 0.328843 0.597280
vt 0.315722 0.599524
vt 0.500419 0.478042
vt 0.500419 0.512712
vt 0.487298 0.472624
vt 0.487298 0.508566
vt 0.500419 0.564600
vt 0.487298 0.562356
vt 0.500419 0.625806
vt 0.487298 0.625806
vt 0.500419 0.687012
vt 0.487298 0.689256
vt 0.500419 0.738900
vt 0.487298 0.743047
vt 0.500419 0.773571
vt 0.487298 0.778988
vt 0.296466 0.597280
vt 0.296466 0.536074
vt 0.309587 0.599524
vt 0.309587 0.536074
vt 0.296466 0.474868
vt 0.309587 0.472624
vt 0.519676 0.478042
vt 0.519676 0.512712
vt 0.506555 0.472624
vt 0.506555 0.508566
vt 0.519676 0.564600
vt 0.506555 0.562356
vt 0.519676 0.625806
vt 0.506555 0.625806
vt 0.927984 0.523222
vt 0.998008 0.523222
vt 0.927984 0.598947
vt 0.998008 0.598947
vt 0.998008 0.472624
vt 0.927984 0.472624
vt 0.411138 0.561948
vt 0.411138 0.472624
vt 0.481163 0.561948
vt 0.481163 0.472624
vt 0.411138 0.651272
vt 0.481163 0.651272
vt 0.921849 0.853320
vt 0.921849 0.903918
vt 0.851824 0.853320
vt 0.851824 0.903918
vt 0.921849 0.777595
vt 0.851824 0.777595
vt 0.921849 0.688271
vt 0.851824 0.688271
vt 0.921849 0.598947
vt 0.851824 0.598947
vt 0.921849 0.523222
vt 0.851824 0.523222
vt 0.921849 0.472624
vt 0.851824 0.472624
vt 0.405003 0.561948
vt 0.405003 0.651272
vt 0.334979 0.561948
vt 0.334979 0.651272
vt 0.405003 0.472624
vt 0.334979 0.472624
vt 0.998008 0.853320
vt 0.998008 0.903918
vt 0.927984 0.853320
vt 0.927984 0.903918
vt 0.998008 0.777595
vt 0.927984 0.777595
vt 0.998008 0.688271
vt 0.927984 0.688271
vt 0.391362 0.299817
vt 0.354770 0.354582
vt 0.383171 0.296424
vt 0.348500 0.348312
vt 0.300005 0.391174
vt 0.296612 0.382983
vt 0.235406 0.404024
vt 0.235406 0.395157
vt 0.170807 0.391174
vt 0.174200 0.382983
vt 0.116043 0.354582
vt 0.122312 0.348313
vt 0.079451 0.299818
vt 0.087642 0.296425
vt 0.066601 0.235219
vt 0.075467 0.235219
vt 0.079451 0.170620
vt 0.087642 0.174013
vt 0.116043 0.115855
vt 0.122312 0.122125
vt 0.170807 0.079263
vt 0.174200 0.087454
vt 0.235406 0.066413
vt 0.235406 0.075280
vt 0.300005 0.079263
vt 0.296612 0.087454
vt 0.354770 0.115855
vt 0.348500 0.122125
vt 0.391362 0.170620
vt 0.383171 0.174013
vt 0.404212 0.235219
vt 0.395345 0.235219
vt 0.833514 0.693769
vt 0.798844 0.745657
vt 0.845689 0.632563
vt 0.746956 0.780328
vt 0.685750 0.792502
vt 0.624544 0.780328
vt 0.572656 0.745657
vt 0.537986 0.693769
vt 0.525811 0.632563
vt 0.537986 0.571357
vt 0.572656 0.519469
vt 0.624544 0.484799
vt 0.685750 0.472624
vt 0.746956 0.484799
vt 0.798844 0.519469
vt 0.833514 0.571357
vt 0.400455 0.400267
vt 0.324730 0.450865
vt 0.235406 0.468633
vt 0.146083 0.450865
vt 0.070358 0.400267
vt 0.019760 0.324542
vt 0.001992 0.235219
vt 0.019760 0.145895
vt 0.070357 0.070170
vt 0.146082 0.019572
vt 0.235406 0.001804
vt 0.324730 0.019572
vt 0.400455 0.070170
vt 0.451053 0.145895
vt 0.468821 0.235219
vt 0.451053 0.324542
vt 0.875000 0.235219
vt 0.862379 0.171769
vt 0.942611 0.235219
vt 0.924843 0.145895
vt 0.862379 0.298669
vt 0.924843 0.324542
vt 0.826437 0.352459
vt 0.874245 0.400267
vt 0.772647 0.388401
vt 0.798520 0.450865
vt 0.709197 0.401022
vt 0.709197 0.468633
vt 0.645747 0.388401
vt 0.619873 0.450865
vt 0.591956 0.352459
vt 0.544148 0.400267
vt 0.556015 0.298669
vt 0.493550 0.324542
vt 0.543394 0.235219
vt 0.475782 0.235218
vt 0.556015 0.171768
vt 0.493550 0.145895
vt 0.591956 0.117978
vt 0.544148 0.070170
vt 0.645747 0.082037
vt 0.619873 0.019572
vt 0.709197 0.069416
vt 0.709197 0.001804
vt 0.772647 0.082037
vt 0.798521 0.019572
vt 0.826437 0.117978
vt 0.874246 0.070170
vn -0.761500 0.508800 0.401400
vn -0.761500 0.508800 0.401500
vn -0.508800 0.761500 0.401500
vn -0.178700 0.898300 0.401500
vn 0.178700 0.898300 0.401500
vn 0.178700 0.898300 0.401400
vn 0.508800 0.761500 0.401400
vn 0.508800 0.761500 0.401500
vn 0.761500 0.508800 0.401500
vn 0.761500 0.508800 0.401400
vn 0.898300 0.178700 0.401500
vn 0.898300 -0.178700 0.401500
vn 0.898300 -0.178700 0.401400
vn 0.761500 -0.508800 0.401400
vn 0.761500 -0.508800 0.401500
vn 0.508800 -0.761500 0.401500
vn 0.508800 -0.761500 0.401400
vn 0.178700 -0.898300 0.401400
vn 0.178700 -0.898300 0.401500
vn -0.178700 -0.898300 0.401500
vn -0.178700 -0.898300 0.401400
vn -0.508900 -0.761500 0.401400
vn -0.508800 -0.761500 0.401500
vn -0.761500 -0.508800 0.401500
vn -0.761500 -0.508800 0.401400
vn -0.898300 -0.178700 0.401500
vn -0.898300 0.178700 0.401500
vn -0.898300 0.178700 0.401400
vn 0.831500 -0.555600 0.000000
vn 0.555600 -0.831500 0.000000
vn 0.195100 -0.980800 0.000000
vn -0.195100 -0.980800 0.000000
vn -0.555600 -0.831500 0.000000
vn -0.831500 -0.555600 0.000000
vn -0.980800 -0.195100 0.000000
vn -0.980800 0.195100 0.000000
vn -0.831500 0.555600 0.000000
vn -0.555600 0.831500 0.000000
vn -0.195100 0.980800 0.000000
vn 0.195100 0.980800 0.000000
vn 0.555600 0.831500 0.000000
vn 0.831500 0.555600 0.000000
vn 0.980800 0.195100 0.000000
vn 0.980800 -0.195100 0.000000
vn -0.693100 0.463100 -0.552400
vn -0.463100 0.693100 -0.552400
vn -0.463100 0.693100 -0.552500
vn -0.162600 0.817500 -0.552500
vn -0.162600 0.817600 -0.552400
vn -0.162600 0.817500 -0.552400
vn 0.162600 0.817600 -0.552400
vn 0.162600 0.817500 -0.552400
vn 0.463100 0.693100 -0.552400
vn 0.693100 0.463100 -0.552400
vn 0.817500 0.162600 -0.552500
vn 0.817600 0.162600 -0.552400
vn 0.817500 0.162600 -0.552400
vn 0.817600 -0.162600 -0.552400
vn 0.817500 -0.162600 -0.552400
vn 0.693100 -0.463100 -0.552400
vn 0.463100 -0.693100 -0.552400
vn 0.162600 -0.817600 -0.552400
vn -0.162600 -0.817600 -0.552400
vn -0.463100 -0.693100 -0.552400
vn -0.463100 -0.693100 -0.552500
vn -0.693100 -0.463100 -0.552500
vn -0.693100 -0.463100 -0.552400
vn -0.817500 -0.162600 -0.552500
vn -0.817600 -0.162600 -0.552400
vn -0.817500 -0.162600 -0.552400
vn -0.817600 0.162600 -0.552400
vn -0.817500 0.162600 -0.552400
vn 0.000000 0.000000 1.000000
vn 0.000000 0.000000 -1.000000
usemtl moneda:blinn1SG
s 1
f 1/1/1 2/2/2 3/3/1
f 3/3/1 2/2/2 4/4/2
f 2/2/3 5/5/3 4/4/3
f 4/4/3 5/5/3 6/6/3
f 5/7/4 7/8/4 6/9/4
f 6/9/4 7/8/4 8/10/4
f 7/8/5 9/11/6 8/10/5
f 8/10/5 9/11/6 10/12/6
f 9/13/7 11/14/8 10/15/7
f 10/15/7 11/14/8 12/16/8
f 11/14/9 13/17/9 12/16/9
f 12/16/9 13/17/9 14/18/10
f 13/17/11 15/19/11 14/18/11
f 14/18/11 15/19/11 16/20/11
f 15/19/12 17/21/13 16/20/12
f 16/20/12 17/21/13 18/22/13
f 17/21/14 19/23/15 18/22/14
f 18/22/14 19/23/15 20/24/15
f 19/23/16 21/25/17 20/24/16
f 20/24/16 21/25/17 22/26/17
f 21/27/18 23/28/19 22/29/18
f 22/29/18 23/28/19 24/30/19
f 23/28/20 25/31/21 24/30/21
f 24/30/21 25/31/21 26/32/21
f 25/33/22 27/34/23 26/35/22
f 26/35/22 27/34/23 28/36/23
f 27/34/24 29/37/24 28/36/24
f 28/36/24 29/37/24 30/38/25
f 29/37/26 31/39/26 30/38/26
f 30/38/26 31/39/26 32/40/26
f 31/39/27 1/1/28 32/40/27
f 32/40/27 1/1/28 3/3/28
f 33/41/29 34/42/29 35/43/29
f 35/43/29 34/42/29 36/44/29
f 37/45/30 34/42/30 38/46/30
f 38/46/30 34/42/30 33/41/30
f 39/47/31 37/48/31 40/49/31
f 40/49/31 37/48/31 38/50/31
f 41/51/32 39/47/32 42/52/32
f 42/52/32 39/47/32 40/49/32
f 43/53/33 41/54/33 44/55/33
f 44/55/33 41/54/33 42/56/33
f 45/57/34 43/53/34 46/58/34
f 46/58/34 43/53/34 44/55/34
f 47/59/35 45/57/35 48/60/35
f 48/60/35 45/57/35 46/58/35
f 49/61/36 47/59/36 50/62/36
f 50/62/36 47/59/36 48/60/36
f 51/63/37 49/61/37 52/64/37
f 52/64/37 49/61/37 50/62/37
f 53/65/38 51/63/38 54/66/38
f 54/66/38 51/63/38 52/64/38
f 55/67/39 53/68/39 56/69/39
f 56/69/39 53/68/39 54/70/39
f 57/71/40 55/67/40 58/72/40
f 58/72/40 55/67/40 56/69/40
f 59/73/41 57/74/41 60/75/41
f 60/75/41 57/74/41 58/76/41
f 61/77/42 59/73/42 62/78/42
f 62/78/42 59/73/42 60/75/42
f 63/79/43 61/77/43 64/80/43
f 64/80/43 61/77/43 62/78/43
f 36/44/44 63/79/44 35/43/44
f 35/43/44 63/79/44 64/80/44
f 65/81/45 66/82/45 67/83/45
f 67/83/45 66/82/45 68/84/45
f 66/82/46 69/85/47 68/84/46
f 68/84/46 69/85/47 70/86/47
f 69/85/48 71/87/49 70/86/50
f 70/86/50 71/87/49 72/88/49
f 71/87/51 73/89/52 72/88/51
f 72/88/51 73/89/52 74/90/52
f 73/89/53 75/91/53 74/90/53
f 74/90/53 75/91/53 76/92/53
f 75/91/54 77/93/54 76/92/54
f 76/92/54 77/93/54 78/94/54
f 77/93/55 79/95/56 78/94/57
f 78/94/57 79/95/56 80/96/56
f 79/95/58 81/97/59 80/96/58
f 80/96/58 81/97/59 82/98/59
f 81/97/60 83/99/60 82/98/60
f 82/98/60 83/99/60 84/100/60
f 83/99/61 85/101/61 84/100/61
f 84/100/61 85/101/61 86/102/61
f 85/101/62 87/103/62 86/102/62
f 86/102/62 87/103/62 88/104/62
f 87/103/63 89/105/63 88/104/63
f 88/104/63 89/105/63 90/106/63
f 89/105/64 91/107/65 90/106/64
f 90/106/64 91/107/65 92/108/65
f 91/107/66 93/109/67 92/108/66
f 92/108/66 93/109/67 94/110/67
f 93/109/68 95/111/69 94/110/70
f 94/110/70 95/111/69 96/112/69
f 95/111/71 65/81/72 96/112/71
f 96/112/71 65/81/72 67/83/72
f 29/113/73 27/114/73 31/115/73
f 27/114/73 25/116/73 31/115/73
f 25/116/73 23/117/73 31/115/73
f 23/117/73 21/118/73 31/115/73
f 21/118/73 19/119/73 31/115/73
f 19/119/73 17/120/73 31/115/73
f 17/120/73 15/121/73 31/115/73
f 15/121/73 13/122/73 31/115/73
f 13/122/73 11/123/73 31/115/73
f 11/123/73 9/124/73 31/115/73
f 9/124/73 7/125/73 31/115/73
f 7/125/73 5/126/73 31/115/73
f 5/126/73 2/127/73 31/115/73
f 2/127/73 1/128/73 31/115/73
f 96/112/74 67/83/74 94/110/74
f 67/83/74 68/84/74 94/110/74
f 68/84/74 70/86/74 94/110/74
f 70/86/74 72/88/74 94/110/74
f 72/88/74 74/90/74 94/110/74
f 74/90/74 76/92/74 94/110/74
f 76/92/74 78/94/74 94/110/74
f 78/94/74 80/96/74 94/110/74
f 80/96/74 82/98/74 94/110/74
f 82/98/74 84/100/74 94/110/74
f 84/100/74 86/102/74 94/110/74
f 86/102/74 88/104/74 94/110/74
f 88/104/74 90/106/74 94/110/74
f 90/106/74 92/108/74 94/110/74
f 34/129/74 37/130/74 66/82/74
f 66/82/74 37/130/74 69/85/74
f 37/130/74 39/131/74 69/85/74
f 69/85/74 39/131/74 71/87/74
f 39/131/74 41/132/74 71/87/74
f 71/87/74 41/132/74 73/89/74
f 41/132/74 43/133/74 73/89/74
f 73/89/74 43/133/74 75/91/74
f 43/133/74 45/134/74 75/91/74
f 75/91/74 45/134/74 77/93/74
f 45/134/74 47/135/74 77/93/74
f 77/93/74 47/135/74 79/95/74
f 47/135/74 49/136/74 79/95/74
f 79/95/74 49/136/74 81/97/74
f 49/136/74 51/137/74 81/97/74
f 81/97/74 51/137/74 83/99/74
f 51/137/74 53/138/74 83/99/74
f 83/99/74 53/138/74 85/101/74
f 53/138/74 55/139/74 85/101/74
f 85/101/74 55/139/74 87/103/74
f 55/139/74 57/140/74 87/103/74
f 87/103/74 57/140/74 89/105/74
f 57/140/74 59/141/74 89/105/74
f 89/105/74 59/141/74 91/107/74
f 59/141/74 61/142/74 91/107/74
f 91/107/74 61/142/74 93/109/74
f 61/142/74 63/143/74 93/109/74
f 93/109/74 63/143/74 95/111/74
f 63/143/74 36/144/74 95/111/74
f 95/111/74 36/144/74 65/81/74
f 36/144/74 34/129/74 65/81/74
f 65/81/74 34/129/74 66/82/74
f 32/145/73 3/146/73 64/147/73
f 64/147/73 3/146/73 35/148/73
f 30/149/73 32/145/73 62/150/73
f 62/150/73 32/145/73 64/147/73
f 28/151/73 30/149/73 60/152/73
f 60/152/73 30/149/73 62/150/73
f 26/153/73 28/151/73 58/154/73
f 58/154/73 28/151/73 60/152/73
f 24/155/73 26/153/73 56/156/73
f 56/156/73 26/153/73 58/154/73
f 22/157/73 24/155/73 54/158/73
f 54/158/73 24/155/73 56/156/73
f 20/159/73 22/157/73 52/160/73
f 52/160/73 22/157/73 54/158/73
f 18/161/73 20/159/73 50/162/73
f 50/162/73 20/159/73 52/160/73
f 16/163/73 18/161/73 48/164/73
f 48/164/73 18/161/73 50/162/73
f 14/165/73 16/163/73 46/166/73
f 46/166/73 16/163/73 48/164/73
f 12/167/73 14/165/73 44/168/73
f 44/168/73 14/165/73 46/166/73
f 10/169/73 12/167/73 42/170/73
f 42/170/73 12/167/73 44/168/73
f 8/171/73 10/169/73 40/172/73
f 40/172/73 10/169/73 42/170/73
f 6/173/73 8/171/73 38/174/73
f 38/174/73 8/171/73 40/172/73
f 4/175/73 6/173/73 33/176/73
f 33/176/73 6/173/73 38/174/73
f 3/146/73 4/175/73 35/148/73
f 35/148/73 4/175/73 33/176/73
