# This file uses centimeters as units for non-parametric coordinates.

mtllib moneda.mtl
g default
v 0.308526 0.644904 -0.036625
v 0.234259 0.756053 -0.036625
v 0.123109 0.830321 -0.036625
v -0.008001 0.856401 -0.036625
v -0.139112 0.830322 -0.036625
v -0.250262 0.756054 -0.036625
v -0.324530 0.644904 -0.036625
v -0.350609 0.513794 -0.036625
v -0.324530 0.382684 -0.036625
v -0.250262 0.271534 -0.036625
v -0.139112 0.197266 -0.036625
v -0.008002 0.171186 -0.036625
v 0.123108 0.197266 -0.036625
v 0.234258 0.271534 -0.036625
v 0.308526 0.382683 -0.036625
v 0.334606 0.513794 -0.036625
v 0.453938 0.705135 -0.064732
v 0.345552 0.867347 -0.064732
v 0.183340 0.975733 -0.064732
v -0.008001 1.013794 -0.064732
v -0.199343 0.975733 -0.064732
v -0.361555 0.867347 -0.064732
v -0.469941 0.705135 -0.064732
v -0.508002 0.513794 -0.064732
v -0.469941 0.322452 -0.064732
v -0.361555 0.160240 -0.064732
v -0.199343 0.051854 -0.064732
v -0.008002 0.013794 -0.064732
v 0.183340 0.051854 -0.064732
v 0.345552 0.160240 -0.064732
v 0.453938 0.322452 -0.064732
v 0.491998 0.513794 -0.064732
v 0.453938 0.705135 0.085268
v 0.345552 0.867347 0.085268
v 0.183340 0.975733 0.085268
v -0.008001 1.013794 0.085268
v -0.199343 0.975733 0.085268
v -0.361555 0.867347 0.085268
v -0.469941 0.705135 0.085268
v -0.508002 0.513794 0.085268
v -0.469941 0.322452 0.085268
v -0.361555 0.160240 0.085268
v -0.199343 0.051854 0.085268
v -0.008002 0.013794 0.085268
v 0.183340 0.051854 0.085268
v 0.345552 0.160240 0.085268
v 0.453938 0.322452 0.085268
v 0.491998 0.513794 0.085268
v 0.308526 0.644904 0.057161
v 0.234259 0.756053 0.057161
v 0.123109 0.830321 0.057161
v -0.008001 0.856401 0.057161
v -0.139112 0.830322 0.057161
v -0.250262 0.756054 0.057161
v -0.324530 0.644904 0.057161
v -0.350609 0.513794 0.057161
v -0.324530 0.382684 0.057161
v -0.250262 0.271534 0.057161
v -0.139112 0.197266 0.057161
v -0.008002 0.171186 0.057161
v 0.123108 0.197266 0.057161
v 0.234258 0.271534 0.057161
v 0.308526 0.382683 0.057161
v 0.334606 0.513794 0.057161
v 0.247688 0.769483 0.085268
v 0.130377 0.847868 0.085268
v -0.008001 0.875394 0.085268
v -0.146380 0.847868 0.085268
v -0.263691 0.769483 0.085268
v -0.342076 0.652172 0.085268
v -0.369602 0.513794 0.085268
v -0.342076 0.375415 0.085268
v -0.263691 0.258104 0.085268
v -0.146380 0.179719 0.085268
v -0.008002 0.152194 0.085268
v 0.130377 0.179719 0.085268
v 0.247688 0.258104 0.085268
v 0.326073 0.375415 0.085268
v 0.353598 0.513794 0.085268
v 0.326073 0.652172 0.085268
v 0.320132 0.649711 -0.064732
v 0.347167 0.513794 -0.064732
v 0.320132 0.377876 -0.064732
v 0.243141 0.262651 -0.064732
v 0.127916 0.185660 -0.064732
v -0.008002 0.158625 -0.064732
v -0.143919 0.185660 -0.064732
v -0.259144 0.262651 -0.064732
v -0.336135 0.377876 -0.064732
v -0.363171 0.513794 -0.064732
v -0.336135 0.649711 -0.064732
v -0.259144 0.764936 -0.064732
v -0.143919 0.841927 -0.064732
v -0.008001 0.868962 -0.064732
v 0.127916 0.841927 -0.064732
v 0.243141 0.764936 -0.064732
vt 0.500419 0.564600
vt 0.500419 0.625806
vt 0.487298 0.625806
vt 0.487298 0.562356
vt 0.500419 0.687012
vt 0.487298 0.689256
vt 0.500419 0.512712
vt 0.487298 0.508566
vt 0.500419 0.738900
vt 0.487298 0.743047
vt 0.500419 0.478042
vt 0.487298 0.472624
vt 0.500419 0.773571
vt 0.487298 0.778988
vt 0.519676 0.564600
vt 0.519676 0.625806
vt 0.506555 0.625806
vt 0.506555 0.562356
vt 0.519676 0.687012
vt 0.506555 0.689256
vt 0.519676 0.512712
vt 0.506555 0.508566
vt 0.519676 0.738900
vt 0.506555 0.743047
vt 0.519676 0.478042
vt 0.506555 0.472624
vt 0.519676 0.773571
vt 0.506555 0.778988
vt 0.921849 0.688271
vt 0.921849 0.777595
vt 0.851824 0.777595
vt 0.851824 0.688271
vt 0.921849 0.853320
vt 0.851824 0.853320
vt 0.921849 0.598947
vt 0.851824 0.598947
vt 0.921849 0.903918
vt 0.851824 0.903918
vt 0.921849 0.523222
vt 0.851824 0.523222
vt 0.921849 0.472624
vt 0.851824 0.472624
vt 0.998008 0.688271
vt 0.998008 0.777595
vt 0.927984 0.777595
vt 0.927984 0.688271
vt 0.998008 0.853320
vt 0.927984 0.853320
vt 0.998008 0.598947
vt 0.927984 0.598947
vt 0.998008 0.903918
vt 0.927984 0.903918
vt 0.927984 0.523222
vt 0.998008 0.523222
vt 0.998008 0.472624
vt 0.927984 0.472624
vt 0.833514 0.693769
vt 0.798844 0.745657
vt 0.746956 0.780328
vt 0.685750 0.792502
vt 0.624544 0.780328
vt 0.572656 0.745657
vt 0.537986 0.693769
vt 0.525811 0.632563
vt 0.537986 0.571357
vt 0.572656 0.519469
vt 0.624544 0.484799
vt 0.685750 0.472624
vt 0.746956 0.484799
vt 0.798844 0.519469
vt 0.833514 0.571357
vt 0.845689 0.632563
vt 0.395345 0.235219
vt 0.383171 0.296424
vt 0.348500 0.348312
vt 0.296612 0.382983
vt 0.235406 0.395157
vt 0.174200 0.382983
vt 0.122312 0.348313
vt 0.087642 0.296425
vt 0.075467 0.235219
vt 0.087642 0.174013
vt 0.122312 0.122125
vt 0.174200 0.087454
vt 0.235406 0.075280
vt 0.296612 0.087454
vt 0.348500 0.122125
vt 0.383171 0.174013
vt 0.404212 0.235219
vt 0.391362 0.299817
vt 0.354770 0.354582
vt 0.300005 0.391174
vt 0.235406 0.404024
vt 0.170807 0.391174
vt 0.116043 0.354582
vt 0.079451 0.299818
vt 0.066601 0.235219
vt 0.079451 0.170620
vt 0.116043 0.115855
vt 0.170807 0.079263
vt 0.235406 0.066413
vt 0.300005 0.079263
vt 0.354770 0.115855
vt 0.391362 0.170620
vt 0.468821 0.235219
vt 0.451053 0.324542
vt 0.400455 0.400267
vt 0.324730 0.450865
vt 0.235406 0.468633
vt 0.146083 0.450865
vt 0.070358 0.400267
vt 0.019760 0.324542
vt 0.001992 0.235219
vt 0.019760 0.145895
vt 0.070357 0.070170
vt 0.146082 0.019572
vt 0.235406 0.001804
vt 0.324730 0.019572
vt 0.400455 0.070170
vt 0.451053 0.145895
vt 0.875000 0.235219
vt 0.862379 0.171769
vt 0.924843 0.145895
vt 0.942611 0.235219
vt 0.826437 0.117978
vt 0.874246 0.070170
vt 0.862379 0.298669
vt 0.924843 0.324542
vt 0.772647 0.082037
vt 0.798521 0.019572
vt 0.826437 0.352459
vt 0.874245 0.400267
vt 0.709197 0.069416
vt 0.709197 0.001804
vt 0.772647 0.388401
vt 0.798520 0.450865
vt 0.645747 0.082037
vt 0.619873 0.019572
vt 0.709197 0.401022
vt 0.709197 0.468633
vt 0.591956 0.117978
vt 0.544148 0.070170
vt 0.645747 0.388401
vt 0.619873 0.450865
vt 0.556015 0.171768
vt 0.493550 0.145895
vt 0.591956 0.352459
vt 0.544148 0.400267
vt 0.543394 0.235219
vt 0.475782 0.235218
vt 0.556015 0.298669
vt 0.493550 0.324542
vt 0.328843 0.474868
vt 0.328843 0.536074
vt 0.315722 0.536074
vt 0.315722 0.472624
vt 0.328843 0.597280
vt 0.315722 0.599524
vt 0.296466 0.597280
vt 0.296466 0.536074
vt 0.309587 0.536074
vt 0.309587 0.599524
vt 0.296466 0.474868
vt 0.309587 0.472624
vt 0.411138 0.561948
vt 0.411138 0.472624
vt 0.481163 0.472624
vt 0.481163 0.561948
vt 0.411138 0.651272
vt 0.481163 0.651272
vt 0.405003 0.561948
vt 0.405003 0.651272
vt 0.334979 0.651272
vt 0.334979 0.561948
vt 0.405003 0.472624
vt 0.334979 0.472624
vn -0.761526 -0.508835 -0.401454
vn -0.761527 -0.508835 -0.401453
vn -0.761526 -0.508835 -0.401454
vn -0.761527 -0.508835 -0.401453
vn -0.508836 -0.761526 -0.401454
vn -0.508835 -0.761525 -0.401455
vn -0.508836 -0.761526 -0.401454
vn -0.508835 -0.761525 -0.401455
vn -0.178680 -0.898280 -0.401455
vn -0.178679 -0.898281 -0.401454
vn -0.178680 -0.898280 -0.401455
vn -0.178679 -0.898281 -0.401454
vn 0.178678 -0.898281 -0.401454
vn 0.178678 -0.898281 -0.401454
vn 0.178678 -0.898281 -0.401454
vn 0.178678 -0.898281 -0.401454
vn 0.508835 -0.761526 -0.401455
vn 0.508835 -0.761526 -0.401453
vn 0.508835 -0.761526 -0.401454
vn 0.508835 -0.761526 -0.401453
vn 0.761526 -0.508835 -0.401455
vn 0.761525 -0.508835 -0.401455
vn 0.761525 -0.508835 -0.401455
vn 0.761525 -0.508835 -0.401456
vn 0.898281 -0.178679 -0.401454
vn 0.898280 -0.178679 -0.401455
vn 0.898281 -0.178679 -0.401454
vn 0.898280 -0.178679 -0.401456
vn 0.898280 0.178678 -0.401456
vn 0.898281 0.178679 -0.401453
vn 0.898280 0.178678 -0.401456
vn 0.898282 0.178679 -0.401453
vn 0.761526 0.508835 -0.401454
vn 0.761526 0.508835 -0.401454
vn 0.761526 0.508835 -0.401454
vn 0.761526 0.508835 -0.401454
vn 0.508835 0.761525 -0.401455
vn 0.508836 0.761526 -0.401454
vn 0.508835 0.761525 -0.401455
vn 0.508836 0.761526 -0.401454
vn 0.178679 0.898281 -0.401454
vn 0.178679 0.898280 -0.401455
vn 0.178679 0.898281 -0.401454
vn 0.178679 0.898280 -0.401455
vn -0.178679 0.898281 -0.401455
vn -0.178679 0.898281 -0.401455
vn -0.178679 0.898281 -0.401455
vn -0.178679 0.898281 -0.401455
vn -0.508835 0.761525 -0.401455
vn -0.508835 0.761526 -0.401454
vn -0.508835 0.761526 -0.401455
vn -0.508835 0.761526 -0.401454
vn -0.761525 0.508835 -0.401456
vn -0.761526 0.508835 -0.401454
vn -0.761525 0.508835 -0.401456
vn -0.761526 0.508835 -0.401454
vn -0.898280 0.178679 -0.401456
vn -0.898280 0.178679 -0.401456
vn -0.898280 0.178679 -0.401456
vn -0.898280 0.178679 -0.401456
vn -0.898280 -0.178679 -0.401455
vn -0.898281 -0.178679 -0.401453
vn -0.898281 -0.178679 -0.401455
vn -0.898281 -0.178679 -0.401453
vn 0.831470 0.555570 -0.000000
vn 0.831470 0.555570 -0.000000
vn 0.831470 0.555570 -0.000000
vn 0.831470 0.555570 -0.000000
vn 0.555571 0.831469 -0.000000
vn 0.555571 0.831469 -0.000000
vn 0.555571 0.831469 -0.000000
vn 0.555571 0.831469 -0.000000
vn 0.195091 0.980785 -0.000000
vn 0.195091 0.980785 -0.000000
vn 0.195091 0.980785 -0.000000
vn 0.195090 0.980785 -0.000000
vn -0.195090 0.980785 -0.000000
vn -0.195090 0.980785 -0.000000
vn -0.195090 0.980785 -0.000000
vn -0.195089 0.980785 -0.000000
vn -0.555570 0.831470 -0.000000
vn -0.555570 0.831470 -0.000000
vn -0.555570 0.831470 -0.000000
vn -0.555570 0.831470 -0.000000
vn -0.831469 0.555571 -0.000000
vn -0.831469 0.555571 -0.000000
vn -0.831469 0.555571 -0.000000
vn -0.831469 0.555571 -0.000000
vn -0.980785 0.195090 -0.000000
vn -0.980785 0.195090 -0.000000
vn -0.980785 0.195090 -0.000000
vn -0.980785 0.195090 -0.000000
vn -0.980785 -0.195090 0.000000
vn -0.980785 -0.195090 0.000000
vn -0.980785 -0.195090 0.000000
vn -0.980785 -0.195090 0.000000
vn -0.831470 -0.555570 0.000000
vn -0.831470 -0.555570 0.000000
vn -0.831470 -0.555570 0.000000
vn -0.831470 -0.555570 0.000000
vn -0.555570 -0.831470 0.000000
vn -0.555570 -0.831470 0.000000
vn -0.555570 -0.831470 0.000000
vn -0.555570 -0.831470 0.000000
vn -0.195091 -0.980785 0.000000
vn -0.195091 -0.980785 0.000000
vn -0.195091 -0.980785 0.000000
vn -0.195090 -0.980785 0.000000
vn 0.195090 -0.980785 0.000000
vn 0.195090 -0.980785 0.000000
vn 0.195090 -0.980785 0.000000
vn 0.195090 -0.980785 0.000000
vn 0.555570 -0.831470 0.000000
vn 0.555570 -0.831470 0.000000
vn 0.555570 -0.831470 0.000000
vn 0.555570 -0.831470 0.000000
vn 0.831470 -0.555570 0.000000
vn 0.831470 -0.555570 0.000000
vn 0.831470 -0.555570 0.000000
vn 0.831470 -0.555570 0.000000
vn 0.980785 -0.195090 0.000000
vn 0.980785 -0.195090 0.000000
vn 0.980785 -0.195090 0.000000
vn 0.980785 -0.195090 0.000000
vn 0.980785 0.195090 -0.000000
vn 0.980785 0.195090 -0.000000
vn 0.980785 0.195090 -0.000000
vn 0.980785 0.195090 -0.000000
vn -0.693079 -0.463100 0.552431
vn -0.693080 -0.463101 0.552429
vn -0.693079 -0.463100 0.552430
vn -0.693081 -0.463101 0.552428
vn -0.463102 -0.693079 0.552429
vn -0.463101 -0.693079 0.552431
vn -0.463101 -0.693079 0.552430
vn -0.463100 -0.693079 0.552431
vn -0.162620 -0.817542 0.552431
vn -0.162619 -0.817542 0.552430
vn -0.162620 -0.817542 0.552431
vn -0.162619 -0.817543 0.552430
vn 0.162619 -0.817543 0.552431
vn 0.162619 -0.817543 0.552430
vn 0.162619 -0.817543 0.552430
vn 0.162619 -0.817543 0.552430
vn 0.463100 -0.693079 0.552430
vn 0.463101 -0.693080 0.552430
vn 0.463100 -0.693080 0.552430
vn 0.463101 -0.693080 0.552429
vn 0.693079 -0.463101 0.552430
vn 0.693078 -0.463100 0.552431
vn 0.693079 -0.463101 0.552430
vn 0.693078 -0.463100 0.552432
vn 0.817541 -0.162619 0.552432
vn 0.817543 -0.162620 0.552429
vn 0.817542 -0.162619 0.552431
vn 0.817544 -0.162620 0.552428
vn 0.817542 0.162619 0.552432
vn 0.817543 0.162619 0.552430
vn 0.817542 0.162619 0.552431
vn 0.817543 0.162619 0.552429
vn 0.693079 0.463100 0.552431
vn 0.693079 0.463101 0.552430
vn 0.693079 0.463100 0.552431
vn 0.693080 0.463101 0.552429
vn 0.463101 0.693078 0.552431
vn 0.463101 0.693078 0.552431
vn 0.463101 0.693078 0.552431
vn 0.463101 0.693079 0.552431
vn 0.162619 0.817542 0.552431
vn 0.162619 0.817542 0.552431
vn 0.162619 0.817542 0.552431
vn 0.162619 0.817542 0.552431
vn -0.162619 0.817542 0.552431
vn -0.162619 0.817543 0.552430
vn -0.162619 0.817542 0.552431
vn -0.162619 0.817543 0.552430
vn -0.463101 0.693079 0.552430
vn -0.463101 0.693079 0.552430
vn -0.463101 0.693079 0.552430
vn -0.463101 0.693079 0.552430
vn -0.693079 0.463100 0.552431
vn -0.693079 0.463100 0.552431
vn -0.693079 0.463100 0.552431
vn -0.693079 0.463100 0.552431
vn -0.817542 0.162619 0.552431
vn -0.817542 0.162619 0.552431
vn -0.817542 0.162619 0.552431
vn -0.817542 0.162619 0.552431
vn -0.817543 -0.162619 0.552430
vn -0.817543 -0.162619 0.552430
vn -0.817543 -0.162619 0.552430
vn -0.817543 -0.162619 0.552430
vn 0.000000 0.000000 -1.000000
vn 0.000000 0.000000 -1.000000
vn 0.000000 -0.000000 -1.000000
vn 0.000000 -0.000000 -1.000000
vn 0.000000 -0.000000 -1.000000
vn 0.000000 -0.000000 -1.000000
vn 0.000000 -0.000000 -1.000000
vn 0.000000 0.000000 -1.000000
vn 0.000000 -0.000000 -1.000000
vn 0.000000 -0.000000 -1.000000
vn 0.000000 -0.000000 -1.000000
vn 0.000000 -0.000000 -1.000000
vn 0.000000 -0.000000 -1.000000
vn 0.000000 0.000000 -1.000000
vn 0.000000 0.000000 -1.000000
vn 0.000000 -0.000000 -1.000000
vn 0.000000 0.000000 1.000000
vn 0.000000 0.000000 1.000000
vn 0.000000 0.000000 1.000000
vn 0.000000 -0.000000 1.000000
vn 0.000000 -0.000000 1.000000
vn 0.000000 0.000000 1.000000
vn 0.000000 0.000000 1.000000
vn 0.000000 0.000000 1.000000
vn 0.000000 0.000000 1.000000
vn 0.000000 -0.000000 1.000000
vn 0.000000 0.000000 1.000000
vn 0.000000 0.000000 1.000000
vn 0.000000 0.000000 1.000000
vn 0.000000 -0.000000 1.000000
vn 0.000000 -0.000000 1.000000
vn 0.000000 0.000000 1.000000
vn 0.000000 0.000000 1.000000
vn 0.000000 0.000000 1.000000
vn 0.000000 0.000000 1.000000
vn 0.000000 0.000000 1.000000
vn 0.000000 0.000000 1.000000
vn 0.000000 0.000000 1.000000
vn 0.000000 0.000000 1.000000
vn 0.000000 0.000000 1.000000
vn 0.000000 -0.000000 1.000000
vn 0.000000 -0.000000 1.000000
vn 0.000000 -0.000000 1.000000
vn 0.000000 0.000000 1.000000
vn 0.000000 -0.000000 1.000000
vn 0.000000 0.000000 1.000000
vn 0.000000 -0.000000 1.000000
vn 0.000000 0.000000 1.000000
vn 0.000000 0.000000 1.000000
vn 0.000000 0.000000 1.000000
vn 0.000000 0.000000 1.000000
vn 0.000000 0.000000 1.000000
vn 0.000000 0.000000 1.000000
vn 0.000000 0.000000 1.000000
vn 0.000000 0.000000 1.000000
vn 0.000000 0.000000 1.000000
vn 0.000000 0.000000 1.000000
vn 0.000000 0.000000 1.000000
vn 0.000000 0.000000 1.000000
vn 0.000000 0.000000 1.000000
vn 0.000000 0.000000 1.000000
vn 0.000000 0.000000 1.000000
vn 0.000000 0.000000 1.000000
vn 0.000000 0.000000 1.000000
vn 0.000000 0.000000 1.000000
vn 0.000000 0.000000 1.000000
vn 0.000000 0.000000 1.000000
vn 0.000000 0.000000 1.000000
vn 0.000000 0.000000 1.000000
vn 0.000000 0.000000 1.000000
vn 0.000000 0.000000 1.000000
vn 0.000000 0.000000 1.000000
vn 0.000000 -0.000000 1.000000
vn 0.000000 -0.000000 1.000000
vn 0.000000 -0.000000 1.000000
vn 0.000000 0.000000 1.000000
vn 0.000000 0.000000 1.000000
vn 0.000000 0.000000 1.000000
vn 0.000000 0.000000 1.000000
vn 0.000000 0.000000 1.000000
vn 0.000000 0.000000 1.000000
vn 0.000000 -0.000000 1.000000
vn 0.000000 -0.000000 1.000000
vn 0.000000 -0.000000 1.000000
vn 0.000000 0.000000 1.000000
vn 0.000000 0.000000 1.000000
vn 0.000000 0.000000 1.000000
vn 0.000000 0.000000 1.000000
vn 0.000000 0.000000 1.000000
vn 0.000000 0.000000 1.000000
vn 0.000000 0.000000 1.000000
vn 0.000000 0.000000 1.000000
vn 0.000000 -0.000000 1.000000
vn 0.000000 -0.000000 1.000000
vn 0.000000 -0.000000 1.000000
vn 0.000000 0.000000 1.000000
vn 0.000000 -0.000000 -1.000000
vn 0.000000 -0.000000 -1.000000
vn 0.000000 -0.000000 -1.000000
vn 0.000000 -0.000000 -1.000000
vn 0.000000 -0.000000 -1.000000
vn 0.000000 -0.000000 -1.000000
vn 0.000000 -0.000000 -1.000000
vn 0.000000 -0.000000 -1.000000
vn 0.000000 -0.000000 -1.000000
vn 0.000000 -0.000000 -1.000000
vn 0.000000 -0.000000 -1.000000
vn 0.000000 -0.000000 -1.000000
vn 0.000000 -0.000000 -1.000000
vn 0.000000 -0.000000 -1.000000
vn 0.000000 -0.000000 -1.000000
vn 0.000000 -0.000000 -1.000000
vn 0.000000 -0.000000 -1.000000
vn 0.000000 -0.000000 -1.000000
vn 0.000000 -0.000000 -1.000000
vn 0.000000 -0.000000 -1.000000
vn 0.000000 -0.000000 -1.000000
vn 0.000000 0.000000 -1.000000
vn 0.000000 0.000000 -1.000000
vn 0.000000 0.000000 -1.000000
vn 0.000000 0.000000 -1.000000
vn 0.000000 0.000000 -1.000000
vn 0.000000 0.000000 -1.000000
vn 0.000000 -0.000000 -1.000000
vn 0.000000 0.000000 -1.000000
vn 0.000000 -0.000000 -1.000000
vn 0.000000 -0.000000 -1.000000
vn 0.000000 -0.000000 -1.000000
vn 0.000000 -0.000000 -1.000000
vn 0.000000 -0.000000 -1.000000
vn 0.000000 -0.000000 -1.000000
vn 0.000000 -0.000000 -1.000000
vn 0.000000 -0.000000 -1.000000
vn 0.000000 -0.000000 -1.000000
vn 0.000000 -0.000000 -1.000000
vn 0.000000 -0.000000 -1.000000
vn 0.000000 -0.000000 -1.000000
vn 0.000000 -0.000000 -1.000000
vn 0.000000 -0.000000 -1.000000
vn 0.000000 -0.000000 -1.000000
vn 0.000000 -0.000000 -1.000000
vn 0.000000 -0.000000 -1.000000
vn 0.000000 -0.000000 -1.000000
vn 0.000000 -0.000000 -1.000000
vn 0.000000 -0.000000 -1.000000
vn 0.000000 -0.000000 -1.000000
vn 0.000000 -0.000000 -1.000000
vn 0.000000 -0.000000 -1.000000
vn 0.000000 0.000000 -1.000000
vn 0.000000 0.000000 -1.000000
vn 0.000000 0.000000 -1.000000
vn 0.000000 -0.000000 -1.000000
vn 0.000000 0.000000 -1.000000
vn 0.000000 -0.000000 -1.000000
vn 0.000000 -0.000000 -1.000000
vn 0.000000 -0.000000 -1.000000
vn 0.000000 -0.000000 -1.000000
vn 0.000000 -0.000000 -1.000000
vn 0.000000 -0.000000 -1.000000
vn 0.000000 -0.000000 -1.000000
g pCylinder1
usemtl blinn1SG
f 1/19/1 2/23/2 81/20/3
f 81/20/3 2/23/2 96/24/4
f 2/23/5 3/27/6 96/24/7
f 96/24/7 3/27/6 95/28/8
f 3/153/9 4/154/10 95/156/11
f 95/156/11 4/154/10 94/155/12
f 4/154/13 5/157/14 94/155/15
f 94/155/15 5/157/14 93/158/16
f 5/11/17 6/7/18 93/12/19
f 93/12/19 6/7/18 92/8/20
f 6/7/21 7/1/22 92/8/23
f 92/8/23 7/1/22 91/4/24
f 7/1/25 8/2/26 91/4/27
f 91/4/27 8/2/26 90/3/28
f 8/2/29 9/5/30 90/3/31
f 90/3/31 9/5/30 89/6/32
f 9/5/33 10/9/34 89/6/35
f 89/6/35 10/9/34 88/10/36
f 10/9/37 11/13/38 88/10/39
f 88/10/39 11/13/38 87/14/40
f 11/159/41 12/160/42 87/162/43
f 87/162/43 12/160/42 86/161/44
f 12/160/45 13/163/46 86/161/47
f 86/161/47 13/163/46 85/164/48
f 13/25/49 14/21/50 85/26/51
f 85/26/51 14/21/50 84/22/52
f 14/21/53 15/15/54 84/22/55
f 84/22/55 15/15/54 83/18/56
f 15/15/57 16/16/58 83/18/59
f 83/18/59 16/16/58 82/17/60
f 16/16/61 1/19/62 82/17/63
f 82/17/63 1/19/62 81/20/64
f 18/53/65 34/54/66 17/50/67
f 17/50/67 34/54/66 33/49/68
f 35/55/69 34/54/70 19/56/71
f 19/56/71 34/54/70 18/53/72
f 36/165/73 35/166/74 20/168/75
f 20/168/75 35/166/74 19/167/76
f 37/169/77 36/165/78 21/170/79
f 21/170/79 36/165/78 20/168/80
f 38/33/81 37/37/82 22/34/83
f 22/34/83 37/37/82 21/38/84
f 39/30/85 38/33/86 23/31/87
f 23/31/87 38/33/86 22/34/88
f 40/29/89 39/30/90 24/32/91
f 24/32/91 39/30/90 23/31/92
f 41/35/93 40/29/94 25/36/95
f 25/36/95 40/29/94 24/32/96
f 42/39/97 41/35/98 26/40/99
f 26/40/99 41/35/98 25/36/100
f 43/41/101 42/39/102 27/42/103
f 27/42/103 42/39/102 26/40/104
f 44/171/105 43/172/106 28/174/107
f 28/174/107 43/172/106 27/173/108
f 45/175/109 44/171/110 29/176/111
f 29/176/111 44/171/110 28/174/112
f 46/47/113 45/51/114 30/48/115
f 30/48/115 45/51/114 29/52/116
f 47/44/117 46/47/118 31/45/119
f 31/45/119 46/47/118 30/48/120
f 48/43/121 47/44/122 32/46/123
f 32/46/123 47/44/122 31/45/124
f 33/49/125 48/43/126 17/50/127
f 17/50/127 48/43/126 32/46/128
f 80/90/129 65/91/130 49/74/131
f 49/74/131 65/91/130 50/75/132
f 65/91/133 66/92/134 50/75/135
f 50/75/135 66/92/134 51/76/136
f 66/92/137 67/93/138 51/76/139
f 51/76/139 67/93/138 52/77/140
f 67/93/141 68/94/142 52/77/143
f 52/77/143 68/94/142 53/78/144
f 68/94/145 69/95/146 53/78/147
f 53/78/147 69/95/146 54/79/148
f 69/95/149 70/96/150 54/79/151
f 54/79/151 70/96/150 55/80/152
f 70/96/153 71/97/154 55/80/155
f 55/80/155 71/97/154 56/81/156
f 71/97/157 72/98/158 56/81/159
f 56/81/159 72/98/158 57/82/160
f 72/98/161 73/99/162 57/82/163
f 57/82/163 73/99/162 58/83/164
f 73/99/165 74/100/166 58/83/167
f 58/83/167 74/100/166 59/84/168
f 74/100/169 75/101/170 59/84/171
f 59/84/171 75/101/170 60/85/172
f 75/101/173 76/102/174 60/85/175
f 60/85/175 76/102/174 61/86/176
f 76/102/177 77/103/178 61/86/179
f 61/86/179 77/103/178 62/87/180
f 77/103/181 78/104/182 62/87/183
f 62/87/183 78/104/182 63/88/184
f 78/104/185 79/89/186 63/88/187
f 63/88/187 79/89/186 64/73/188
f 79/89/189 80/90/190 64/73/191
f 64/73/191 80/90/190 49/74/192
f 15/57/193 14/58/194 16/72/195
f 14/58/194 13/59/196 16/72/195
f 13/59/196 12/60/197 16/72/195
f 12/60/197 11/61/198 16/72/195
f 11/61/198 10/62/199 16/72/195
f 10/62/199 9/63/200 16/72/195
f 9/63/200 8/64/201 16/72/195
f 8/64/201 7/65/202 16/72/195
f 7/65/202 6/66/203 16/72/195
f 6/66/203 5/67/204 16/72/195
f 5/67/204 4/68/205 16/72/195
f 4/68/205 3/69/206 16/72/195
f 3/69/206 2/70/207 16/72/195
f 2/70/207 1/71/208 16/72/195
f 64/73/209 49/74/210 63/88/211
f 49/74/210 50/75/212 63/88/211
f 50/75/212 51/76/213 63/88/211
f 51/76/213 52/77/214 63/88/211
f 52/77/214 53/78/215 63/88/211
f 53/78/215 54/79/216 63/88/211
f 54/79/216 55/80/217 63/88/211
f 55/80/217 56/81/218 63/88/211
f 56/81/218 57/82/219 63/88/211
f 57/82/219 58/83/220 63/88/211
f 58/83/220 59/84/221 63/88/211
f 59/84/221 60/85/222 63/88/211
f 60/85/222 61/86/223 63/88/211
f 61/86/223 62/87/224 63/88/211
f 34/107/225 35/108/226 65/91/227
f 65/91/227 35/108/226 66/92/228
f 35/108/229 36/109/230 66/92/231
f 66/92/231 36/109/230 67/93/232
f 36/109/233 37/110/234 67/93/235
f 67/93/235 37/110/234 68/94/236
f 37/110/237 38/111/238 68/94/239
f 68/94/239 38/111/238 69/95/240
f 38/111/241 39/112/242 69/95/243
f 69/95/243 39/112/242 70/96/244
f 39/112/245 40/113/246 70/96/247
f 70/96/247 40/113/246 71/97/248
f 40/113/249 41/114/250 71/97/251
f 71/97/251 41/114/250 72/98/252
f 41/114/253 42/115/254 72/98/255
f 72/98/255 42/115/254 73/99/256
f 42/115/257 43/116/258 73/99/259
f 73/99/259 43/116/258 74/100/260
f 43/116/261 44/117/262 74/100/263
f 74/100/263 44/117/262 75/101/264
f 44/117/265 45/118/266 75/101/267
f 75/101/267 45/118/266 76/102/268
f 45/118/269 46/119/270 76/102/271
f 76/102/271 46/119/270 77/103/272
f 46/119/273 47/120/274 77/103/275
f 77/103/275 47/120/274 78/104/276
f 47/120/277 48/105/278 78/104/279
f 78/104/279 48/105/278 79/89/280
f 48/105/281 33/106/282 79/89/283
f 79/89/283 33/106/282 80/90/284
f 33/106/285 34/107/286 80/90/287
f 80/90/287 34/107/286 65/91/288
f 82/121/289 81/122/290 32/124/291
f 32/124/291 81/122/290 17/123/292
f 83/127/293 82/121/294 31/128/295
f 31/128/295 82/121/294 32/124/296
f 84/131/297 83/127/298 30/132/299
f 30/132/299 83/127/298 31/128/300
f 85/135/301 84/131/302 29/136/303
f 29/136/303 84/131/302 30/132/304
f 86/139/305 85/135/306 28/140/307
f 28/140/307 85/135/306 29/136/308
f 87/143/309 86/139/310 27/144/311
f 27/144/311 86/139/310 28/140/312
f 88/147/313 87/143/314 26/148/315
f 26/148/315 87/143/314 27/144/316
f 89/151/317 88/147/318 25/152/319
f 25/152/319 88/147/318 26/148/320
f 90/149/321 89/151/322 24/150/323
f 24/150/323 89/151/322 25/152/324
f 91/145/325 90/149/326 23/146/327
f 23/146/327 90/149/326 24/150/328
f 92/141/329 91/145/330 22/142/331
f 22/142/331 91/145/330 23/146/332
f 93/137/333 92/141/334 21/138/335
f 21/138/335 92/141/334 22/142/336
f 94/133/337 93/137/338 20/134/339
f 20/134/339 93/137/338 21/138/340
f 95/129/341 94/133/342 19/130/343
f 19/130/343 94/133/342 20/134/344
f 96/125/345 95/129/346 18/126/347
f 18/126/347 95/129/346 19/130/348
f 81/122/349 96/125/350 17/123/351
f 17/123/351 96/125/350 18/126/352
