# Blender v2.76 (sub 0) OBJ File: 'cubo.blend'
# www.blender.org
mtllib cube2.mtl
o Cube
v 1.000000 -1.000000 -1.000000
v 1.000000 -1.000000 1.000000
v -1.000000 -1.000000 1.000000
v -1.000000 -1.000000 -1.000000
v 1.000000 1.000000 -0.999999
v 0.999999 1.000000 1.000001
v -1.000000 1.000000 1.000000
v -1.000000 1.000000 -1.000000
vt 0.999900 0.999900
vt 0.000100 0.999900
vt 0.000100 0.000100
vt 0.999900 0.000100
vt 0.022782 0.958923
vt 0.022782 0.517825
vt 0.463881 0.517824
vt 0.463881 0.958923
vn 0.000000 -1.000000 0.000000
vn 0.000000 1.000000 0.000000
vn 1.000000 0.000000 0.000000
vn -0.000000 -0.000000 1.000000
vn -1.000000 -0.000000 -0.000000
vn 0.000000 0.000000 -1.000000
usemtl Material
s off
f 1/1/1 2/2/1 3/3/1 4/4/1
f 5/1/2 8/2/2 7/3/2 6/4/2
f 1/4/3 5/1/3 6/2/3 2/3/3
f 2/4/4 6/1/4 7/2/4 3/3/4
f 3/4/5 7/1/5 8/2/5 4/3/5
usemtl Material_texture.png
f 5/5/6 1/6/6 4/7/6 8/8/6
