# Blender v2.76 (sub 0) OBJ File: ''
# www.blender.org
mtllib pir.mtl
o Cube_Cube.001
v -1.000000 -1.000000 1.000000
v -1.000000 -1.000000 -1.000000
v 0.000000 1.000000 0.000000
v 1.000000 -1.000000 1.000000
v 1.000000 -1.000000 -1.000000
vn 0.000000 -1.000000 0.000000
vn -0.894400 0.447200 0.000000
vn 0.000000 0.447200 -0.894400
vn 0.894400 0.447200 0.000000
vn 0.000000 0.447200 0.894400
usemtl None
s off
f 2//1 5//1 4//1
f 3//2 2//2 1//2
f 3//3 5//3 2//3
f 3//4 4//4 5//4
f 3//5 1//5 4//5
f 1//1 2//1 4//1
