# This file uses centimeters as units for non-parametric coordinates.

mtllib abeto.mtl
g default
v 0.000000 6.445225 0.000000
v 0.000148 10.758456 0.000000
v 0.000074 10.758456 -0.000128
v -0.000074 10.758456 -0.000128
v -0.000148 10.758456 0.000000
v -0.000074 10.758456 0.000128
v 0.000074 10.758456 0.000128
v 0.257246 10.519184 0.000000
v 0.128623 10.519184 -0.222781
v -0.128623 10.519184 -0.222781
v -0.257246 10.519184 0.000000
v -0.128623 10.519184 0.222781
v 0.128623 10.519184 0.222781
v 1.264151 1.293499 0.000000
v 0.632075 1.293499 -1.094787
v -0.632076 1.293499 -1.094787
v -1.264151 1.293499 0.000000
v -0.632075 1.293499 1.094787
v 0.632075 1.293499 1.094787
v 0.000726 1.293499 0.000000
v 0.000363 1.293499 -0.000629
v -0.000363 1.293499 -0.000629
v -0.000726 1.293499 0.000000
v -0.000363 1.293499 0.000629
v 0.000363 1.293499 0.000629
v -0.000000 1.293499 0.000000
v 0.355593 3.062381 -0.615905
v 0.784029 4.922864 -1.357977
v 0.566141 6.783346 -0.980584
v 0.668066 8.519770 -1.157125
v 1.336133 8.519770 -0.000000
v 2.203142 6.659286 0.000000
v 3.070152 4.798804 -0.000000
v 0.711185 3.062382 0.000000
v -0.355593 3.062381 -0.615905
v -0.784029 4.922864 -1.357977
v -0.566141 6.783346 -0.980584
v -0.668067 8.519770 -1.157125
v -0.711185 3.062381 0.000000
v -1.568057 4.922864 0.000000
v -1.132281 6.783346 0.000000
v -1.336133 8.519770 0.000000
v -0.355593 3.062381 0.615905
v -0.784028 4.922864 1.357977
v -0.566140 6.783346 0.980584
v -0.668066 8.519770 1.157125
v 0.355593 3.062381 0.615905
v 1.535076 4.798804 2.658830
v 1.101571 6.659286 1.907977
v 0.668066 8.519770 1.157125
v 1.968581 2.938321 -3.409682
v 1.535076 4.798804 -2.658830
v 1.101571 6.659286 -1.907977
v 0.348253 8.643828 -0.603191
v 0.696505 8.643829 0.000000
v 1.132281 6.783346 0.000000
v 1.568057 4.922864 0.000000
v 3.937162 2.938321 -0.000000
v -1.968581 2.938321 -3.409682
v -1.535076 4.798804 -2.658830
v -1.101571 6.659286 -1.907977
v -0.348253 8.643828 -0.603191
v -3.937162 2.938321 0.000000
v -3.070152 4.798804 0.000000
v -2.203142 6.659286 0.000000
v -0.696505 8.643828 0.000000
v -1.968580 2.938321 3.409682
v -1.535076 4.798804 2.658830
v -1.101571 6.659286 1.907977
v -0.348253 8.643828 0.603191
v 1.968581 2.938321 3.409682
v 0.784028 4.922864 1.357977
v 0.566140 6.783346 0.980584
v 0.348253 8.643828 0.603191
vt 0.500000 0.500000
vt 0.500287 0.500000
vt 0.500144 0.500249
vt 0.499856 0.500249
vt 0.499713 0.500000
vt 0.499856 0.499751
vt 0.500144 0.499751
vt 1.000000 0.500000
vt 0.750000 0.933013
vt 0.250000 0.933013
vt 0.000000 0.500000
vt 0.250000 0.066987
vt 0.750000 0.066987
vt 0.000000 1.000000
vt 0.166667 1.000000
vt 0.333333 1.000000
vt 0.500000 1.000000
vt 0.666667 1.000000
vt 0.833333 1.000000
vt 1.000000 1.000000
vt 0.000000 0.000000
vt 0.166667 0.000000
vt 0.333333 0.000000
vt 0.500000 0.000000
vt 0.666667 0.000000
vt 0.833333 0.000000
vt 1.000000 0.000000
vt 1.000000 0.500000
vt 0.750000 0.933013
vt 0.250000 0.933013
vt 0.000000 0.500000
vt 0.250000 0.066987
vt 0.750000 0.066987
vt 0.500287 0.500000
vt 0.500144 0.500249
vt 0.499856 0.500249
vt 0.499713 0.500000
vt 0.499856 0.499751
vt 0.500144 0.499751
vt 0.500000 0.500000
vt 0.166667 0.191735
vt 0.166667 0.393398
vt 0.166667 0.595061
vt 0.166667 0.808265
vt 0.000000 0.808265
vt 0.000000 0.606602
vt 0.000000 0.404939
vt 0.000000 0.191735
vt 1.000000 0.808265
vt 1.000000 0.606602
vt 1.000000 0.404939
vt 1.000000 0.191735
vt 0.333333 0.191735
vt 0.333333 0.393398
vt 0.333333 0.595061
vt 0.333333 0.808265
vt 0.500000 0.191735
vt 0.500000 0.393398
vt 0.500000 0.595061
vt 0.500000 0.808265
vt 0.666667 0.191735
vt 0.666667 0.393398
vt 0.666667 0.595061
vt 0.666667 0.808265
vt 0.833333 0.191735
vt 0.833333 0.404939
vt 0.833333 0.606602
vt 0.833333 0.808265
vt 0.166667 0.203275
vt 0.166667 0.404939
vt 0.166667 0.606602
vt 0.166667 0.796725
vt 0.000000 0.796725
vt 1.000000 0.796725
vt 0.000000 0.595061
vt 1.000000 0.595061
vt 0.000000 0.393398
vt 1.000000 0.393398
vt 0.000000 0.203275
vt 1.000000 0.203275
vt 0.333333 0.203275
vt 0.333333 0.404939
vt 0.333333 0.606602
vt 0.333333 0.796725
vt 0.500000 0.203275
vt 0.500000 0.404939
vt 0.500000 0.606602
vt 0.500000 0.796725
vt 0.666667 0.203275
vt 0.666667 0.404939
vt 0.666667 0.606602
vt 0.666667 0.796725
vt 0.833333 0.203275
vt 0.833333 0.393398
vt 0.833333 0.595061
vt 0.833333 0.796725
vn -0.866025 0.000030 0.500000
vn -0.866026 0.000030 0.500000
vn -0.866026 0.000030 0.500000
vn 0.000000 0.000030 1.000000
vn 0.000000 0.000030 1.000000
vn 0.000000 0.000030 1.000000
vn 0.866026 0.000030 0.500000
vn 0.866026 0.000030 0.500000
vn 0.866026 0.000030 0.500000
vn 0.866025 0.000030 -0.500000
vn 0.866025 0.000030 -0.500000
vn 0.866025 0.000030 -0.500000
vn 0.000000 0.000030 -1.000000
vn 0.000000 0.000030 -1.000000
vn 0.000000 0.000030 -1.000000
vn -0.866025 0.000030 -0.500000
vn -0.866025 0.000030 -0.500000
vn -0.866025 0.000030 -0.500000
vn 0.340637 0.732029 -0.590000
vn 0.340637 0.732029 -0.590000
vn 0.681273 0.732029 0.000000
vn 0.681273 0.732029 0.000000
vn -0.340637 0.732029 -0.590000
vn -0.340637 0.732029 -0.590000
vn 0.340637 0.732029 -0.590000
vn 0.340637 0.732029 -0.590000
vn -0.681273 0.732029 0.000000
vn -0.681273 0.732029 0.000000
vn -0.340637 0.732029 -0.590000
vn -0.340637 0.732029 -0.590000
vn -0.340637 0.732029 0.590000
vn -0.340637 0.732029 0.590000
vn -0.681273 0.732029 0.000000
vn -0.681273 0.732029 0.000000
vn 0.340637 0.732029 0.590000
vn 0.340637 0.732029 0.590000
vn -0.340637 0.732029 0.590000
vn -0.340637 0.732029 0.590000
vn 0.681273 0.732029 0.000000
vn 0.681273 0.732029 0.000000
vn 0.340637 0.732029 0.590000
vn 0.340637 0.732029 0.590000
vn 0.711961 -0.569340 -0.411051
vn 0.711961 -0.569340 -0.411051
vn 0.826033 -0.300377 -0.476910
vn 0.826033 -0.300376 -0.476910
vn 0.000000 -0.569340 -0.822102
vn 0.000000 -0.569340 -0.822102
vn 0.000000 -0.300376 -0.953821
vn 0.000000 -0.300377 -0.953821
vn -0.711961 -0.569340 -0.411051
vn -0.711961 -0.569340 -0.411051
vn -0.826033 -0.300376 -0.476910
vn -0.826033 -0.300376 -0.476910
vn -0.711961 -0.569340 0.411051
vn -0.711961 -0.569340 0.411051
vn -0.826033 -0.300376 0.476910
vn -0.826033 -0.300376 0.476910
vn 0.000000 -0.569340 0.822102
vn 0.000000 -0.569340 0.822102
vn 0.000000 -0.300377 0.953821
vn 0.000000 -0.300377 0.953821
vn 0.711961 -0.569340 0.411051
vn 0.711961 -0.569340 0.411051
vn 0.826033 -0.300377 0.476910
vn 0.826033 -0.300377 0.476910
vn 0.000000 -1.000000 -0.000000
vn 0.000000 -1.000000 -0.000000
vn 0.000000 -1.000000 -0.000000
vn 0.000000 -1.000000 -0.000000
vn 0.000000 -1.000000 -0.000000
vn 0.000000 -1.000000 -0.000000
vn 0.000000 -1.000000 -0.000000
vn 0.000000 -1.000000 -0.000000
vn 0.000000 -1.000000 -0.000000
vn 0.000000 -1.000000 -0.000000
vn 0.000000 -1.000000 -0.000000
vn 0.000000 -1.000000 -0.000000
vn 0.000000 -1.000000 -0.000000
vn 0.000000 -1.000000 -0.000000
vn 0.000000 -1.000000 -0.000000
vn 0.000000 -1.000000 -0.000000
vn 0.000000 -1.000000 -0.000000
vn 0.000000 -1.000000 -0.000000
vn 0.000000 -1.000000 -0.000000
vn 0.000000 -1.000000 -0.000000
vn 0.000000 -1.000000 -0.000000
vn 0.000000 -1.000000 -0.000000
vn 0.000000 -1.000000 -0.000000
vn 0.000000 -1.000000 -0.000000
vn 0.000000 -1.000000 -0.000000
vn 0.000000 -1.000000 -0.000000
vn 0.000000 -1.000000 -0.000000
vn 0.000000 -1.000000 -0.000000
vn 0.000000 -1.000000 -0.000000
vn 0.000000 -1.000000 -0.000000
vn 0.000000 -1.000000 -0.000000
vn 0.000000 -1.000000 -0.000000
vn 0.000000 -1.000000 -0.000000
vn 0.000000 -1.000000 -0.000000
vn 0.000000 -1.000000 -0.000000
vn 0.000000 -1.000000 -0.000000
vn 0.000000 -1.000000 -0.000000
vn 0.000000 -1.000000 -0.000000
vn 0.000000 -1.000000 -0.000000
vn 0.000000 -1.000000 -0.000000
vn 0.000000 -1.000000 -0.000000
vn 0.000000 -1.000000 -0.000000
vn 0.784585 0.423363 -0.452980
vn 0.784585 0.423363 -0.452980
vn 0.780504 -0.433304 -0.450624
vn 0.780504 -0.433304 -0.450624
vn 0.643875 -0.668756 -0.371741
vn 0.643874 -0.668756 -0.371741
vn 0.809765 -0.354554 -0.467518
vn 0.809765 -0.354553 -0.467518
vn 0.835933 0.261319 -0.482626
vn 0.835933 0.261319 -0.482626
vn 0.598012 -0.723308 -0.345262
vn 0.598012 -0.723309 -0.345262
vn 0.838284 -0.251077 -0.483983
vn 0.838284 -0.251077 -0.483983
vn 0.750699 -0.498599 -0.433416
vn 0.750699 -0.498599 -0.433416
vn 0.000000 0.423363 -0.905960
vn 0.000000 0.423363 -0.905960
vn 0.000000 -0.433304 -0.901248
vn 0.000000 -0.433304 -0.901248
vn 0.000000 -0.668756 -0.743482
vn 0.000000 -0.668756 -0.743482
vn 0.000000 -0.354553 -0.935036
vn 0.000000 -0.354553 -0.935036
vn -0.000000 0.261319 -0.965253
vn -0.000000 0.261319 -0.965253
vn -0.000000 -0.723309 -0.690525
vn -0.000000 -0.723309 -0.690525
vn -0.000000 -0.251077 -0.967967
vn -0.000000 -0.251077 -0.967967
vn -0.000000 -0.498599 -0.866833
vn -0.000000 -0.498599 -0.866833
vn -0.784585 0.423363 -0.452980
vn -0.784585 0.423363 -0.452980
vn -0.780504 -0.433304 -0.450624
vn -0.780504 -0.433304 -0.450624
vn -0.643875 -0.668756 -0.371741
vn -0.643875 -0.668756 -0.371741
vn -0.809765 -0.354553 -0.467518
vn -0.809765 -0.354553 -0.467518
vn -0.835933 0.261319 -0.482626
vn -0.835933 0.261319 -0.482626
vn -0.598012 -0.723308 -0.345262
vn -0.598012 -0.723308 -0.345262
vn -0.838284 -0.251077 -0.483983
vn -0.838284 -0.251077 -0.483983
vn -0.750699 -0.498599 -0.433416
vn -0.750699 -0.498599 -0.433416
vn -0.784585 0.423363 0.452980
vn -0.784585 0.423363 0.452980
vn -0.780503 -0.433304 0.450624
vn -0.780503 -0.433304 0.450624
vn -0.643874 -0.668756 0.371741
vn -0.643874 -0.668756 0.371741
vn -0.809765 -0.354553 0.467518
vn -0.809765 -0.354553 0.467518
vn -0.835933 0.261319 0.482626
vn -0.835933 0.261319 0.482626
vn -0.598012 -0.723308 0.345263
vn -0.598012 -0.723309 0.345263
vn -0.838284 -0.251077 0.483984
vn -0.838284 -0.251077 0.483984
vn -0.750699 -0.498599 0.433417
vn -0.750699 -0.498599 0.433416
vn 0.000000 0.423363 0.905960
vn 0.000000 0.423363 0.905960
vn 0.000000 -0.433304 0.901248
vn 0.000000 -0.433304 0.901248
vn 0.000000 -0.668756 0.743482
vn 0.000000 -0.668756 0.743482
vn 0.000000 -0.354553 0.935036
vn 0.000000 -0.354553 0.935036
vn 0.000000 0.261319 0.965253
vn 0.000000 0.261319 0.965253
vn 0.000000 -0.723309 0.690525
vn 0.000000 -0.723308 0.690525
vn 0.000000 -0.251077 0.967967
vn 0.000000 -0.251077 0.967967
vn 0.000000 -0.498599 0.866833
vn 0.000000 -0.498599 0.866833
vn 0.784585 0.423363 0.452980
vn 0.784585 0.423363 0.452980
vn 0.780504 -0.433304 0.450624
vn 0.780504 -0.433304 0.450624
vn 0.643874 -0.668756 0.371741
vn 0.643875 -0.668756 0.371741
vn 0.809765 -0.354553 0.467518
vn 0.809765 -0.354553 0.467518
vn 0.835933 0.261319 0.482626
vn 0.835933 0.261319 0.482626
vn 0.598012 -0.723309 0.345262
vn 0.598012 -0.723308 0.345263
vn 0.838284 -0.251077 0.483984
vn 0.838284 -0.251077 0.483984
vn 0.750699 -0.498599 0.433416
vn 0.750699 -0.498599 0.433416
vn 0.643875 -0.668756 -0.371741
vn 0.780504 -0.433304 -0.450624
vn 0.780504 -0.433304 -0.450624
vn 0.643874 -0.668756 -0.371741
vn 0.711961 -0.569340 -0.411051
vn 0.809765 -0.354553 -0.467518
vn 0.809765 -0.354554 -0.467518
vn 0.711961 -0.569340 -0.411051
vn 0.838284 -0.251077 -0.483983
vn 0.598012 -0.723309 -0.345262
vn 0.598012 -0.723308 -0.345262
vn 0.838284 -0.251077 -0.483983
vn 0.826033 -0.300377 -0.476910
vn 0.750699 -0.498599 -0.433416
vn 0.750699 -0.498599 -0.433416
vn 0.826033 -0.300376 -0.476910
vn 0.000000 -0.668756 -0.743482
vn 0.000000 -0.433304 -0.901248
vn 0.000000 -0.433304 -0.901248
vn 0.000000 -0.668756 -0.743482
vn 0.000000 -0.569340 -0.822102
vn 0.000000 -0.354553 -0.935036
vn 0.000000 -0.354553 -0.935036
vn 0.000000 -0.569340 -0.822102
vn -0.000000 -0.251077 -0.967967
vn -0.000000 -0.723309 -0.690525
vn -0.000000 -0.723309 -0.690525
vn -0.000000 -0.251077 -0.967967
vn 0.000000 -0.300376 -0.953821
vn -0.000000 -0.498599 -0.866833
vn -0.000000 -0.498599 -0.866833
vn 0.000000 -0.300377 -0.953821
vn -0.643875 -0.668756 -0.371741
vn -0.780504 -0.433304 -0.450624
vn -0.780504 -0.433304 -0.450624
vn -0.643875 -0.668756 -0.371741
vn -0.711961 -0.569340 -0.411051
vn -0.809765 -0.354553 -0.467518
vn -0.809765 -0.354553 -0.467518
vn -0.711961 -0.569340 -0.411051
vn -0.838284 -0.251077 -0.483983
vn -0.598012 -0.723308 -0.345262
vn -0.598012 -0.723308 -0.345262
vn -0.838284 -0.251077 -0.483983
vn -0.826033 -0.300376 -0.476910
vn -0.750699 -0.498599 -0.433416
vn -0.750699 -0.498599 -0.433416
vn -0.826033 -0.300376 -0.476910
vn -0.643874 -0.668756 0.371741
vn -0.780503 -0.433304 0.450624
vn -0.780503 -0.433304 0.450624
vn -0.643874 -0.668756 0.371741
vn -0.711961 -0.569340 0.411051
vn -0.809765 -0.354553 0.467518
vn -0.809765 -0.354553 0.467518
vn -0.711961 -0.569340 0.411051
vn -0.838284 -0.251077 0.483984
vn -0.598012 -0.723309 0.345263
vn -0.598012 -0.723308 0.345263
vn -0.838284 -0.251077 0.483984
vn -0.826033 -0.300376 0.476910
vn -0.750699 -0.498599 0.433416
vn -0.750699 -0.498599 0.433417
vn -0.826033 -0.300376 0.476910
vn 0.000000 -0.668756 0.743482
vn 0.000000 -0.433304 0.901248
vn 0.000000 -0.433304 0.901248
vn 0.000000 -0.668756 0.743482
vn 0.000000 -0.569340 0.822102
vn 0.000000 -0.354553 0.935036
vn 0.000000 -0.354553 0.935036
vn 0.000000 -0.569340 0.822102
vn 0.000000 -0.251077 0.967967
vn 0.000000 -0.723308 0.690525
vn 0.000000 -0.723309 0.690525
vn 0.000000 -0.251077 0.967967
vn 0.000000 -0.300377 0.953821
vn 0.000000 -0.498599 0.866833
vn 0.000000 -0.498599 0.866833
vn 0.000000 -0.300377 0.953821
vn 0.643874 -0.668756 0.371741
vn 0.780504 -0.433304 0.450624
vn 0.780504 -0.433304 0.450624
vn 0.643875 -0.668756 0.371741
vn 0.711961 -0.569340 0.411051
vn 0.809765 -0.354553 0.467518
vn 0.809765 -0.354553 0.467518
vn 0.711961 -0.569340 0.411051
vn 0.838284 -0.251077 0.483984
vn 0.598012 -0.723308 0.345263
vn 0.598012 -0.723309 0.345262
vn 0.838284 -0.251077 0.483984
vn 0.826033 -0.300377 0.476910
vn 0.750699 -0.498599 0.433416
vn 0.750699 -0.498599 0.433416
vn 0.826033 -0.300377 0.476910
s off
g Spindle001
usemtl Spindle001SG2
f 1/1/1 2/2/2 3/3/3
f 1/1/4 3/3/5 4/4/6
f 1/1/7 4/4/8 5/5/9
f 1/1/10 5/5/11 6/6/12
f 1/1/13 6/6/14 7/7/15
f 1/1/16 7/7/17 2/2/18
f 9/9/19 3/3/20 2/2/21 8/8/22
f 10/10/23 4/4/24 3/3/25 9/9/26
f 11/11/27 5/5/28 4/4/29 10/10/30
f 12/12/31 6/6/32 5/5/33 11/11/34
f 13/13/35 7/7/36 6/6/37 12/12/38
f 8/8/39 2/2/40 7/7/41 13/13/42
f 29/43/43 56/75/44 33/47/45 52/70/46
f 37/55/47 29/43/48 52/70/49 60/82/50
f 41/59/51 37/55/52 60/82/53 64/86/54
f 45/63/55 41/59/56 64/86/57 68/90/58
f 73/95/59 45/63/60 68/90/61 48/66/62
f 56/76/63 73/95/64 48/66/65 33/51/66
usemtl Spindle001SG1
f 21/35/67 15/29/68 14/28/69 20/34/70
f 22/36/71 16/30/72 15/29/73 21/35/74
f 23/37/75 17/31/76 16/30/77 22/36/78
f 24/38/79 18/32/80 17/31/81 23/37/82
f 25/39/83 19/33/84 18/32/85 24/38/86
f 20/34/87 14/28/88 19/33/89 25/39/90
f 20/34/91 26/40/92 21/35/93
f 21/35/94 26/40/95 22/36/96
f 22/36/97 26/40/98 23/37/99
f 23/37/100 26/40/101 24/38/102
f 24/38/103 26/40/104 25/39/105
f 25/39/106 26/40/107 20/34/108
usemtl Spindle001SG2
f 9/15/109 8/14/110 31/45/111 30/44/112
f 54/72/113 55/73/114 32/46/115 53/71/116
usemtl Spindle001SG1
f 14/21/117 15/22/118 27/41/119 34/48/120
usemtl Spindle001SG2
f 58/79/121 51/69/122 28/42/123 57/77/124
f 10/16/125 9/15/126 30/44/127 38/56/128
f 62/84/129 54/72/130 53/71/131 61/83/132
usemtl Spindle001SG1
f 15/22/133 16/23/134 35/53/135 27/41/136
usemtl Spindle001SG2
f 51/69/137 59/81/138 36/54/139 28/42/140
f 11/17/141 10/16/142 38/56/143 42/60/144
f 66/88/145 62/84/146 61/83/147 65/87/148
usemtl Spindle001SG1
f 16/23/149 17/24/150 39/57/151 35/53/152
usemtl Spindle001SG2
f 59/81/153 63/85/154 40/58/155 36/54/156
f 12/18/157 11/17/158 42/60/159 46/64/160
f 70/92/161 66/88/162 65/87/163 69/91/164
usemtl Spindle001SG1
f 17/24/165 18/25/166 43/61/167 39/57/168
usemtl Spindle001SG2
f 63/85/169 67/89/170 44/62/171 40/58/172
f 13/19/173 12/18/174 46/64/175 50/68/176
f 74/96/177 70/92/178 69/91/179 49/67/180
usemtl Spindle001SG1
f 18/25/181 19/26/182 47/65/183 43/61/184
usemtl Spindle001SG2
f 67/89/185 71/93/186 72/94/187 44/62/188
f 8/20/189 13/19/190 50/68/191 31/49/192
f 55/74/193 74/96/194 49/67/195 32/50/196
usemtl Spindle001SG1
f 19/26/197 14/27/198 34/52/199 47/65/200
usemtl Spindle001SG2
f 71/93/201 58/80/202 57/78/203 72/94/204
f 54/72/205 30/44/206 31/45/207 55/73/208
f 29/43/209 53/71/210 32/46/211 56/75/212
f 58/79/213 34/48/214 27/41/215 51/69/216
f 33/47/217 57/77/218 28/42/219 52/70/220
f 62/84/221 38/56/222 30/44/223 54/72/224
f 37/55/225 61/83/226 53/71/227 29/43/228
f 51/69/229 27/41/230 35/53/231 59/81/232
f 52/70/233 28/42/234 36/54/235 60/82/236
f 66/88/237 42/60/238 38/56/239 62/84/240
f 41/59/241 65/87/242 61/83/243 37/55/244
f 59/81/245 35/53/246 39/57/247 63/85/248
f 60/82/249 36/54/250 40/58/251 64/86/252
f 70/92/253 46/64/254 42/60/255 66/88/256
f 45/63/257 69/91/258 65/87/259 41/59/260
f 63/85/261 39/57/262 43/61/263 67/89/264
f 64/86/265 40/58/266 44/62/267 68/90/268
f 74/96/269 50/68/270 46/64/271 70/92/272
f 73/95/273 49/67/274 69/91/275 45/63/276
f 67/89/277 43/61/278 47/65/279 71/93/280
f 68/90/281 44/62/282 72/94/283 48/66/284
f 55/74/285 31/49/286 50/68/287 74/96/288
f 56/76/289 32/50/290 49/67/291 73/95/292
f 71/93/293 47/65/294 34/52/295 58/80/296
f 48/66/297 72/94/298 57/78/299 33/51/300
