# Blender v2.76 (sub 0) OBJ File: ''
# www.blender.org
mtllib cil_000058.mtl
o Cylinder
v 0.008804 1.008813 0.991070
v -0.009676 0.991109 -1.008766
v -0.186269 0.989530 0.993043
v -0.204749 0.971826 -1.006793
v -0.373830 0.932560 0.995281
v -0.392310 0.914856 -1.004555
v -0.546669 0.840092 0.997696
v -0.565149 0.822388 -1.002140
v -0.698145 0.715681 1.000198
v -0.716625 0.697977 -0.999639
v -0.822436 0.564106 1.002688
v -0.840916 0.546402 -0.997148
v -0.914767 0.391193 1.005072
v -0.933247 0.373489 -0.994764
v -0.971588 0.203587 1.007258
v -0.990068 0.185884 -0.992578
v -0.990717 0.008498 1.009162
v -1.009197 -0.009206 -0.990675
v -0.971418 -0.186578 1.010710
v -0.989898 -0.204282 -0.989126
v -0.914433 -0.374143 1.011844
v -0.932913 -0.391847 -0.987992
v -0.821952 -0.546991 1.012520
v -0.840432 -0.564695 -0.987317
v -0.697528 -0.698477 1.012711
v -0.716008 -0.716181 -0.987125
v -0.545944 -0.822782 1.012411
v -0.564424 -0.840486 -0.987426
v -0.373024 -0.915127 1.011630
v -0.391504 -0.932831 -0.988206
v -0.185414 -0.971964 1.010400
v -0.203894 -0.989668 -0.989437
v 0.009676 -0.991109 1.008766
v -0.008804 -1.008813 -0.991070
v 0.204750 -0.971826 1.006793
v 0.186270 -0.989530 -0.993043
v 0.392310 -0.914856 1.004555
v 0.373830 -0.932560 -0.995281
v 0.565149 -0.822388 1.002140
v 0.546669 -0.840092 -0.997696
v 0.716625 -0.697976 0.999639
v 0.698145 -0.715680 -1.000198
v 0.840917 -0.546402 0.997148
v 0.822437 -0.564105 -1.002688
v 0.933247 -0.373489 0.994764
v 0.914767 -0.391193 -1.005072
v 0.990068 -0.185883 0.992578
v 0.971588 -0.203587 -1.007258
v 1.009197 0.009207 0.990675
v 0.990717 -0.008497 -1.009162
v 0.989898 0.204283 0.989126
v 0.971418 0.186579 -1.010710
v 0.932913 0.391848 0.987992
v 0.914433 0.374145 -1.011844
v 0.840431 0.564696 0.987317
v 0.821951 0.546992 -1.012520
v 0.716007 0.716182 0.987125
v 0.697527 0.698478 -1.012711
v 0.564423 0.840486 0.987426
v 0.545943 0.822782 -1.012411
v 0.391503 0.932831 0.988206
v 0.373023 0.915127 -1.011630
v 0.203893 0.989668 0.989437
v 0.185413 0.971964 -1.010400
vn -0.098400 0.995100 -0.007900
vn -0.290700 0.956800 -0.005800
vn -0.471800 0.881700 -0.003400
vn -0.634700 0.772800 -0.001000
vn -0.773300 0.634100 0.001500
vn -0.882100 0.471100 0.004000
vn -0.957000 0.289900 0.006300
vn -0.995200 0.097700 0.008300
vn -0.995100 -0.098400 0.010100
vn -0.956800 -0.290600 0.011400
vn -0.881700 -0.471700 0.012300
vn -0.772700 -0.634600 0.012800
vn -0.634000 -0.773200 0.012700
vn -0.471000 -0.882100 0.012200
vn -0.289900 -0.957000 0.011200
vn -0.097600 -0.995200 0.009700
vn 0.098400 -0.995100 0.007900
vn 0.290700 -0.956800 0.005800
vn 0.471800 -0.881700 0.003400
vn 0.634700 -0.772800 0.001000
vn 0.773300 -0.634100 -0.001500
vn 0.882100 -0.471100 -0.004000
vn 0.957000 -0.289900 -0.006300
vn 0.995200 -0.097700 -0.008300
vn 0.995100 0.098400 -0.010100
vn 0.956800 0.290600 -0.011400
vn 0.881700 0.471700 -0.012300
vn 0.772700 0.634600 -0.012800
vn 0.634000 0.773200 -0.012700
vn 0.471000 0.882100 -0.012200
vn -0.009200 -0.008900 -0.999900
vn 0.097600 0.995200 -0.009700
vn 0.289900 0.957000 -0.011200
vn 0.009200 0.008900 0.999900
usemtl None
s off
f 1//1 2//1 4//1 3//1
f 3//2 4//2 6//2 5//2
f 5//3 6//3 8//3 7//3
f 7//4 8//4 10//4 9//4
f 9//5 10//5 12//5 11//5
f 11//6 12//6 14//6 13//6
f 13//7 14//7 16//7 15//7
f 15//8 16//8 18//8 17//8
f 17//9 18//9 20//9 19//9
f 19//10 20//10 22//10 21//10
f 21//11 22//11 24//11 23//11
f 23//12 24//12 26//12 25//12
f 25//13 26//13 28//13 27//13
f 27//14 28//14 30//14 29//14
f 29//15 30//15 32//15 31//15
f 31//16 32//16 34//16 33//16
f 33//17 34//17 36//17 35//17
f 35//18 36//18 38//18 37//18
f 37//19 38//19 40//19 39//19
f 39//20 40//20 42//20 41//20
f 41//21 42//21 44//21 43//21
f 43//22 44//22 46//22 45//22
f 45//23 46//23 48//23 47//23
f 47//24 48//24 50//24 49//24
f 49//25 50//25 52//25 51//25
f 51//26 52//26 54//26 53//26
f 53//27 54//27 56//27 55//27
f 55//28 56//28 58//28 57//28
f 57//29 58//29 60//29 59//29
f 59//30 60//30 62//30 61//30
f 4//31 2//31 64//31 62//31 60//31 58//31 56//31 54//31 52//31 50//31 48//31 46//31 44//31 42//31 40//31 38//31 36//31 34//31 32//31 30//31 28//31 26//31 24//31 22//31 20//31 18//31 16//31 14//31 12//31 10//31 8//31 6//31
f 63//32 64//32 2//32 1//32
f 61//33 62//33 64//33 63//33
f 1//34 3//34 5//34 7//34 9//34 11//34 13//34 15//34 17//34 19//34 21//34 23//34 25//34 27//34 29//34 31//34 33//34 35//34 37//34 39//34 41//34 43//34 45//34 47//34 49//34 51//34 53//34 55//34 57//34 59//34 61//34 63//34
