# Blender v2.76 (sub 0) OBJ File: ''
# www.blender.org
mtllib cil_000019.mtl
o Cylinder
v 0.178209 1.399032 -0.104654
v -1.062093 0.203463 0.911352
v 0.313149 1.378636 0.036076
v -0.927153 0.183067 1.052081
v 0.459887 1.328232 0.155896
v -0.780415 0.132663 1.171901
v 0.612783 1.249758 0.250203
v -0.627519 0.054189 1.266208
v 0.765963 1.146229 0.315373
v -0.474339 -0.049340 1.331378
v 0.913540 1.021623 0.348901
v -0.326763 -0.173946 1.364906
v 1.049841 0.880730 0.349499
v -0.190461 -0.314839 1.365504
v 1.169630 0.728963 0.317143
v -0.070672 -0.466606 1.333148
v 1.268302 0.572155 0.253078
v 0.028000 -0.623414 1.269083
v 1.342067 0.416332 0.159764
v 0.101765 -0.779237 1.175769
v 1.388089 0.267482 0.040789
v 0.147786 -0.928087 1.056794
v 1.404599 0.131325 -0.099276
v 0.164297 -1.064244 0.916729
v 1.390963 0.013094 -0.255048
v 0.150661 -1.182475 0.760957
v 1.347706 -0.082667 -0.420542
v 0.107404 -1.278236 0.595464
v 1.276489 -0.152280 -0.589396
v 0.036187 -1.347848 0.426609
v 1.180049 -0.193067 -0.755122
v -0.060253 -1.388636 0.260883
v 1.062093 -0.203463 -0.911352
v -0.178209 -1.399032 0.104653
v 0.927153 -0.183067 -1.052081
v -0.313149 -1.378636 -0.036076
v 0.780415 -0.132663 -1.171901
v -0.459887 -1.328232 -0.155896
v 0.627518 -0.054189 -1.266209
v -0.612784 -1.249758 -0.250204
v 0.474338 0.049340 -1.331378
v -0.765964 -1.146228 -0.315373
v 0.326762 0.173946 -1.364906
v -0.913540 -1.021623 -0.348901
v 0.190461 0.314840 -1.365504
v -1.049842 -0.880729 -0.349499
v 0.070672 0.466607 -1.333148
v -1.169630 -0.728962 -0.317143
v -0.028001 0.623415 -1.269082
v -1.268303 -0.572154 -0.253077
v -0.101765 0.779238 -1.175769
v -1.342067 -0.416331 -0.159764
v -0.147787 0.928088 -1.056793
v -1.388089 -0.267481 -0.040788
v -0.164297 1.064245 -0.916728
v -1.404599 -0.131324 0.099277
v -0.150661 1.182475 -0.760956
v -1.390963 -0.013093 0.255049
v -0.107403 1.278237 -0.595462
v -1.347705 0.082668 0.420543
v -0.036186 1.347849 -0.426608
v -1.276488 0.152280 0.589397
v 0.060254 1.388636 -0.260882
v -1.180048 0.193067 0.755123
vn -0.376300 0.794900 0.476000
vn -0.234800 0.759300 0.606900
vn -0.084200 0.694600 0.714500
vn 0.069600 0.603100 0.794600
vn 0.220700 0.488500 0.844200
vn 0.363300 0.355100 0.861400
vn 0.492000 0.208100 0.845400
vn 0.601700 0.053000 0.797000
vn 0.688300 -0.104000 0.717900
vn 0.748500 -0.257100 0.611200
vn 0.779900 -0.400300 0.481100
vn 0.781400 -0.528100 0.332400
vn 0.752800 -0.635600 0.171000
vn 0.695300 -0.718700 0.003000
vn 0.611100 -0.774200 -0.165100
vn 0.503300 -0.799900 -0.326800
vn 0.376300 -0.794900 -0.476000
vn 0.234800 -0.759300 -0.606900
vn 0.084200 -0.694600 -0.714500
vn -0.069600 -0.603100 -0.794600
vn -0.220700 -0.488500 -0.844200
vn -0.363300 -0.355100 -0.861400
vn -0.492000 -0.208100 -0.845400
vn -0.601700 -0.053000 -0.797000
vn -0.688300 0.104000 -0.717900
vn -0.748500 0.257100 -0.611200
vn -0.779900 0.400300 -0.481100
vn -0.781400 0.528100 -0.332400
vn -0.752800 0.635600 -0.171000
vn -0.695300 0.718700 -0.003000
vn -0.620200 -0.597800 0.508000
vn -0.503300 0.799900 0.326800
vn -0.611100 0.774200 0.165100
vn 0.620200 0.597800 -0.508000
usemtl None
s off
f 1//1 2//1 4//1 3//1
f 3//2 4//2 6//2 5//2
f 5//3 6//3 8//3 7//3
f 7//4 8//4 10//4 9//4
f 9//5 10//5 12//5 11//5
f 11//6 12//6 14//6 13//6
f 13//7 14//7 16//7 15//7
f 15//8 16//8 18//8 17//8
f 17//9 18//9 20//9 19//9
f 19//10 20//10 22//10 21//10
f 21//11 22//11 24//11 23//11
f 23//12 24//12 26//12 25//12
f 25//13 26//13 28//13 27//13
f 27//14 28//14 30//14 29//14
f 29//15 30//15 32//15 31//15
f 31//16 32//16 34//16 33//16
f 33//17 34//17 36//17 35//17
f 35//18 36//18 38//18 37//18
f 37//19 38//19 40//19 39//19
f 39//20 40//20 42//20 41//20
f 41//21 42//21 44//21 43//21
f 43//22 44//22 46//22 45//22
f 45//23 46//23 48//23 47//23
f 47//24 48//24 50//24 49//24
f 49//25 50//25 52//25 51//25
f 51//26 52//26 54//26 53//26
f 53//27 54//27 56//27 55//27
f 55//28 56//28 58//28 57//28
f 57//29 58//29 60//29 59//29
f 59//30 60//30 62//30 61//30
f 4//31 2//31 64//31 62//31 60//31 58//31 56//31 54//31 52//31 50//31 48//31 46//31 44//31 42//31 40//31 38//31 36//31 34//31 32//31 30//31 28//31 26//31 24//31 22//31 20//31 18//31 16//31 14//31 12//31 10//31 8//31 6//31
f 63//32 64//32 2//32 1//32
f 61//33 62//33 64//33 63//33
f 1//34 3//34 5//34 7//34 9//34 11//34 13//34 15//34 17//34 19//34 21//34 23//34 25//34 27//34 29//34 31//34 33//34 35//34 37//34 39//34 41//34 43//34 45//34 47//34 49//34 51//34 53//34 55//34 57//34 59//34 61//34 63//34
