# Blender v2.76 (sub 0) OBJ File: ''
# www.blender.org
mtllib cil_000053.mtl
o Cylinder
v 0.099818 1.102673 0.879858
v -0.134060 0.885480 -1.094510
v -0.093576 1.082723 0.904961
v -0.327454 0.865530 -1.069407
v -0.278881 1.025338 0.933224
v -0.512759 0.808145 -1.041143
v -0.448973 0.932723 0.963561
v -0.682851 0.715531 -1.010807
v -0.597319 0.808438 0.994806
v -0.831197 0.591245 -0.979562
v -0.718215 0.657257 1.025758
v -0.952093 0.440065 -0.948610
v -0.807018 0.484993 1.055227
v -1.040896 0.267800 -0.919141
v -0.860313 0.298263 1.082082
v -1.094191 0.081071 -0.892286
v -0.876052 0.104245 1.105290
v -1.109931 -0.112948 -0.869078
v -0.853632 -0.089606 1.123959
v -1.087510 -0.306799 -0.850409
v -0.793913 -0.275840 1.137371
v -1.027792 -0.493033 -0.836997
v -0.699191 -0.447301 1.145012
v -0.933069 -0.664494 -0.829355
v -0.573105 -0.597399 1.146588
v -0.806983 -0.814591 -0.827779
v -0.420502 -0.720366 1.142038
v -0.654380 -0.937558 -0.832329
v -0.247244 -0.811476 1.131538
v -0.481122 -1.028668 -0.842830
v -0.059991 -0.867228 1.115489
v -0.293869 -1.084421 -0.858879
v 0.134061 -0.885480 1.094510
v -0.099817 -1.102673 -0.879858
v 0.327455 -0.865530 1.069407
v 0.093577 -1.082723 -0.904961
v 0.512759 -0.808145 1.041143
v 0.278881 -1.025338 -0.933224
v 0.682852 -0.715530 1.010806
v 0.448974 -0.932723 -0.963561
v 0.831197 -0.591245 0.979562
v 0.597319 -0.808437 -0.994806
v 0.952094 -0.440064 0.948610
v 0.718216 -0.657257 -1.025758
v 1.040896 -0.267799 0.919140
v 0.807018 -0.484992 -1.055227
v 1.094191 -0.081070 0.892286
v 0.860313 -0.298262 -1.082082
v 1.109931 0.112949 0.869078
v 0.876052 -0.104244 -1.105290
v 1.087510 0.306800 0.850409
v 0.853632 0.089607 -1.123959
v 1.027791 0.493034 0.836996
v 0.793913 0.275841 -1.137371
v 0.933068 0.664495 0.829355
v 0.699190 0.447302 -1.145012
v 0.806982 0.814592 0.827779
v 0.573104 0.597400 -1.146588
v 0.654379 0.937559 0.832329
v 0.420501 0.720366 -1.142038
v 0.481121 1.028669 0.842830
v 0.247243 0.811476 -1.131537
v 0.293868 1.084421 0.858879
v 0.059990 0.867228 -1.115489
vn -0.114400 0.988900 -0.095200
vn -0.304600 0.950000 -0.068400
vn -0.483200 0.874600 -0.039000
vn -0.643200 0.765700 -0.008000
vn -0.778500 0.627300 0.023200
vn -0.883800 0.464800 0.053600
vn -0.955200 0.284400 0.081900
vn -0.989900 0.093100 0.107000
vn -0.986500 -0.101800 0.128100
vn -0.945300 -0.292700 0.144200
vn -0.867700 -0.472400 0.154800
vn -0.756700 -0.634000 0.159400
vn -0.616700 -0.771200 0.157900
vn -0.453000 -0.878700 0.150300
vn -0.271900 -0.952500 0.137000
vn -0.080300 -0.989700 0.118400
vn 0.114400 -0.988900 0.095200
vn 0.304600 -0.950000 0.068400
vn 0.483200 -0.874600 0.039000
vn 0.643200 -0.765700 0.008000
vn 0.778500 -0.627300 -0.023200
vn 0.883800 -0.464800 -0.053600
vn 0.955200 -0.284400 -0.081900
vn 0.989900 -0.093100 -0.107000
vn 0.986500 0.101800 -0.128100
vn 0.945300 0.292700 -0.144200
vn 0.867700 0.472400 -0.154800
vn 0.756700 0.634000 -0.159400
vn 0.616700 0.771200 -0.157900
vn 0.453000 0.878700 -0.150300
vn -0.116900 -0.108600 -0.987200
vn 0.080300 0.989700 -0.118400
vn 0.271900 0.952500 -0.137000
vn 0.116900 0.108600 0.987200
usemtl None
s off
f 1//1 2//1 4//1 3//1
f 3//2 4//2 6//2 5//2
f 5//3 6//3 8//3 7//3
f 7//4 8//4 10//4 9//4
f 9//5 10//5 12//5 11//5
f 11//6 12//6 14//6 13//6
f 13//7 14//7 16//7 15//7
f 15//8 16//8 18//8 17//8
f 17//9 18//9 20//9 19//9
f 19//10 20//10 22//10 21//10
f 21//11 22//11 24//11 23//11
f 23//12 24//12 26//12 25//12
f 25//13 26//13 28//13 27//13
f 27//14 28//14 30//14 29//14
f 29//15 30//15 32//15 31//15
f 31//16 32//16 34//16 33//16
f 33//17 34//17 36//17 35//17
f 35//18 36//18 38//18 37//18
f 37//19 38//19 40//19 39//19
f 39//20 40//20 42//20 41//20
f 41//21 42//21 44//21 43//21
f 43//22 44//22 46//22 45//22
f 45//23 46//23 48//23 47//23
f 47//24 48//24 50//24 49//24
f 49//25 50//25 52//25 51//25
f 51//26 52//26 54//26 53//26
f 53//27 54//27 56//27 55//27
f 55//28 56//28 58//28 57//28
f 57//29 58//29 60//29 59//29
f 59//30 60//30 62//30 61//30
f 4//31 2//31 64//31 62//31 60//31 58//31 56//31 54//31 52//31 50//31 48//31 46//31 44//31 42//31 40//31 38//31 36//31 34//31 32//31 30//31 28//31 26//31 24//31 22//31 20//31 18//31 16//31 14//31 12//31 10//31 8//31 6//31
f 63//32 64//32 2//32 1//32
f 61//33 62//33 64//33 63//33
f 1//34 3//34 5//34 7//34 9//34 11//34 13//34 15//34 17//34 19//34 21//34 23//34 25//34 27//34 29//34 31//34 33//34 35//34 37//34 39//34 41//34 43//34 45//34 47//34 49//34 51//34 53//34 55//34 57//34 59//34 61//34 63//34
