# Blender v2.76 (sub 0) OBJ File: ''
# www.blender.org
mtllib cil_000026.mtl
o Cylinder
v -0.101456 1.408783 0.070970
v -1.380847 -0.113722 0.283422
v -0.047480 1.389587 0.258447
v -1.326871 -0.132918 0.470899
v 0.032904 1.346244 0.431909
v -1.246487 -0.176261 0.644361
v 0.136607 1.280420 0.584691
v -1.142785 -0.242085 0.797143
v 0.259643 1.194644 0.710922
v -1.019749 -0.327861 0.923374
v 0.397284 1.092214 0.805750
v -0.882108 -0.430291 1.018202
v 0.544241 0.977065 0.865532
v -0.735151 -0.545440 1.077984
v 0.694866 0.853623 0.887969
v -0.584526 -0.668882 1.100421
v 0.843371 0.726631 0.872200
v -0.436021 -0.795874 1.084652
v 0.984049 0.600969 0.818831
v -0.295343 -0.921536 1.031283
v 1.111494 0.481467 0.729912
v -0.167898 -1.041038 0.942364
v 1.220807 0.372717 0.608861
v -0.058584 -1.149788 0.821313
v 1.307789 0.278898 0.460329
v 0.028398 -1.243607 0.672781
v 1.369097 0.203615 0.290025
v 0.089705 -1.318889 0.502477
v 1.402374 0.149763 0.104494
v 0.122982 -1.372742 0.316946
v 1.406341 0.119410 -0.089136
v 0.126950 -1.403095 0.123316
v 1.380847 0.113722 -0.283422
v 0.101456 -1.408783 -0.070970
v 1.326871 0.132918 -0.470899
v 0.047479 -1.389587 -0.258447
v 1.246487 0.176262 -0.644361
v -0.032904 -1.346243 -0.431910
v 1.142785 0.242086 -0.797144
v -0.136607 -1.280419 -0.584692
v 1.019748 0.327861 -0.923375
v -0.259643 -1.194644 -0.710923
v 0.882107 0.430291 -1.018203
v -0.397284 -1.092214 -0.805751
v 0.735150 0.545440 -1.077984
v -0.544242 -0.977065 -0.865532
v 0.584525 0.668883 -1.100421
v -0.694867 -0.853622 -0.887969
v 0.436020 0.795875 -1.084652
v -0.843372 -0.726630 -0.872200
v 0.295342 0.921537 -1.031282
v -0.984050 -0.600968 -0.818830
v 0.167897 1.041039 -0.942363
v -1.111494 -0.481466 -0.729911
v 0.058584 1.149789 -0.821312
v -1.220808 -0.372716 -0.608860
v -0.028398 1.243608 -0.672780
v -1.307790 -0.278897 -0.460328
v -0.089705 1.318890 -0.502476
v -1.369097 -0.203615 -0.290024
v -0.122982 1.372742 -0.316944
v -1.402374 -0.149763 -0.104492
v -0.126950 1.403095 -0.123315
v -1.406341 -0.119409 0.089137
vn -0.717600 0.641000 0.272200
vn -0.650100 0.609600 0.453600
vn -0.557600 0.554800 0.617500
vn -0.443700 0.478600 0.757700
vn -0.312700 0.384000 0.868700
vn -0.169800 0.274700 0.946400
vn -0.020200 0.154800 0.987700
vn 0.130000 0.029000 0.991100
vn 0.275300 -0.097900 0.956300
vn 0.410100 -0.221100 0.884900
vn 0.529000 -0.335800 0.779400
vn 0.627600 -0.437600 0.643900
vn 0.702100 -0.522500 0.483700
vn 0.749600 -0.587400 0.305000
vn 0.768400 -0.629700 0.114500
vn 0.757500 -0.647800 -0.080400
vn 0.717600 -0.641000 -0.272200
vn 0.650100 -0.609600 -0.453600
vn 0.557600 -0.554800 -0.617500
vn 0.443700 -0.478600 -0.757700
vn 0.312700 -0.384000 -0.868700
vn 0.169800 -0.274700 -0.946400
vn 0.020200 -0.154800 -0.987700
vn -0.130100 -0.029000 -0.991100
vn -0.275300 0.097900 -0.956300
vn -0.410100 0.221100 -0.884900
vn -0.529000 0.335800 -0.779400
vn -0.627600 0.437600 -0.643900
vn -0.702100 0.522500 -0.483700
vn -0.749600 0.587400 -0.305000
vn -0.639700 -0.761300 0.106200
vn -0.757500 0.647800 0.080400
vn -0.768400 0.629700 -0.114500
vn 0.639700 0.761300 -0.106200
usemtl None
s off
f 1//1 2//1 4//1 3//1
f 3//2 4//2 6//2 5//2
f 5//3 6//3 8//3 7//3
f 7//4 8//4 10//4 9//4
f 9//5 10//5 12//5 11//5
f 11//6 12//6 14//6 13//6
f 13//7 14//7 16//7 15//7
f 15//8 16//8 18//8 17//8
f 17//9 18//9 20//9 19//9
f 19//10 20//10 22//10 21//10
f 21//11 22//11 24//11 23//11
f 23//12 24//12 26//12 25//12
f 25//13 26//13 28//13 27//13
f 27//14 28//14 30//14 29//14
f 29//15 30//15 32//15 31//15
f 31//16 32//16 34//16 33//16
f 33//17 34//17 36//17 35//17
f 35//18 36//18 38//18 37//18
f 37//19 38//19 40//19 39//19
f 39//20 40//20 42//20 41//20
f 41//21 42//21 44//21 43//21
f 43//22 44//22 46//22 45//22
f 45//23 46//23 48//23 47//23
f 47//24 48//24 50//24 49//24
f 49//25 50//25 52//25 51//25
f 51//26 52//26 54//26 53//26
f 53//27 54//27 56//27 55//27
f 55//28 56//28 58//28 57//28
f 57//29 58//29 60//29 59//29
f 59//30 60//30 62//30 61//30
f 4//31 2//31 64//31 62//31 60//31 58//31 56//31 54//31 52//31 50//31 48//31 46//31 44//31 42//31 40//31 38//31 36//31 34//31 32//31 30//31 28//31 26//31 24//31 22//31 20//31 18//31 16//31 14//31 12//31 10//31 8//31 6//31
f 63//32 64//32 2//32 1//32
f 61//33 62//33 64//33 63//33
f 1//34 3//34 5//34 7//34 9//34 11//34 13//34 15//34 17//34 19//34 21//34 23//34 25//34 27//34 29//34 31//34 33//34 35//34 37//34 39//34 41//34 43//34 45//34 47//34 49//34 51//34 53//34 55//34 57//34 59//34 61//34 63//34
