# Blender v2.76 (sub 0) OBJ File: ''
# www.blender.org
mtllib cil_000022.mtl
o Cylinder
v 0.051659 1.413106 0.021484
v -1.252546 0.035822 0.655626
v 0.153494 1.393257 0.187813
v -1.150711 0.015973 0.821954
v 0.274490 1.346330 0.334739
v -1.029715 -0.030955 0.968880
v 0.409998 1.274129 0.456616
v -0.894208 -0.103156 1.090757
v 0.554809 1.179427 0.548761
v -0.749396 -0.197858 1.182902
v 0.703360 1.065865 0.607632
v -0.600846 -0.311420 1.241774
v 0.849940 0.937806 0.630968
v -0.454265 -0.439478 1.265110
v 0.988918 0.800173 0.617871
v -0.315287 -0.577112 1.252013
v 1.114952 0.658253 0.568845
v -0.189253 -0.719032 1.202986
v 1.223199 0.517501 0.485774
v -0.081006 -0.859784 1.119915
v 1.309500 0.383326 0.371849
v 0.005294 -0.993959 1.005991
v 1.370537 0.260884 0.231450
v 0.066331 -1.116401 0.865592
v 1.403964 0.154880 0.069972
v 0.099759 -1.222404 0.704113
v 1.408499 0.069389 -0.106380
v 0.104293 -1.307896 0.527761
v 1.383965 0.007695 -0.290830
v 0.079760 -1.369590 0.343312
v 1.331306 -0.027830 -0.476287
v 0.027101 -1.405115 0.157854
v 1.252546 -0.035822 -0.655626
v -0.051659 -1.413106 -0.021485
v 1.150711 -0.015972 -0.821954
v -0.153494 -1.393257 -0.187813
v 1.029715 0.030955 -0.968880
v -0.274490 -1.346330 -0.334739
v 0.894207 0.103156 -1.090758
v -0.409998 -1.274128 -0.456616
v 0.749396 0.197858 -1.182902
v -0.554810 -1.179427 -0.548761
v 0.600845 0.311420 -1.241774
v -0.703360 -1.065865 -0.607633
v 0.454265 0.439479 -1.265110
v -0.849941 -0.937806 -0.630968
v 0.315287 0.577113 -1.252012
v -0.988919 -0.800172 -0.617871
v 0.189252 0.719033 -1.202986
v -1.114953 -0.658252 -0.568845
v 0.081005 0.859785 -1.119915
v -1.223200 -0.517500 -0.485773
v -0.005295 0.993960 -1.005990
v -1.309500 -0.383325 -0.371849
v -0.066332 1.116402 -0.865591
v -1.370537 -0.260883 -0.231449
v -0.099759 1.222405 -0.704112
v -1.403965 -0.154880 -0.069971
v -0.104293 1.307896 -0.527760
v -1.408499 -0.069389 0.106382
v -0.079759 1.369590 -0.343311
v -1.383965 -0.007695 0.290831
v -0.027100 1.405115 -0.157853
v -1.331306 0.027830 0.476288
vn -0.552200 0.718000 0.423800
vn -0.440200 0.684400 0.581100
vn -0.311400 0.624600 0.716200
vn -0.170500 0.540700 0.823700
vn -0.023100 0.436100 0.899600
vn 0.125100 0.314700 0.940900
vn 0.268600 0.181200 0.946000
vn 0.401800 0.040800 0.914800
vn 0.519500 -0.101300 0.848500
vn 0.617200 -0.239400 0.749500
vn 0.691200 -0.368300 0.621700
vn 0.738700 -0.483100 0.470000
vn 0.757800 -0.579300 0.300300
vn 0.747700 -0.653200 0.119000
vn 0.708900 -0.702100 -0.066800
vn 0.642900 -0.724000 -0.250100
vn 0.552200 -0.718000 -0.423800
vn 0.440200 -0.684400 -0.581100
vn 0.311400 -0.624600 -0.716200
vn 0.170500 -0.540700 -0.823700
vn 0.023100 -0.436100 -0.899600
vn -0.125200 -0.314700 -0.940900
vn -0.268600 -0.181200 -0.946000
vn -0.401800 -0.040800 -0.914800
vn -0.519500 0.101300 -0.848500
vn -0.617200 0.239400 -0.749500
vn -0.691200 0.368300 -0.621700
vn -0.738700 0.483100 -0.470000
vn -0.757800 0.579300 -0.300300
vn -0.747700 0.653200 -0.119000
vn -0.652100 -0.688600 0.317100
vn -0.642900 0.724000 0.250100
vn -0.708900 0.702100 0.066800
vn 0.652100 0.688600 -0.317100
usemtl None
s off
f 1//1 2//1 4//1 3//1
f 3//2 4//2 6//2 5//2
f 5//3 6//3 8//3 7//3
f 7//4 8//4 10//4 9//4
f 9//5 10//5 12//5 11//5
f 11//6 12//6 14//6 13//6
f 13//7 14//7 16//7 15//7
f 15//8 16//8 18//8 17//8
f 17//9 18//9 20//9 19//9
f 19//10 20//10 22//10 21//10
f 21//11 22//11 24//11 23//11
f 23//12 24//12 26//12 25//12
f 25//13 26//13 28//13 27//13
f 27//14 28//14 30//14 29//14
f 29//15 30//15 32//15 31//15
f 31//16 32//16 34//16 33//16
f 33//17 34//17 36//17 35//17
f 35//18 36//18 38//18 37//18
f 37//19 38//19 40//19 39//19
f 39//20 40//20 42//20 41//20
f 41//21 42//21 44//21 43//21
f 43//22 44//22 46//22 45//22
f 45//23 46//23 48//23 47//23
f 47//24 48//24 50//24 49//24
f 49//25 50//25 52//25 51//25
f 51//26 52//26 54//26 53//26
f 53//27 54//27 56//27 55//27
f 55//28 56//28 58//28 57//28
f 57//29 58//29 60//29 59//29
f 59//30 60//30 62//30 61//30
f 4//31 2//31 64//31 62//31 60//31 58//31 56//31 54//31 52//31 50//31 48//31 46//31 44//31 42//31 40//31 38//31 36//31 34//31 32//31 30//31 28//31 26//31 24//31 22//31 20//31 18//31 16//31 14//31 12//31 10//31 8//31 6//31
f 63//32 64//32 2//32 1//32
f 61//33 62//33 64//33 63//33
f 1//34 3//34 5//34 7//34 9//34 11//34 13//34 15//34 17//34 19//34 21//34 23//34 25//34 27//34 29//34 31//34 33//34 35//34 37//34 39//34 41//34 43//34 45//34 47//34 49//34 51//34 53//34 55//34 57//34 59//34 61//34 63//34
