# Blender v2.76 (sub 0) OBJ File: ''
# www.blender.org
mtllib cil_000040.mtl
o Cylinder
v 0.088166 1.406393 0.119524
v -1.102354 0.143402 -0.874215
v -0.023693 1.386169 0.279236
v -1.214213 0.123179 -0.714503
v -0.111766 1.336944 0.447312
v -1.302286 0.073954 -0.546427
v -0.172668 1.260609 0.617293
v -1.363188 -0.002381 -0.376447
v -0.204060 1.160098 0.782645
v -1.394580 -0.102893 -0.211094
v -0.204733 1.039272 0.937015
v -1.395254 -0.223718 -0.056724
v -0.174664 0.902776 1.074471
v -1.365184 -0.360214 0.080732
v -0.115007 0.755855 1.189730
v -1.305527 -0.507136 0.195991
v -0.028055 0.604154 1.278362
v -1.218575 -0.658836 0.284623
v 0.082851 0.453505 1.336963
v -1.107669 -0.809486 0.343224
v 0.213449 0.309695 1.363279
v -0.977072 -0.953295 0.369540
v 0.358719 0.178252 1.356299
v -0.831801 -1.084738 0.362560
v 0.513079 0.064227 1.316292
v -0.677441 -1.198763 0.322553
v 0.670598 -0.027998 1.244795
v -0.519922 -1.290989 0.251056
v 0.825222 -0.094880 1.144555
v -0.365299 -1.357870 0.150816
v 0.971008 -0.133847 1.019426
v -0.219512 -1.396837 0.025687
v 1.102354 -0.143402 0.874215
v -0.088166 -1.406393 -0.119524
v 1.214213 -0.123179 0.714502
v 0.023693 -1.386169 -0.279237
v 1.302286 -0.073954 0.546426
v 0.111766 -1.336944 -0.447313
v 1.363189 0.002381 0.376446
v 0.172668 -1.260609 -0.617293
v 1.394580 0.102893 0.211094
v 0.204060 -1.160097 -0.782646
v 1.395254 0.223719 0.056723
v 0.204733 -1.039272 -0.937016
v 1.365184 0.360215 -0.080732
v 0.174664 -0.902775 -1.074472
v 1.305527 0.507136 -0.195991
v 0.115007 -0.755854 -1.189730
v 1.218574 0.658837 -0.284624
v 0.028054 -0.604154 -1.278363
v 1.107668 0.809487 -0.343224
v -0.082852 -0.453504 -1.336963
v 0.977071 0.953296 -0.369540
v -0.213449 -0.309694 -1.363279
v 0.831800 1.084739 -0.362560
v -0.358720 -0.178251 -1.356299
v 0.677440 1.198764 -0.322552
v -0.513080 -0.064226 -1.316292
v 0.519921 1.290989 -0.251055
v -0.670599 0.027999 -1.244794
v 0.365298 1.357871 -0.150816
v -0.825222 0.094880 -1.144555
v 0.219511 1.396837 -0.025686
v -0.971009 0.133847 -1.019425
vn -0.565700 0.768500 -0.298900
vn -0.666200 0.733600 -0.134200
vn -0.741000 0.670500 0.035600
vn -0.787400 0.581700 0.204100
vn -0.803500 0.470500 0.364700
vn -0.788800 0.341200 0.511300
vn -0.743700 0.198800 0.638300
vn -0.670000 0.048700 0.740700
vn -0.570600 -0.103200 0.814700
vn -0.449300 -0.251100 0.857400
vn -0.310700 -0.389400 0.867100
vn -0.160100 -0.512700 0.843500
vn -0.003400 -0.616300 0.787500
vn 0.153400 -0.696300 0.701200
vn 0.304300 -0.749500 0.588000
vn 0.443600 -0.773800 0.452100
vn 0.565700 -0.768500 0.298900
vn 0.666200 -0.733600 0.134200
vn 0.741000 -0.670500 -0.035600
vn 0.787400 -0.581700 -0.204100
vn 0.803500 -0.470500 -0.364700
vn 0.788800 -0.341200 -0.511300
vn 0.743700 -0.198800 -0.638300
vn 0.670000 -0.048700 -0.740700
vn 0.570600 0.103200 -0.814700
vn 0.449300 0.251100 -0.857400
vn 0.310700 0.389400 -0.867100
vn 0.160100 0.512700 -0.843500
vn 0.003400 0.616300 -0.787500
vn -0.153400 0.696300 -0.701200
vn -0.595300 -0.631500 -0.496900
vn -0.443600 0.773800 -0.452100
vn -0.304300 0.749500 -0.588000
vn 0.595300 0.631500 0.496900
usemtl None
s off
f 1//1 2//1 4//1 3//1
f 3//2 4//2 6//2 5//2
f 5//3 6//3 8//3 7//3
f 7//4 8//4 10//4 9//4
f 9//5 10//5 12//5 11//5
f 11//6 12//6 14//6 13//6
f 13//7 14//7 16//7 15//7
f 15//8 16//8 18//8 17//8
f 17//9 18//9 20//9 19//9
f 19//10 20//10 22//10 21//10
f 21//11 22//11 24//11 23//11
f 23//12 24//12 26//12 25//12
f 25//13 26//13 28//13 27//13
f 27//14 28//14 30//14 29//14
f 29//15 30//15 32//15 31//15
f 31//16 32//16 34//16 33//16
f 33//17 34//17 36//17 35//17
f 35//18 36//18 38//18 37//18
f 37//19 38//19 40//19 39//19
f 39//20 40//20 42//20 41//20
f 41//21 42//21 44//21 43//21
f 43//22 44//22 46//22 45//22
f 45//23 46//23 48//23 47//23
f 47//24 48//24 50//24 49//24
f 49//25 50//25 52//25 51//25
f 51//26 52//26 54//26 53//26
f 53//27 54//27 56//27 55//27
f 55//28 56//28 58//28 57//28
f 57//29 58//29 60//29 59//29
f 59//30 60//30 62//30 61//30
f 4//31 2//31 64//31 62//31 60//31 58//31 56//31 54//31 52//31 50//31 48//31 46//31 44//31 42//31 40//31 38//31 36//31 34//31 32//31 30//31 28//31 26//31 24//31 22//31 20//31 18//31 16//31 14//31 12//31 10//31 8//31 6//31
f 63//32 64//32 2//32 1//32
f 61//33 62//33 64//33 63//33
f 1//34 3//34 5//34 7//34 9//34 11//34 13//34 15//34 17//34 19//34 21//34 23//34 25//34 27//34 29//34 31//34 33//34 35//34 37//34 39//34 41//34 43//34 45//34 47//34 49//34 51//34 53//34 55//34 57//34 59//34 61//34 63//34
