# Blender v2.76 (sub 0) OBJ File: ''
# www.blender.org
mtllib cil_000055.mtl
o Cylinder
v 0.053732 1.054109 0.941258
v -0.064793 0.942785 -1.052121
v -0.140906 1.034490 0.953927
v -0.259431 0.923166 -1.039452
v -0.327852 0.977255 0.968239
v -0.446377 0.865930 -1.025140
v -0.499921 0.884603 0.983644
v -0.618446 0.773279 -1.009735
v -0.650501 0.760096 0.999551
v -0.769026 0.648772 -0.993828
v -0.773806 0.608518 1.015348
v -0.892330 0.497194 -0.978031
v -0.865096 0.435694 1.030427
v -0.983620 0.324370 -0.962951
v -0.920863 0.248265 1.044211
v -1.039388 0.136941 -0.949168
v -0.938965 0.053435 1.056168
v -1.057490 -0.057889 -0.937211
v -0.918705 -0.141309 1.065839
v -1.037230 -0.252634 -0.927540
v -0.860863 -0.328484 1.072853
v -0.979388 -0.439809 -0.920526
v -0.767661 -0.500897 1.076940
v -0.886185 -0.612221 -0.916439
v -0.642680 -0.651921 1.077943
v -0.761205 -0.763246 -0.915436
v -0.490725 -0.775754 1.075823
v -0.609249 -0.887078 -0.917555
v -0.317633 -0.867635 1.070663
v -0.436158 -0.978959 -0.922716
v -0.130058 -0.924035 1.062659
v -0.248583 -1.035359 -0.930719
v 0.064793 -0.942785 1.052121
v -0.053732 -1.054109 -0.941258
v 0.259431 -0.923166 1.039452
v 0.140907 -1.034490 -0.953927
v 0.446377 -0.865930 1.025140
v 0.327852 -0.977255 -0.968239
v 0.618446 -0.773279 1.009735
v 0.499922 -0.884603 -0.983644
v 0.769027 -0.648771 0.993828
v 0.650502 -0.760096 -0.999551
v 0.892331 -0.497193 0.978031
v 0.773806 -0.608517 -1.015348
v 0.983621 -0.324369 0.962951
v 0.865096 -0.435693 -1.030427
v 1.039388 -0.136940 0.949168
v 0.920863 -0.248264 -1.044211
v 1.057490 0.057890 0.937211
v 0.938965 -0.053434 -1.056168
v 1.037230 0.252635 0.927540
v 0.918705 0.141311 -1.065839
v 0.979387 0.439810 0.920526
v 0.860862 0.328486 -1.072853
v 0.886185 0.612222 0.916439
v 0.767660 0.500898 -1.076940
v 0.761204 0.763247 0.915436
v 0.642679 0.651922 -1.077943
v 0.609248 0.887079 0.917556
v 0.490723 0.775754 -1.075823
v 0.436157 0.978960 0.922716
v 0.317632 0.867636 -1.070663
v 0.248581 1.035359 0.930719
v 0.130056 0.924035 -1.062659
vn -0.103300 0.993400 -0.049300
vn -0.295100 0.954800 -0.035800
vn -0.475400 0.879500 -0.020800
vn -0.637500 0.770400 -0.005100
vn -0.775100 0.631700 0.010800
vn -0.883000 0.468700 0.026300
vn -0.956800 0.287700 0.040800
vn -0.994000 0.095600 0.053800
vn -0.992900 -0.100100 0.064600
vn -0.953600 -0.292000 0.073000
vn -0.877800 -0.472600 0.078600
vn -0.768100 -0.635100 0.081100
vn -0.629000 -0.773200 0.080600
vn -0.465700 -0.881600 0.076900
vn -0.284500 -0.956100 0.070300
vn -0.092300 -0.993900 0.061000
vn 0.103300 -0.993400 0.049300
vn 0.295100 -0.954800 0.035800
vn 0.475400 -0.879500 0.020800
vn 0.637500 -0.770400 0.005100
vn 0.775100 -0.631700 -0.010800
vn 0.883000 -0.468700 -0.026300
vn 0.956800 -0.287700 -0.040800
vn 0.994000 -0.095600 -0.053800
vn 0.992900 0.100100 -0.064600
vn 0.953600 0.292000 -0.073000
vn 0.877800 0.472600 -0.078600
vn 0.768100 0.635100 -0.081100
vn 0.629000 0.773200 -0.080600
vn 0.465700 0.881600 -0.076900
vn -0.059300 -0.055700 -0.996700
vn 0.092300 0.993900 -0.061000
vn 0.284500 0.956100 -0.070300
vn 0.059300 0.055700 0.996700
usemtl None
s off
f 1//1 2//1 4//1 3//1
f 3//2 4//2 6//2 5//2
f 5//3 6//3 8//3 7//3
f 7//4 8//4 10//4 9//4
f 9//5 10//5 12//5 11//5
f 11//6 12//6 14//6 13//6
f 13//7 14//7 16//7 15//7
f 15//8 16//8 18//8 17//8
f 17//9 18//9 20//9 19//9
f 19//10 20//10 22//10 21//10
f 21//11 22//11 24//11 23//11
f 23//12 24//12 26//12 25//12
f 25//13 26//13 28//13 27//13
f 27//14 28//14 30//14 29//14
f 29//15 30//15 32//15 31//15
f 31//16 32//16 34//16 33//16
f 33//17 34//17 36//17 35//17
f 35//18 36//18 38//18 37//18
f 37//19 38//19 40//19 39//19
f 39//20 40//20 42//20 41//20
f 41//21 42//21 44//21 43//21
f 43//22 44//22 46//22 45//22
f 45//23 46//23 48//23 47//23
f 47//24 48//24 50//24 49//24
f 49//25 50//25 52//25 51//25
f 51//26 52//26 54//26 53//26
f 53//27 54//27 56//27 55//27
f 55//28 56//28 58//28 57//28
f 57//29 58//29 60//29 59//29
f 59//30 60//30 62//30 61//30
f 4//31 2//31 64//31 62//31 60//31 58//31 56//31 54//31 52//31 50//31 48//31 46//31 44//31 42//31 40//31 38//31 36//31 34//31 32//31 30//31 28//31 26//31 24//31 22//31 20//31 18//31 16//31 14//31 12//31 10//31 8//31 6//31
f 63//32 64//32 2//32 1//32
f 61//33 62//33 64//33 63//33
f 1//34 3//34 5//34 7//34 9//34 11//34 13//34 15//34 17//34 19//34 21//34 23//34 25//34 27//34 29//34 31//34 33//34 35//34 37//34 39//34 41//34 43//34 45//34 47//34 49//34 51//34 53//34 55//34 57//34 59//34 61//34 63//34
