# Blender v2.76 (sub 0) OBJ File: ''
# www.blender.org
mtllib cil_000013.mtl
o Cylinder
v 0.265602 1.283969 -0.529981
v -0.532355 0.592474 1.168577
v 0.445152 1.263187 -0.454092
v -0.352805 0.571692 1.244466
v 0.622928 1.207148 -0.393389
v -0.175029 0.515653 1.305169
v 0.792098 1.118006 -0.350206
v -0.005860 0.426511 1.348352
v 0.946160 0.999187 -0.326202
v 0.148203 0.307692 1.372356
v 1.079194 0.855256 -0.322299
v 0.281237 0.163761 1.376259
v 1.186088 0.691745 -0.338649
v 0.388131 0.000250 1.359910
v 1.262734 0.514938 -0.374621
v 0.464777 -0.176557 1.323937
v 1.306187 0.331629 -0.428834
v 0.508230 -0.359866 1.269724
v 1.314775 0.148862 -0.499205
v 0.516818 -0.542633 1.199353
v 1.288171 -0.026338 -0.583029
v 0.490214 -0.717833 1.115530
v 1.227395 -0.187240 -0.677084
v 0.429438 -0.878734 1.021474
v 1.134783 -0.327659 -0.777757
v 0.336826 -1.019153 0.920801
v 1.013895 -0.442199 -0.881179
v 0.215938 -1.133694 0.817379
v 0.869376 -0.526459 -0.983375
v 0.071419 -1.217954 0.715183
v 0.706780 -0.577201 -1.080417
v -0.091177 -1.268696 0.618141
v 0.532355 -0.592474 -1.168577
v -0.265602 -1.283969 0.529981
v 0.352805 -0.571692 -1.244467
v -0.445152 -1.263187 0.454092
v 0.175029 -0.515653 -1.305169
v -0.622928 -1.207148 0.393389
v 0.005859 -0.426511 -1.348352
v -0.792098 -1.118006 0.350206
v -0.148203 -0.307692 -1.372356
v -0.946160 -0.999186 0.326202
v -0.281238 -0.163761 -1.376259
v -1.079195 -0.855255 0.322299
v -0.388132 -0.000250 -1.359909
v -1.186089 -0.691744 0.338649
v -0.464778 0.176558 -1.323937
v -1.262735 -0.514937 0.374621
v -0.508230 0.359867 -1.269724
v -1.306187 -0.331628 0.428834
v -0.516818 0.542634 -1.199353
v -1.314775 -0.148861 0.499205
v -0.490213 0.717834 -1.115529
v -1.288171 0.026339 0.583029
v -0.429437 0.878735 -1.021473
v -1.227394 0.187241 0.677085
v -0.336826 1.019154 -0.920800
v -1.134783 0.327660 0.777758
v -0.215937 1.133695 -0.817379
v -1.013894 0.442200 0.881180
v -0.071418 1.217954 -0.715183
v -0.869375 0.526460 0.983375
v 0.091178 1.268696 -0.618140
v -0.706779 0.577201 1.080418
vn -0.043800 0.932300 0.359000
vn 0.135700 0.893700 0.427600
vn 0.310000 0.820800 0.479800
vn 0.472400 0.716300 0.513500
vn 0.616700 0.584300 0.527600
vn 0.737200 0.429800 0.521300
vn 0.829400 0.258800 0.495000
vn 0.889800 0.077900 0.449700
vn 0.915900 -0.106000 0.387100
vn 0.906900 -0.285900 0.309700
vn 0.863000 -0.454700 0.220300
vn 0.785900 -0.606100 0.122400
vn 0.678600 -0.734200 0.019900
vn 0.545300 -0.834100 -0.083400
vn 0.391000 -0.901900 -0.183500
vn 0.221700 -0.935100 -0.276500
vn 0.043800 -0.932300 -0.359000
vn -0.135700 -0.893700 -0.427600
vn -0.310000 -0.820800 -0.479800
vn -0.472400 -0.716300 -0.513500
vn -0.616700 -0.584300 -0.527600
vn -0.737200 -0.429800 -0.521300
vn -0.829400 -0.258800 -0.495000
vn -0.889800 -0.077900 -0.449700
vn -0.915900 0.106000 -0.387100
vn -0.906900 0.285900 -0.309700
vn -0.863000 0.454700 -0.220300
vn -0.785900 0.606100 -0.122400
vn -0.678600 0.734200 -0.019900
vn -0.545300 0.834100 0.083400
vn -0.399000 -0.345700 0.849300
vn -0.221700 0.935100 0.276500
vn -0.391000 0.901900 0.183500
vn 0.399000 0.345700 -0.849300
usemtl None
s off
f 1//1 2//1 4//1 3//1
f 3//2 4//2 6//2 5//2
f 5//3 6//3 8//3 7//3
f 7//4 8//4 10//4 9//4
f 9//5 10//5 12//5 11//5
f 11//6 12//6 14//6 13//6
f 13//7 14//7 16//7 15//7
f 15//8 16//8 18//8 17//8
f 17//9 18//9 20//9 19//9
f 19//10 20//10 22//10 21//10
f 21//11 22//11 24//11 23//11
f 23//12 24//12 26//12 25//12
f 25//13 26//13 28//13 27//13
f 27//14 28//14 30//14 29//14
f 29//15 30//15 32//15 31//15
f 31//16 32//16 34//16 33//16
f 33//17 34//17 36//17 35//17
f 35//18 36//18 38//18 37//18
f 37//19 38//19 40//19 39//19
f 39//20 40//20 42//20 41//20
f 41//21 42//21 44//21 43//21
f 43//22 44//22 46//22 45//22
f 45//23 46//23 48//23 47//23
f 47//24 48//24 50//24 49//24
f 49//25 50//25 52//25 51//25
f 51//26 52//26 54//26 53//26
f 53//27 54//27 56//27 55//27
f 55//28 56//28 58//28 57//28
f 57//29 58//29 60//29 59//29
f 59//30 60//30 62//30 61//30
f 4//31 2//31 64//31 62//31 60//31 58//31 56//31 54//31 52//31 50//31 48//31 46//31 44//31 42//31 40//31 38//31 36//31 34//31 32//31 30//31 28//31 26//31 24//31 22//31 20//31 18//31 16//31 14//31 12//31 10//31 8//31 6//31
f 63//32 64//32 2//32 1//32
f 61//33 62//33 64//33 63//33
f 1//34 3//34 5//34 7//34 9//34 11//34 13//34 15//34 17//34 19//34 21//34 23//34 25//34 27//34 29//34 31//34 33//34 35//34 37//34 39//34 41//34 43//34 45//34 47//34 49//34 51//34 53//34 55//34 57//34 59//34 61//34 63//34
