# Blender v2.76 (sub 0) OBJ File: ''
# www.blender.org
mtllib cil_000028.mtl
o Cylinder
v -0.146822 1.405183 0.062481
v -1.401754 -0.151370 0.110334
v -0.115899 1.386174 0.255125
v -1.370830 -0.170379 0.302979
v -0.056408 1.343804 0.437045
v -1.311339 -0.212749 0.484899
v 0.029364 1.279701 0.601251
v -1.225568 -0.276852 0.649105
v 0.138120 1.196329 0.741431
v -1.116811 -0.360224 0.789285
v 0.265682 1.096891 0.852199
v -0.989249 -0.459662 0.900053
v 0.407147 0.985209 0.929298
v -0.847785 -0.571344 0.977152
v 0.557078 0.865574 0.969765
v -0.697853 -0.690979 1.017619
v 0.709714 0.742585 0.972046
v -0.545217 -0.813968 1.019899
v 0.859190 0.620968 0.936051
v -0.395741 -0.935585 0.983905
v 0.999761 0.505395 0.863165
v -0.255170 -1.051158 0.911019
v 1.126024 0.400310 0.756189
v -0.128907 -1.156243 0.804042
v 1.233129 0.309749 0.619233
v -0.021803 -1.246804 0.667087
v 1.316958 0.237194 0.457560
v 0.062027 -1.319359 0.505414
v 1.374290 0.185432 0.277385
v 0.119359 -1.371121 0.325239
v 1.402922 0.156453 0.085630
v 0.147991 -1.400100 0.133484
v 1.401754 0.151370 -0.110335
v 0.146822 -1.405183 -0.062481
v 1.370830 0.170379 -0.302979
v 0.115899 -1.386174 -0.255125
v 1.311339 0.212749 -0.484900
v 0.056408 -1.343804 -0.437046
v 1.225567 0.276852 -0.649105
v -0.029364 -1.279701 -0.601251
v 1.116811 0.360225 -0.789286
v -0.138120 -1.196328 -0.741432
v 0.989249 0.459663 -0.900054
v -0.265682 -1.096890 -0.852200
v 0.847784 0.571345 -0.977153
v -0.407147 -0.985208 -0.929299
v 0.697852 0.690979 -1.017619
v -0.557079 -0.865574 -0.969766
v 0.545216 0.813969 -1.019899
v -0.709715 -0.742585 -0.972045
v 0.395740 0.935586 -0.983905
v -0.859191 -0.620967 -0.936051
v 0.255170 1.051158 -0.911018
v -0.999762 -0.505395 -0.863164
v 0.128906 1.156244 -0.804042
v -1.126025 -0.400309 -0.756188
v 0.021802 1.246804 -0.667086
v -1.233129 -0.309749 -0.619232
v -0.062027 1.319360 -0.505413
v -1.316958 -0.237193 -0.457559
v -0.119359 1.371121 -0.325238
v -1.374290 -0.185432 -0.277384
v -0.147991 1.400100 -0.133483
v -1.402922 -0.156453 -0.085629
vn -0.762500 0.620400 0.183600
vn -0.717100 0.589600 0.371800
vn -0.644100 0.536100 0.545700
vn -0.546400 0.462000 0.698600
vn -0.427600 0.370100 0.824700
vn -0.292500 0.264000 0.919100
vn -0.146100 0.147800 0.978200
vn 0.006000 0.025900 0.999600
vn 0.157700 -0.097000 0.982700
vn 0.303500 -0.216100 0.928000
vn 0.437500 -0.327000 0.837600
vn 0.554800 -0.425300 0.715100
vn 0.650700 -0.507200 0.565000
vn 0.721600 -0.569700 0.393300
vn 0.764800 -0.610300 0.206400
vn 0.778600 -0.627400 0.011600
vn 0.762500 -0.620400 -0.183600
vn 0.717100 -0.589600 -0.371800
vn 0.644100 -0.536100 -0.545700
vn 0.546400 -0.462000 -0.698600
vn 0.427600 -0.370100 -0.824700
vn 0.292500 -0.264000 -0.919100
vn 0.146100 -0.147800 -0.978200
vn -0.006000 -0.025900 -0.999600
vn -0.157700 0.097000 -0.982700
vn -0.303500 0.216100 -0.928000
vn -0.437500 0.327000 -0.837600
vn -0.554800 0.425300 -0.715100
vn -0.650700 0.507200 -0.565000
vn -0.721600 0.569700 -0.393300
vn -0.627500 -0.778300 0.023900
vn -0.778600 0.627400 -0.011600
vn -0.764800 0.610300 -0.206400
vn 0.627500 0.778300 -0.023900
usemtl None
s off
f 1//1 2//1 4//1 3//1
f 3//2 4//2 6//2 5//2
f 5//3 6//3 8//3 7//3
f 7//4 8//4 10//4 9//4
f 9//5 10//5 12//5 11//5
f 11//6 12//6 14//6 13//6
f 13//7 14//7 16//7 15//7
f 15//8 16//8 18//8 17//8
f 17//9 18//9 20//9 19//9
f 19//10 20//10 22//10 21//10
f 21//11 22//11 24//11 23//11
f 23//12 24//12 26//12 25//12
f 25//13 26//13 28//13 27//13
f 27//14 28//14 30//14 29//14
f 29//15 30//15 32//15 31//15
f 31//16 32//16 34//16 33//16
f 33//17 34//17 36//17 35//17
f 35//18 36//18 38//18 37//18
f 37//19 38//19 40//19 39//19
f 39//20 40//20 42//20 41//20
f 41//21 42//21 44//21 43//21
f 43//22 44//22 46//22 45//22
f 45//23 46//23 48//23 47//23
f 47//24 48//24 50//24 49//24
f 49//25 50//25 52//25 51//25
f 51//26 52//26 54//26 53//26
f 53//27 54//27 56//27 55//27
f 55//28 56//28 58//28 57//28
f 57//29 58//29 60//29 59//29
f 59//30 60//30 62//30 61//30
f 4//31 2//31 64//31 62//31 60//31 58//31 56//31 54//31 52//31 50//31 48//31 46//31 44//31 42//31 40//31 38//31 36//31 34//31 32//31 30//31 28//31 26//31 24//31 22//31 20//31 18//31 16//31 14//31 12//31 10//31 8//31 6//31
f 63//32 64//32 2//32 1//32
f 61//33 62//33 64//33 63//33
f 1//34 3//34 5//34 7//34 9//34 11//34 13//34 15//34 17//34 19//34 21//34 23//34 25//34 27//34 29//34 31//34 33//34 35//34 37//34 39//34 41//34 43//34 45//34 47//34 49//34 51//34 53//34 55//34 57//34 59//34 61//34 63//34
