# Blender v2.76 (sub 0) OBJ File: ''
# www.blender.org
mtllib cil_000003.mtl
o Cylinder
v 0.022650 1.019785 -0.979553
v -0.021943 0.979815 1.019550
v 0.217685 1.000419 -0.975590
v 0.173092 0.960448 1.023513
v 0.405211 0.943374 -0.972548
v 0.360619 0.903403 1.026556
v 0.578022 0.850845 -0.970543
v 0.533430 0.810874 1.028560
v 0.729477 0.726386 -0.969653
v 0.684885 0.686415 1.029450
v 0.853755 0.574780 -0.969912
v 0.809163 0.534809 1.029191
v 0.946081 0.401854 -0.971310
v 0.901489 0.361883 1.027793
v 1.002907 0.214253 -0.973794
v 0.958314 0.174282 1.025310
v 1.022048 0.019186 -0.977267
v 0.977455 -0.020785 1.021836
v 1.002769 -0.175850 -0.981597
v 0.958176 -0.215821 1.017507
v 0.945811 -0.363360 -0.986616
v 0.901218 -0.403331 1.012487
v 0.853363 -0.536138 -0.992133
v 0.808770 -0.576109 1.006970
v 0.728977 -0.687545 -0.997935
v 0.684385 -0.727516 1.001168
v 0.577434 -0.811762 -1.003799
v 0.532842 -0.851733 0.995304
v 0.404558 -0.904015 -1.009500
v 0.359965 -0.943986 0.989604
v 0.216991 -0.960760 -1.014818
v 0.172399 -1.000731 0.984285
v 0.021942 -0.979815 -1.019550
v -0.022650 -1.019785 0.979553
v -0.173093 -0.960448 -1.023513
v -0.217685 -1.000419 0.975590
v -0.360619 -0.903403 -1.026556
v -0.405212 -0.943374 0.972548
v -0.533430 -0.810874 -1.028560
v -0.578023 -0.850844 0.970543
v -0.684885 -0.686414 -1.029450
v -0.729478 -0.726385 0.969653
v -0.809163 -0.534809 -1.029191
v -0.853756 -0.574779 0.969912
v -0.901489 -0.361882 -1.027793
v -0.946082 -0.401853 0.971310
v -0.958314 -0.174281 -1.025310
v -1.002907 -0.214252 0.973794
v -0.977455 0.020786 -1.021836
v -1.022048 -0.019185 0.977267
v -0.958176 0.215822 -1.017507
v -1.002768 0.175851 0.981597
v -0.901218 0.403332 -1.012487
v -0.945810 0.363361 0.986616
v -0.808770 0.576110 -1.006970
v -0.853362 0.536139 0.992133
v -0.684384 0.727517 -1.001168
v -0.728976 0.687546 0.997935
v -0.532841 0.851734 -0.995304
v -0.577433 0.811763 1.003799
v -0.359964 0.943987 -0.989604
v -0.404557 0.904016 1.009500
v -0.172397 1.000731 -0.984285
v -0.216990 0.960760 1.014818
vn 0.098300 0.994900 0.022100
vn 0.290600 0.956500 0.025600
vn 0.471600 0.881400 0.028100
vn 0.634500 0.772300 0.029600
vn 0.773000 0.633600 0.029900
vn 0.881900 0.470600 0.029100
vn 0.956800 0.289500 0.027100
vn 0.995000 0.097200 0.024100
vn 0.994900 -0.098800 0.020200
vn 0.956600 -0.291000 0.015500
vn 0.881500 -0.472000 0.010200
vn 0.772600 -0.634900 0.004500
vn 0.634000 -0.773400 -0.001300
vn 0.471000 -0.882100 -0.007100
vn 0.289900 -0.957000 -0.012700
vn 0.097600 -0.995100 -0.017700
vn -0.098300 -0.994900 -0.022100
vn -0.290600 -0.956500 -0.025600
vn -0.471600 -0.881400 -0.028100
vn -0.634500 -0.772300 -0.029600
vn -0.773000 -0.633600 -0.029900
vn -0.881900 -0.470600 -0.029100
vn -0.956800 -0.289500 -0.027100
vn -0.995000 -0.097200 -0.024100
vn -0.994900 0.098800 -0.020200
vn -0.956600 0.291000 -0.015500
vn -0.881500 0.472000 -0.010200
vn -0.772600 0.634900 -0.004500
vn -0.634000 0.773400 0.001300
vn -0.471000 0.882100 0.007100
vn -0.022300 -0.020000 0.999600
vn -0.097600 0.995100 0.017700
vn -0.289900 0.957000 0.012700
vn 0.022300 0.020000 -0.999600
usemtl None
s off
f 1//1 2//1 4//1 3//1
f 3//2 4//2 6//2 5//2
f 5//3 6//3 8//3 7//3
f 7//4 8//4 10//4 9//4
f 9//5 10//5 12//5 11//5
f 11//6 12//6 14//6 13//6
f 13//7 14//7 16//7 15//7
f 15//8 16//8 18//8 17//8
f 17//9 18//9 20//9 19//9
f 19//10 20//10 22//10 21//10
f 21//11 22//11 24//11 23//11
f 23//12 24//12 26//12 25//12
f 25//13 26//13 28//13 27//13
f 27//14 28//14 30//14 29//14
f 29//15 30//15 32//15 31//15
f 31//16 32//16 34//16 33//16
f 33//17 34//17 36//17 35//17
f 35//18 36//18 38//18 37//18
f 37//19 38//19 40//19 39//19
f 39//20 40//20 42//20 41//20
f 41//21 42//21 44//21 43//21
f 43//22 44//22 46//22 45//22
f 45//23 46//23 48//23 47//23
f 47//24 48//24 50//24 49//24
f 49//25 50//25 52//25 51//25
f 51//26 52//26 54//26 53//26
f 53//27 54//27 56//27 55//27
f 55//28 56//28 58//28 57//28
f 57//29 58//29 60//29 59//29
f 59//30 60//30 62//30 61//30
f 4//31 2//31 64//31 62//31 60//31 58//31 56//31 54//31 52//31 50//31 48//31 46//31 44//31 42//31 40//31 38//31 36//31 34//31 32//31 30//31 28//31 26//31 24//31 22//31 20//31 18//31 16//31 14//31 12//31 10//31 8//31 6//31
f 63//32 64//32 2//32 1//32
f 61//33 62//33 64//33 63//33
f 1//34 3//34 5//34 7//34 9//34 11//34 13//34 15//34 17//34 19//34 21//34 23//34 25//34 27//34 29//34 31//34 33//34 35//34 37//34 39//34 41//34 43//34 45//34 47//34 49//34 51//34 53//34 55//34 57//34 59//34 61//34 63//34
