# Blender v2.76 (sub 0) OBJ File: ''
# www.blender.org
mtllib cil_000002.mtl
o Cylinder
v 0.010073 1.008813 -0.991058
v -0.009539 0.991109 1.008768
v 0.205149 0.989530 -0.989315
v 0.185537 0.971826 1.010510
v 0.392718 0.932560 -0.987980
v 0.373106 0.914856 1.011845
v 0.565572 0.840092 -0.987104
v 0.545960 0.822388 1.012722
v 0.717068 0.715681 -0.986719
v 0.697456 0.697977 1.013106
v 0.841384 0.564106 -0.986842
v 0.821772 0.546402 1.012983
v 0.933743 0.391193 -0.987467
v 0.914131 0.373489 1.012358
v 0.990596 0.203587 -0.988570
v 0.970984 0.185884 1.011255
v 1.009758 0.008498 -0.990109
v 0.990146 -0.009206 1.009716
v 0.990492 -0.186578 -0.992025
v 0.970880 -0.204282 1.007800
v 0.933539 -0.374143 -0.994244
v 0.913927 -0.391847 1.005581
v 0.841087 -0.546991 -0.996681
v 0.821475 -0.564695 1.003144
v 0.716690 -0.698477 -0.999242
v 0.697078 -0.716181 1.000583
v 0.565127 -0.822782 -1.001829
v 0.545515 -0.840486 0.997997
v 0.392224 -0.915127 -1.004342
v 0.372612 -0.932831 0.995483
v 0.204625 -0.971964 -1.006685
v 0.185013 -0.989668 0.993140
v 0.009539 -0.991109 -1.008768
v -0.010074 -1.008813 0.991058
v -0.185537 -0.971826 -1.010510
v -0.205149 -0.989530 0.989315
v -0.373106 -0.914856 -1.011845
v -0.392718 -0.932560 0.987980
v -0.545960 -0.822388 -1.012722
v -0.565572 -0.840092 0.987104
v -0.697456 -0.697976 -1.013106
v -0.717068 -0.715680 0.986719
v -0.821772 -0.546402 -1.012983
v -0.841385 -0.564105 0.986842
v -0.914132 -0.373489 -1.012358
v -0.933744 -0.391193 0.987467
v -0.970984 -0.185883 -1.011255
v -0.990597 -0.203587 0.988570
v -0.990146 0.009207 -1.009716
v -1.009758 -0.008497 0.990109
v -0.970880 0.204283 -1.007800
v -0.990492 0.186579 0.992025
v -0.913926 0.391848 -1.005581
v -0.933538 0.374145 0.994244
v -0.821474 0.564696 -1.003144
v -0.841087 0.546992 0.996681
v -0.697077 0.716182 -1.000583
v -0.716689 0.698478 0.999242
v -0.545514 0.840486 -0.997997
v -0.565126 0.822783 1.001829
v -0.372611 0.932831 -0.995483
v -0.392223 0.915127 1.004342
v -0.185011 0.989668 -0.993140
v -0.204623 0.971964 1.006685
vn 0.098300 0.995100 0.009800
vn 0.290500 0.956800 0.011300
vn 0.471600 0.881700 0.012400
vn 0.634600 0.772800 0.013100
vn 0.773100 0.634100 0.013200
vn 0.882000 0.471100 0.012800
vn 0.957000 0.289900 0.012000
vn 0.995200 0.097700 0.010600
vn 0.995100 -0.098400 0.008900
vn 0.956800 -0.290600 0.006800
vn 0.881800 -0.471700 0.004500
vn 0.772800 -0.634600 0.002000
vn 0.634200 -0.773200 -0.000600
vn 0.471100 -0.882100 -0.003200
vn 0.290000 -0.957000 -0.005600
vn 0.097700 -0.995200 -0.007900
vn -0.098300 -0.995100 -0.009800
vn -0.290500 -0.956800 -0.011300
vn -0.471600 -0.881700 -0.012400
vn -0.634600 -0.772800 -0.013100
vn -0.773100 -0.634100 -0.013200
vn -0.882000 -0.471100 -0.012800
vn -0.957000 -0.289900 -0.012000
vn -0.995200 -0.097700 -0.010600
vn -0.995100 0.098400 -0.008900
vn -0.956800 0.290600 -0.006800
vn -0.881800 0.471700 -0.004500
vn -0.772800 0.634600 -0.002000
vn -0.634200 0.773200 0.000600
vn -0.471100 0.882100 0.003200
vn -0.009800 -0.008900 0.999900
vn -0.097700 0.995200 0.007900
vn -0.290000 0.957000 0.005600
vn 0.009800 0.008900 -0.999900
usemtl None
s off
f 1//1 2//1 4//1 3//1
f 3//2 4//2 6//2 5//2
f 5//3 6//3 8//3 7//3
f 7//4 8//4 10//4 9//4
f 9//5 10//5 12//5 11//5
f 11//6 12//6 14//6 13//6
f 13//7 14//7 16//7 15//7
f 15//8 16//8 18//8 17//8
f 17//9 18//9 20//9 19//9
f 19//10 20//10 22//10 21//10
f 21//11 22//11 24//11 23//11
f 23//12 24//12 26//12 25//12
f 25//13 26//13 28//13 27//13
f 27//14 28//14 30//14 29//14
f 29//15 30//15 32//15 31//15
f 31//16 32//16 34//16 33//16
f 33//17 34//17 36//17 35//17
f 35//18 36//18 38//18 37//18
f 37//19 38//19 40//19 39//19
f 39//20 40//20 42//20 41//20
f 41//21 42//21 44//21 43//21
f 43//22 44//22 46//22 45//22
f 45//23 46//23 48//23 47//23
f 47//24 48//24 50//24 49//24
f 49//25 50//25 52//25 51//25
f 51//26 52//26 54//26 53//26
f 53//27 54//27 56//27 55//27
f 55//28 56//28 58//28 57//28
f 57//29 58//29 60//29 59//29
f 59//30 60//30 62//30 61//30
f 4//31 2//31 64//31 62//31 60//31 58//31 56//31 54//31 52//31 50//31 48//31 46//31 44//31 42//31 40//31 38//31 36//31 34//31 32//31 30//31 28//31 26//31 24//31 22//31 20//31 18//31 16//31 14//31 12//31 10//31 8//31 6//31
f 63//32 64//32 2//32 1//32
f 61//33 62//33 64//33 63//33
f 1//34 3//34 5//34 7//34 9//34 11//34 13//34 15//34 17//34 19//34 21//34 23//34 25//34 27//34 29//34 31//34 33//34 35//34 37//34 39//34 41//34 43//34 45//34 47//34 49//34 51//34 53//34 55//34 57//34 59//34 61//34 63//34
