# Blender v2.76 (sub 0) OBJ File: ''
# www.blender.org
mtllib cil_000029.mtl
o Cylinder
v -0.159477 1.404132 0.054591
v -1.404734 -0.160708 0.029916
v -0.139496 1.385171 0.248680
v -1.384753 -0.179669 0.224005
v -0.090226 1.343047 0.433687
v -1.335484 -0.221793 0.409012
v -0.013563 1.279378 0.602501
v -1.258820 -0.285462 0.577827
v 0.087550 1.196611 0.748636
v -1.157708 -0.368229 0.723962
v 0.209225 1.097928 0.866476
v -1.036033 -0.466913 0.841801
v 0.346787 0.987119 0.951491
v -0.898471 -0.577721 0.926816
v 0.494949 0.868444 1.000415
v -0.750308 -0.696396 0.975741
v 0.648018 0.746463 1.011368
v -0.597239 -0.818377 0.986694
v 0.800111 0.625864 0.983929
v -0.445146 -0.938976 0.959254
v 0.945384 0.511281 0.919152
v -0.299873 -1.053559 0.894477
v 1.078254 0.407118 0.819526
v -0.167004 -1.157722 0.794852
v 1.193614 0.317378 0.688881
v -0.051644 -1.247462 0.664207
v 1.287031 0.245509 0.532237
v 0.041774 -1.319332 0.507562
v 1.354916 0.194273 0.355613
v 0.109659 -1.370567 0.330938
v 1.394660 0.165639 0.165797
v 0.149402 -1.399201 0.141122
v 1.404734 0.160708 -0.029916
v 0.159477 -1.404132 -0.054591
v 1.384753 0.179669 -0.224006
v 0.139495 -1.385171 -0.248680
v 1.335484 0.221794 -0.409013
v 0.090226 -1.343047 -0.433687
v 1.258820 0.285462 -0.577827
v 0.013562 -1.279378 -0.602502
v 1.157707 0.368229 -0.723962
v -0.087550 -1.196611 -0.748637
v 1.036032 0.466913 -0.841801
v -0.209225 -1.097927 -0.866476
v 0.898470 0.577722 -0.926817
v -0.346787 -0.987118 -0.951491
v 0.750308 0.696397 -0.975741
v -0.494950 -0.868443 -1.000415
v 0.597238 0.818378 -0.986693
v -0.648019 -0.746462 -1.011368
v 0.445145 0.938977 -0.959254
v -0.800112 -0.625863 -0.983928
v 0.299872 1.053560 -0.894477
v -0.945385 -0.511281 -0.919151
v 0.167003 1.157723 -0.794851
v -1.078255 -0.407118 -0.819526
v 0.051643 1.247463 -0.664206
v -1.193614 -0.317377 -0.688880
v -0.041774 1.319332 -0.507561
v -1.287032 -0.245508 -0.532236
v -0.109659 1.370568 -0.330937
v -1.354916 -0.194273 -0.355612
v -0.149402 1.399201 -0.141121
v -1.394660 -0.165639 -0.165796
vn -0.775900 0.615200 0.140000
vn -0.741100 0.584500 0.330400
vn -0.677800 0.531400 0.508200
vn -0.588500 0.457800 0.666400
vn -0.476500 0.366600 0.799100
vn -0.346300 0.261400 0.901000
vn -0.202700 0.146100 0.968300
vn -0.051400 0.025200 0.998400
vn 0.101900 -0.096700 0.990100
vn 0.251300 -0.214900 0.943700
vn 0.391100 -0.324800 0.861100
vn 0.515800 -0.422200 0.745500
vn 0.620700 -0.503400 0.601100
vn 0.701700 -0.565300 0.433700
vn 0.755800 -0.605400 0.249600
vn 0.780800 -0.622200 0.055900
vn 0.775900 -0.615200 -0.140000
vn 0.741100 -0.584500 -0.330400
vn 0.677800 -0.531400 -0.508200
vn 0.588500 -0.457800 -0.666400
vn 0.476500 -0.366600 -0.799100
vn 0.346300 -0.261400 -0.901000
vn 0.202700 -0.146100 -0.968300
vn 0.051400 -0.025200 -0.998400
vn -0.101900 0.096700 -0.990100
vn -0.251300 0.214900 -0.943700
vn -0.391100 0.324800 -0.861100
vn -0.515800 0.422200 -0.745500
vn -0.620700 0.503400 -0.601100
vn -0.701700 0.565300 -0.433700
vn -0.622600 -0.782400 -0.012300
vn -0.780800 0.622200 -0.055900
vn -0.755800 0.605400 -0.249600
vn 0.622600 0.782400 0.012300
usemtl None
s off
f 1//1 2//1 4//1 3//1
f 3//2 4//2 6//2 5//2
f 5//3 6//3 8//3 7//3
f 7//4 8//4 10//4 9//4
f 9//5 10//5 12//5 11//5
f 11//6 12//6 14//6 13//6
f 13//7 14//7 16//7 15//7
f 15//8 16//8 18//8 17//8
f 17//9 18//9 20//9 19//9
f 19//10 20//10 22//10 21//10
f 21//11 22//11 24//11 23//11
f 23//12 24//12 26//12 25//12
f 25//13 26//13 28//13 27//13
f 27//14 28//14 30//14 29//14
f 29//15 30//15 32//15 31//15
f 31//16 32//16 34//16 33//16
f 33//17 34//17 36//17 35//17
f 35//18 36//18 38//18 37//18
f 37//19 38//19 40//19 39//19
f 39//20 40//20 42//20 41//20
f 41//21 42//21 44//21 43//21
f 43//22 44//22 46//22 45//22
f 45//23 46//23 48//23 47//23
f 47//24 48//24 50//24 49//24
f 49//25 50//25 52//25 51//25
f 51//26 52//26 54//26 53//26
f 53//27 54//27 56//27 55//27
f 55//28 56//28 58//28 57//28
f 57//29 58//29 60//29 59//29
f 59//30 60//30 62//30 61//30
f 4//31 2//31 64//31 62//31 60//31 58//31 56//31 54//31 52//31 50//31 48//31 46//31 44//31 42//31 40//31 38//31 36//31 34//31 32//31 30//31 28//31 26//31 24//31 22//31 20//31 18//31 16//31 14//31 12//31 10//31 8//31 6//31
f 63//32 64//32 2//32 1//32
f 61//33 62//33 64//33 63//33
f 1//34 3//34 5//34 7//34 9//34 11//34 13//34 15//34 17//34 19//34 21//34 23//34 25//34 27//34 29//34 31//34 33//34 35//34 37//34 39//34 41//34 43//34 45//34 47//34 49//34 51//34 53//34 55//34 57//34 59//34 61//34 63//34
