# Blender v2.76 (sub 0) OBJ File: ''
# www.blender.org
mtllib cil_000010.mtl
o Cylinder
v 0.204227 1.192393 -0.732456
v -0.298147 0.760295 1.154583
v 0.393742 1.171934 -0.686687
v -0.108631 0.739836 1.200351
v 0.577779 1.114740 -0.650788
v 0.075406 0.682642 1.236250
v 0.749265 1.023011 -0.626139
v 0.246892 0.590913 1.260899
v 0.901611 0.900270 -0.613687
v 0.399238 0.468172 1.273351
v 1.028961 0.751235 -0.613909
v 0.526588 0.319138 1.273129
v 1.126421 0.581634 -0.626799
v 0.624048 0.149536 1.260239
v 1.190247 0.397983 -0.651860
v 0.687874 -0.034115 1.235178
v 1.217985 0.207340 -0.688129
v 0.715612 -0.224757 1.198909
v 1.208570 0.017033 -0.734213
v 0.706197 -0.415065 1.152825
v 1.162363 -0.165627 -0.788340
v 0.659990 -0.597725 1.098698
v 1.081140 -0.333619 -0.848430
v 0.578767 -0.765717 1.038608
v 0.968022 -0.480488 -0.912175
v 0.465649 -0.912586 0.974863
v 0.827357 -0.600589 -0.977125
v 0.324984 -1.032687 0.909913
v 0.664550 -0.689308 -1.040783
v 0.162177 -1.121406 0.846255
v 0.485857 -0.743234 -1.100703
v -0.016516 -1.175331 0.786335
v 0.298146 -0.760295 -1.154583
v -0.204227 -1.192393 0.732456
v 0.108631 -0.739836 -1.200351
v -0.393742 -1.171933 0.686687
v -0.075406 -0.682642 -1.236250
v -0.577779 -1.114740 0.650788
v -0.246893 -0.590913 -1.260899
v -0.749266 -1.023011 0.626139
v -0.399238 -0.468172 -1.273351
v -0.901611 -0.900270 0.613687
v -0.526588 -0.319137 -1.273129
v -1.028961 -0.751235 0.613909
v -0.624049 -0.149535 -1.260239
v -1.126422 -0.581633 0.626799
v -0.687874 0.034116 -1.235178
v -1.190247 -0.397982 0.651860
v -0.715612 0.224759 -1.198909
v -1.217986 -0.207339 0.688129
v -0.706197 0.415066 -1.152825
v -1.208570 -0.017032 0.734213
v -0.659990 0.597726 -1.098698
v -1.162363 0.165628 0.788340
v -0.578766 0.765718 -1.038607
v -1.081140 0.333620 0.848431
v -0.465648 0.912587 -0.974862
v -0.968022 0.480489 0.912176
v -0.324983 1.032688 -0.909913
v -0.827356 0.600590 0.977125
v -0.162176 1.121406 -0.846255
v -0.664549 0.689308 1.040783
v 0.016517 1.175332 -0.786335
v -0.485856 0.743234 1.100703
vn 0.048000 0.970800 0.235100
vn 0.235700 0.931800 0.276100
vn 0.414300 0.857000 0.306500
vn 0.577000 0.749200 0.325200
vn 0.717600 0.612700 0.331300
vn 0.830500 0.452600 0.324700
vn 0.911500 0.275100 0.305700
vn 0.957500 0.087000 0.274800
vn 0.966700 -0.104400 0.233500
vn 0.938800 -0.291800 0.183100
vn 0.874800 -0.467900 0.125700
vn 0.777100 -0.626100 0.063500
vn 0.649600 -0.760200 -0.001100
vn 0.497200 -0.865200 -0.065800
vn 0.325600 -0.936800 -0.127800
vn 0.141500 -0.972500 -0.185000
vn -0.048000 -0.970800 -0.235100
vn -0.235700 -0.931800 -0.276100
vn -0.414300 -0.857000 -0.306500
vn -0.577000 -0.749200 -0.325200
vn -0.717600 -0.612700 -0.331300
vn -0.830500 -0.452600 -0.324700
vn -0.911500 -0.275100 -0.305700
vn -0.957500 -0.087000 -0.274800
vn -0.966700 0.104400 -0.233500
vn -0.938800 0.291800 -0.183100
vn -0.874800 0.467900 -0.125700
vn -0.777100 0.626100 -0.063500
vn -0.649600 0.760200 0.001100
vn -0.497200 0.865200 0.065800
vn -0.251200 -0.216000 0.943500
vn -0.141500 0.972500 0.185000
vn -0.325600 0.936800 0.127800
vn 0.251200 0.216000 -0.943500
usemtl None
s off
f 1//1 2//1 4//1 3//1
f 3//2 4//2 6//2 5//2
f 5//3 6//3 8//3 7//3
f 7//4 8//4 10//4 9//4
f 9//5 10//5 12//5 11//5
f 11//6 12//6 14//6 13//6
f 13//7 14//7 16//7 15//7
f 15//8 16//8 18//8 17//8
f 17//9 18//9 20//9 19//9
f 19//10 20//10 22//10 21//10
f 21//11 22//11 24//11 23//11
f 23//12 24//12 26//12 25//12
f 25//13 26//13 28//13 27//13
f 27//14 28//14 30//14 29//14
f 29//15 30//15 32//15 31//15
f 31//16 32//16 34//16 33//16
f 33//17 34//17 36//17 35//17
f 35//18 36//18 38//18 37//18
f 37//19 38//19 40//19 39//19
f 39//20 40//20 42//20 41//20
f 41//21 42//21 44//21 43//21
f 43//22 44//22 46//22 45//22
f 45//23 46//23 48//23 47//23
f 47//24 48//24 50//24 49//24
f 49//25 50//25 52//25 51//25
f 51//26 52//26 54//26 53//26
f 53//27 54//27 56//27 55//27
f 55//28 56//28 58//28 57//28
f 57//29 58//29 60//29 59//29
f 59//30 60//30 62//30 61//30
f 4//31 2//31 64//31 62//31 60//31 58//31 56//31 54//31 52//31 50//31 48//31 46//31 44//31 42//31 40//31 38//31 36//31 34//31 32//31 30//31 28//31 26//31 24//31 22//31 20//31 18//31 16//31 14//31 12//31 10//31 8//31 6//31
f 63//32 64//32 2//32 1//32
f 61//33 62//33 64//33 63//33
f 1//34 3//34 5//34 7//34 9//34 11//34 13//34 15//34 17//34 19//34 21//34 23//34 25//34 27//34 29//34 31//34 33//34 35//34 37//34 39//34 41//34 43//34 45//34 47//34 49//34 51//34 53//34 55//34 57//34 59//34 61//34 63//34
