# Blender v2.76 (sub 0) OBJ File: ''
# www.blender.org
mtllib cil_000006.mtl
o Cylinder
v 0.087159 1.076838 -0.912592
v -0.095418 0.916733 1.072612
v 0.281512 1.057060 -0.896312
v 0.098935 0.896955 1.088891
v 0.468555 0.999736 -0.883733
v 0.285978 0.839631 1.101470
v 0.641100 0.907069 -0.875338
v 0.458524 0.746964 1.109865
v 0.792516 0.782620 -0.871449
v 0.609940 0.622515 1.113754
v 0.916985 0.631172 -0.872216
v 0.734408 0.471067 1.112987
v 1.009722 0.458545 -0.877609
v 0.827145 0.298440 1.107594
v 1.067164 0.271373 -0.887422
v 0.884588 0.111268 1.097782
v 1.087104 0.076848 -0.901276
v 0.904528 -0.083257 1.083927
v 1.068776 -0.117554 -0.918640
v 0.886199 -0.277659 1.066563
v 1.012883 -0.304361 -0.938846
v 0.830306 -0.464466 1.046357
v 0.921574 -0.476397 -0.961118
v 0.738997 -0.636501 1.024085
v 0.798357 -0.627047 -0.984600
v 0.615780 -0.787152 1.000603
v 0.647968 -0.750525 -1.008390
v 0.465391 -0.910630 0.976813
v 0.476186 -0.842084 -1.031573
v 0.293609 -1.002189 0.953631
v 0.289613 -0.898205 -1.053258
v 0.107036 -1.058310 0.931946
v 0.095418 -0.916733 -1.072612
v -0.087159 -1.076838 0.912592
v -0.098936 -0.896955 -1.088891
v -0.281512 -1.057060 0.896312
v -0.285979 -0.839631 -1.101470
v -0.468556 -0.999736 0.883733
v -0.458524 -0.746964 -1.109865
v -0.641101 -0.907069 0.875338
v -0.609940 -0.622515 -1.113754
v -0.792517 -0.782620 0.871449
v -0.734408 -0.471067 -1.112987
v -0.916985 -0.631172 0.872216
v -0.827145 -0.298439 -1.107594
v -1.009722 -0.458544 0.877609
v -0.884588 -0.111267 -1.097782
v -1.067164 -0.271372 0.887422
v -0.904528 0.083258 -1.083927
v -1.087104 -0.076847 0.901276
v -0.886199 0.277660 -1.066563
v -1.068775 0.117555 0.918640
v -0.830306 0.464468 -1.046357
v -1.012882 0.304363 0.938846
v -0.738996 0.636502 -1.024085
v -0.921573 0.476398 0.961119
v -0.615779 0.787153 -1.000603
v -0.798356 0.627048 0.984601
v -0.465390 0.910631 -0.976813
v -0.647967 0.750526 1.008390
v -0.293608 1.002189 -0.953631
v -0.476185 0.842084 1.031573
v -0.107035 1.058311 -0.931946
v -0.289611 0.898206 1.053258
vn 0.093500 0.991700 0.088600
vn 0.285100 0.952900 0.103100
vn 0.465800 0.877600 0.113600
vn 0.628500 0.768500 0.119800
vn 0.767200 0.629900 0.121400
vn 0.876300 0.467100 0.118300
vn 0.951700 0.286300 0.110600
vn 0.990600 0.094500 0.098700
vn 0.991400 -0.100900 0.083000
vn 0.954100 -0.292400 0.064200
vn 0.880200 -0.472700 0.042800
vn 0.772400 -0.634800 0.019800
vn 0.634900 -0.772600 -0.003900
vn 0.473100 -0.880600 -0.027500
vn 0.293000 -0.954800 -0.050100
vn 0.101700 -0.992300 -0.070700
vn -0.093500 -0.991700 -0.088600
vn -0.285100 -0.952900 -0.103100
vn -0.465800 -0.877600 -0.113600
vn -0.628500 -0.768500 -0.119800
vn -0.767200 -0.629900 -0.121400
vn -0.876300 -0.467100 -0.118300
vn -0.951700 -0.286300 -0.110600
vn -0.990600 -0.094500 -0.098700
vn -0.991400 0.100900 -0.083000
vn -0.954100 0.292400 -0.064200
vn -0.880200 0.472700 -0.042800
vn -0.772400 0.634800 -0.019800
vn -0.634900 0.772600 0.003900
vn -0.473100 0.880600 0.027500
vn -0.091300 -0.080100 0.992600
vn -0.101700 0.992300 0.070700
vn -0.293000 0.954800 0.050100
vn 0.091300 0.080100 -0.992600
usemtl None
s off
f 1//1 2//1 4//1 3//1
f 3//2 4//2 6//2 5//2
f 5//3 6//3 8//3 7//3
f 7//4 8//4 10//4 9//4
f 9//5 10//5 12//5 11//5
f 11//6 12//6 14//6 13//6
f 13//7 14//7 16//7 15//7
f 15//8 16//8 18//8 17//8
f 17//9 18//9 20//9 19//9
f 19//10 20//10 22//10 21//10
f 21//11 22//11 24//11 23//11
f 23//12 24//12 26//12 25//12
f 25//13 26//13 28//13 27//13
f 27//14 28//14 30//14 29//14
f 29//15 30//15 32//15 31//15
f 31//16 32//16 34//16 33//16
f 33//17 34//17 36//17 35//17
f 35//18 36//18 38//18 37//18
f 37//19 38//19 40//19 39//19
f 39//20 40//20 42//20 41//20
f 41//21 42//21 44//21 43//21
f 43//22 44//22 46//22 45//22
f 45//23 46//23 48//23 47//23
f 47//24 48//24 50//24 49//24
f 49//25 50//25 52//25 51//25
f 51//26 52//26 54//26 53//26
f 53//27 54//27 56//27 55//27
f 55//28 56//28 58//28 57//28
f 57//29 58//29 60//29 59//29
f 59//30 60//30 62//30 61//30
f 4//31 2//31 64//31 62//31 60//31 58//31 56//31 54//31 52//31 50//31 48//31 46//31 44//31 42//31 40//31 38//31 36//31 34//31 32//31 30//31 28//31 26//31 24//31 22//31 20//31 18//31 16//31 14//31 12//31 10//31 8//31 6//31
f 63//32 64//32 2//32 1//32
f 61//33 62//33 64//33 63//33
f 1//34 3//34 5//34 7//34 9//34 11//34 13//34 15//34 17//34 19//34 21//34 23//34 25//34 27//34 29//34 31//34 33//34 35//34 37//34 39//34 41//34 43//34 45//34 47//34 49//34 51//34 53//34 55//34 57//34 59//34 61//34 63//34
