# Blender v2.76 (sub 0) OBJ File: ''
# www.blender.org
mtllib cil_000023.mtl
o Cylinder
v 0.008300 1.413465 0.045258
v -1.297542 -0.010388 0.562384
v 0.098272 1.393801 0.218313
v -1.207571 -0.030051 0.735439
v 0.209559 1.347934 0.373041
v -1.096284 -0.075919 0.890167
v 0.337883 1.277625 0.503498
v -0.967959 -0.146228 1.020624
v 0.478315 1.185576 0.604668
v -0.827528 -0.238276 1.121794
v 0.625456 1.075326 0.672666
v -0.680386 -0.348527 1.189791
v 0.773653 0.951110 0.704876
v -0.532189 -0.472743 1.222002
v 0.917211 0.817702 0.700062
v -0.388632 -0.606150 1.217188
v 1.050611 0.680230 0.658409
v -0.255231 -0.743623 1.175535
v 1.168729 0.543976 0.581517
v -0.137113 -0.879877 1.098643
v 1.267025 0.414176 0.472342
v -0.038818 -1.009677 0.989467
v 1.341721 0.295818 0.335077
v 0.035878 -1.128035 0.852203
v 1.389947 0.193451 0.175000
v 0.084104 -1.230402 0.692126
v 1.409849 0.111009 -0.001739
v 0.104006 -1.312844 0.515387
v 1.400663 0.051659 -0.188347
v 0.094820 -1.372193 0.328778
v 1.362741 0.017684 -0.377654
v 0.056899 -1.406169 0.139472
v 1.297542 0.010388 -0.562385
v -0.008300 -1.413465 -0.045259
v 1.207570 0.030051 -0.735439
v -0.098272 -1.393801 -0.218313
v 1.096284 0.075919 -0.890168
v -0.209559 -1.347934 -0.373042
v 0.967959 0.146228 -1.020624
v -0.337884 -1.277624 -0.503498
v 0.827527 0.238277 -1.121795
v -0.478315 -1.185576 -0.604669
v 0.680386 0.348527 -1.189792
v -0.625457 -1.075325 -0.672666
v 0.532189 0.472743 -1.222002
v -0.773654 -0.951109 -0.704876
v 0.388631 0.606151 -1.217188
v -0.917211 -0.817702 -0.700062
v 0.255230 0.743623 -1.175535
v -1.050612 -0.680229 -0.658409
v 0.137113 0.879878 -1.098643
v -1.168730 -0.543975 -0.581517
v 0.038817 1.009678 -0.989467
v -1.267025 -0.414175 -0.472341
v -0.035879 1.128035 -0.852202
v -1.341721 -0.295817 -0.335077
v -0.084104 1.230402 -0.692125
v -1.389947 -0.193450 -0.174999
v -0.104006 1.312844 -0.515386
v -1.409849 -0.111008 0.001740
v -0.094820 1.372193 -0.328777
v -1.400663 -0.051659 0.188349
v -0.056899 1.406169 -0.139470
v -1.362741 -0.017684 0.377656
vn -0.602500 0.695100 0.392200
vn -0.501400 0.662100 0.556900
vn -0.381000 0.603800 0.700200
vn -0.246000 0.522200 0.816600
vn -0.101500 0.420500 0.901600
vn 0.046900 0.302700 0.951900
vn 0.193400 0.173300 0.965700
vn 0.332600 0.037200 0.942300
vn 0.459000 -0.100300 0.882800
vn 0.567700 -0.234000 0.789300
vn 0.654600 -0.358700 0.665500
vn 0.716400 -0.469600 0.516100
vn 0.750600 -0.562400 0.346900
vn 0.756000 -0.633600 0.164300
vn 0.732300 -0.680500 -0.024600
vn 0.680500 -0.701300 -0.212500
vn 0.602500 -0.695100 -0.392200
vn 0.501400 -0.662100 -0.556900
vn 0.381000 -0.603800 -0.700200
vn 0.246000 -0.522200 -0.816600
vn 0.101500 -0.420500 -0.901600
vn -0.046900 -0.302700 -0.951900
vn -0.193400 -0.173300 -0.965700
vn -0.332600 -0.037200 -0.942300
vn -0.459000 0.100300 -0.882800
vn -0.567700 0.234000 -0.789300
vn -0.654600 0.358700 -0.665500
vn -0.716400 0.469600 -0.516100
vn -0.750600 0.562400 -0.346900
vn -0.756000 0.633600 -0.164300
vn -0.652900 -0.711900 0.258600
vn -0.680500 0.701300 0.212500
vn -0.732300 0.680500 0.024600
vn 0.652900 0.711900 -0.258600
usemtl None
s off
f 1//1 2//1 4//1 3//1
f 3//2 4//2 6//2 5//2
f 5//3 6//3 8//3 7//3
f 7//4 8//4 10//4 9//4
f 9//5 10//5 12//5 11//5
f 11//6 12//6 14//6 13//6
f 13//7 14//7 16//7 15//7
f 15//8 16//8 18//8 17//8
f 17//9 18//9 20//9 19//9
f 19//10 20//10 22//10 21//10
f 21//11 22//11 24//11 23//11
f 23//12 24//12 26//12 25//12
f 25//13 26//13 28//13 27//13
f 27//14 28//14 30//14 29//14
f 29//15 30//15 32//15 31//15
f 31//16 32//16 34//16 33//16
f 33//17 34//17 36//17 35//17
f 35//18 36//18 38//18 37//18
f 37//19 38//19 40//19 39//19
f 39//20 40//20 42//20 41//20
f 41//21 42//21 44//21 43//21
f 43//22 44//22 46//22 45//22
f 45//23 46//23 48//23 47//23
f 47//24 48//24 50//24 49//24
f 49//25 50//25 52//25 51//25
f 51//26 52//26 54//26 53//26
f 53//27 54//27 56//27 55//27
f 55//28 56//28 58//28 57//28
f 57//29 58//29 60//29 59//29
f 59//30 60//30 62//30 61//30
f 4//31 2//31 64//31 62//31 60//31 58//31 56//31 54//31 52//31 50//31 48//31 46//31 44//31 42//31 40//31 38//31 36//31 34//31 32//31 30//31 28//31 26//31 24//31 22//31 20//31 18//31 16//31 14//31 12//31 10//31 8//31 6//31
f 63//32 64//32 2//32 1//32
f 61//33 62//33 64//33 63//33
f 1//34 3//34 5//34 7//34 9//34 11//34 13//34 15//34 17//34 19//34 21//34 23//34 25//34 27//34 29//34 31//34 33//34 35//34 37//34 39//34 41//34 43//34 45//34 47//34 49//34 51//34 53//34 55//34 57//34 59//34 61//34 63//34
