# Blender v2.76 (sub 0) OBJ File: ''
# www.blender.org
mtllib cil_000051.mtl
o Cylinder
v 0.150335 1.161185 0.793126
v -0.233553 0.807185 -1.137500
v -0.040157 1.140886 0.834725
v -0.424044 0.786886 -1.095900
v -0.221728 1.083545 0.881343
v -0.605616 0.729545 -1.049282
v -0.387403 0.991367 0.931188
v -0.771290 0.637367 -0.999437
v -0.530813 0.867892 0.982344
v -0.914701 0.513892 -0.948281
v -0.646449 0.717867 1.032846
v -1.030336 0.363867 -0.897779
v -0.729865 0.547057 1.080752
v -1.113753 0.193057 -0.849873
v -0.777857 0.362026 1.124222
v -1.161744 0.008026 -0.806403
v -0.788580 0.169884 1.161586
v -1.172467 -0.184116 -0.769040
v -0.761622 -0.021984 1.191406
v -1.145509 -0.375984 -0.739219
v -0.698019 -0.206205 1.212538
v -1.081906 -0.560205 -0.718087
v -0.600215 -0.375700 1.224170
v -0.984102 -0.729701 -0.706456
v -0.471969 -0.523955 1.225853
v -0.855856 -0.877956 -0.704772
v -0.318209 -0.645273 1.217524
v -0.702097 -0.999273 -0.713101
v -0.144844 -0.734992 1.199503
v -0.528732 -1.088992 -0.731122
v 0.041463 -0.789662 1.172482
v -0.342424 -1.143662 -0.758143
v 0.233553 -0.807185 1.137499
v -0.150334 -1.161185 -0.793126
v 0.424045 -0.786886 1.095900
v 0.040157 -1.140886 -0.834725
v 0.605616 -0.729545 1.049282
v 0.221729 -1.083545 -0.881343
v 0.771291 -0.637366 0.999437
v 0.387403 -0.991366 -0.931188
v 0.914701 -0.513892 0.948281
v 0.530814 -0.867892 -0.982344
v 1.030337 -0.363867 0.897779
v 0.646449 -0.717867 -1.032846
v 1.113753 -0.193056 0.849873
v 0.729865 -0.547057 -1.080752
v 1.161745 -0.008025 0.806403
v 0.777857 -0.362025 -1.124223
v 1.172467 0.184117 0.769039
v 0.788580 -0.169883 -1.161586
v 1.145509 0.375985 0.739219
v 0.761621 0.021985 -1.191406
v 1.081906 0.560207 0.718087
v 0.698018 0.206206 -1.212538
v 0.984102 0.729702 0.706456
v 0.600214 0.375701 -1.224170
v 0.855856 0.877956 0.704772
v 0.471968 0.523956 -1.225853
v 0.702095 0.999274 0.713101
v 0.318208 0.645274 -1.217524
v 0.528731 1.088992 0.731122
v 0.144843 0.734992 -1.199503
v 0.342423 1.143663 0.758144
v -0.041464 0.789663 -1.172482
vn -0.137500 0.978700 -0.152100
vn -0.324400 0.939700 -0.107800
vn -0.498900 0.864600 -0.059300
vn -0.654200 0.756300 -0.008600
vn -0.784400 0.618900 0.042500
vn -0.884400 0.457700 0.091900
vn -0.950400 0.278900 0.137800
vn -0.979900 0.089400 0.178500
vn -0.971700 -0.103500 0.212200
vn -0.926200 -0.292500 0.237800
vn -0.845100 -0.470200 0.254300
vn -0.731600 -0.629900 0.261000
vn -0.589900 -0.765300 0.257600
vn -0.425500 -0.871300 0.244400
vn -0.244800 -0.943900 0.221700
vn -0.054700 -0.980100 0.190600
vn 0.137500 -0.978700 0.152100
vn 0.324400 -0.939700 0.107800
vn 0.498900 -0.864600 0.059300
vn 0.654200 -0.756300 0.008600
vn 0.784400 -0.618900 -0.042500
vn 0.884400 -0.457700 -0.091900
vn 0.950400 -0.278900 -0.137800
vn 0.979900 -0.089400 -0.178500
vn 0.971700 0.103500 -0.212200
vn 0.926200 0.292500 -0.237800
vn 0.845100 0.470200 -0.254300
vn 0.731600 0.629900 -0.261000
vn 0.589900 0.765300 -0.257600
vn 0.425500 0.871300 -0.244400
vn -0.191900 -0.177000 -0.965300
vn 0.054700 0.980100 -0.190600
vn 0.244800 0.943900 -0.221700
vn 0.191900 0.177000 0.965300
usemtl None
s off
f 1//1 2//1 4//1 3//1
f 3//2 4//2 6//2 5//2
f 5//3 6//3 8//3 7//3
f 7//4 8//4 10//4 9//4
f 9//5 10//5 12//5 11//5
f 11//6 12//6 14//6 13//6
f 13//7 14//7 16//7 15//7
f 15//8 16//8 18//8 17//8
f 17//9 18//9 20//9 19//9
f 19//10 20//10 22//10 21//10
f 21//11 22//11 24//11 23//11
f 23//12 24//12 26//12 25//12
f 25//13 26//13 28//13 27//13
f 27//14 28//14 30//14 29//14
f 29//15 30//15 32//15 31//15
f 31//16 32//16 34//16 33//16
f 33//17 34//17 36//17 35//17
f 35//18 36//18 38//18 37//18
f 37//19 38//19 40//19 39//19
f 39//20 40//20 42//20 41//20
f 41//21 42//21 44//21 43//21
f 43//22 44//22 46//22 45//22
f 45//23 46//23 48//23 47//23
f 47//24 48//24 50//24 49//24
f 49//25 50//25 52//25 51//25
f 51//26 52//26 54//26 53//26
f 53//27 54//27 56//27 55//27
f 55//28 56//28 58//28 57//28
f 57//29 58//29 60//29 59//29
f 59//30 60//30 62//30 61//30
f 4//31 2//31 64//31 62//31 60//31 58//31 56//31 54//31 52//31 50//31 48//31 46//31 44//31 42//31 40//31 38//31 36//31 34//31 32//31 30//31 28//31 26//31 24//31 22//31 20//31 18//31 16//31 14//31 12//31 10//31 8//31 6//31
f 63//32 64//32 2//32 1//32
f 61//33 62//33 64//33 63//33
f 1//34 3//34 5//34 7//34 9//34 11//34 13//34 15//34 17//34 19//34 21//34 23//34 25//34 27//34 29//34 31//34 33//34 35//34 37//34 39//34 41//34 43//34 45//34 47//34 49//34 51//34 53//34 55//34 57//34 59//34 61//34 63//34
