# Blender v2.76 (sub 0) OBJ File: ''
# www.blender.org
mtllib cil_000032.mtl
o Cylinder
v -0.156954 1.405183 0.028739
v -1.391799 -0.151370 -0.199953
v -0.169058 1.386174 0.223474
v -1.403903 -0.170379 -0.005218
v -0.150937 1.343804 0.414015
v -1.385782 -0.212749 0.185323
v -0.103289 1.279701 0.593040
v -1.338135 -0.276852 0.364348
v -0.027945 1.196329 0.753669
v -1.262790 -0.360224 0.524977
v 0.072201 1.096891 0.889729
v -1.162644 -0.459662 0.661037
v 0.193299 0.985209 0.995991
v -1.041546 -0.571344 0.767299
v 0.330697 0.865574 1.068373
v -0.904149 -0.690979 0.839681
v 0.479112 0.742585 1.104092
v -0.755733 -0.813968 0.875400
v 0.632843 0.620968 1.101775
v -0.602002 -0.935585 0.873083
v 0.785982 0.505395 1.061512
v -0.448863 -1.051158 0.832820
v 0.932643 0.400310 0.984850
v -0.302202 -1.156243 0.756158
v 1.067190 0.309749 0.874735
v -0.167655 -1.246804 0.646043
v 1.184453 0.237194 0.735399
v -0.050393 -1.319359 0.506707
v 1.279925 0.185432 0.572196
v 0.045080 -1.371121 0.343503
v 1.349937 0.156453 0.391398
v 0.115092 -1.400100 0.162705
v 1.391800 0.151370 0.199953
v 0.156955 -1.405183 -0.028740
v 1.403903 0.170379 0.005218
v 0.169058 -1.386174 -0.223474
v 1.385782 0.212749 -0.185323
v 0.150937 -1.343804 -0.414015
v 1.338134 0.276852 -0.364348
v 0.103289 -1.279701 -0.593040
v 1.262789 0.360225 -0.524977
v 0.027944 -1.196328 -0.753669
v 1.162644 0.459663 -0.661037
v -0.072201 -1.096890 -0.889729
v 1.041545 0.571345 -0.767300
v -0.193300 -0.985208 -0.995992
v 0.904148 0.690979 -0.839681
v -0.330697 -0.865574 -1.068373
v 0.755732 0.813969 -0.875400
v -0.479113 -0.742585 -1.104092
v 0.602001 0.935586 -0.873083
v -0.632844 -0.620967 -1.101775
v 0.448862 1.051158 -0.832820
v -0.785983 -0.505395 -1.061512
v 0.302201 1.156244 -0.756157
v -0.932644 -0.400309 -0.984850
v 0.167654 1.246804 -0.646042
v -1.067191 -0.309749 -0.874734
v 0.050392 1.319360 -0.506706
v -1.184453 -0.237193 -0.735398
v -0.045080 1.371121 -0.343502
v -1.279925 -0.185432 -0.572194
v -0.115093 1.400100 -0.162704
v -1.349938 -0.156453 -0.391396
vn -0.784200 0.620400 0.011800
vn -0.781200 0.589600 0.205400
vn -0.748100 0.536100 0.391100
vn -0.686300 0.462000 0.561700
vn -0.598200 0.370100 0.710800
vn -0.487000 0.264000 0.832500
vn -0.357100 0.147800 0.922300
vn -0.213500 0.025900 0.976600
vn -0.061700 -0.097000 0.993400
vn 0.092400 -0.216100 0.972000
vn 0.243100 -0.327000 0.913200
vn 0.384300 -0.425300 0.819400
vn 0.510900 -0.507200 0.694100
vn 0.617700 -0.569700 0.542100
vn 0.700900 -0.610300 0.369200
vn 0.757100 -0.627400 0.182200
vn 0.784200 -0.620400 -0.011800
vn 0.781200 -0.589600 -0.205400
vn 0.748100 -0.536100 -0.391100
vn 0.686300 -0.462000 -0.561700
vn 0.598200 -0.370100 -0.710800
vn 0.487000 -0.264000 -0.832500
vn 0.357100 -0.147800 -0.922300
vn 0.213500 -0.025900 -0.976600
vn 0.061700 0.097000 -0.993400
vn -0.092400 0.216100 -0.972000
vn -0.243100 0.327000 -0.913200
vn -0.384300 0.425300 -0.819400
vn -0.510900 0.507200 -0.694100
vn -0.617700 0.569700 -0.542100
vn -0.617400 -0.778300 -0.114300
vn -0.757100 0.627400 -0.182200
vn -0.700900 0.610300 -0.369200
vn 0.617400 0.778300 0.114300
usemtl None
s off
f 1//1 2//1 4//1 3//1
f 3//2 4//2 6//2 5//2
f 5//3 6//3 8//3 7//3
f 7//4 8//4 10//4 9//4
f 9//5 10//5 12//5 11//5
f 11//6 12//6 14//6 13//6
f 13//7 14//7 16//7 15//7
f 15//8 16//8 18//8 17//8
f 17//9 18//9 20//9 19//9
f 19//10 20//10 22//10 21//10
f 21//11 22//11 24//11 23//11
f 23//12 24//12 26//12 25//12
f 25//13 26//13 28//13 27//13
f 27//14 28//14 30//14 29//14
f 29//15 30//15 32//15 31//15
f 31//16 32//16 34//16 33//16
f 33//17 34//17 36//17 35//17
f 35//18 36//18 38//18 37//18
f 37//19 38//19 40//19 39//19
f 39//20 40//20 42//20 41//20
f 41//21 42//21 44//21 43//21
f 43//22 44//22 46//22 45//22
f 45//23 46//23 48//23 47//23
f 47//24 48//24 50//24 49//24
f 49//25 50//25 52//25 51//25
f 51//26 52//26 54//26 53//26
f 53//27 54//27 56//27 55//27
f 55//28 56//28 58//28 57//28
f 57//29 58//29 60//29 59//29
f 59//30 60//30 62//30 61//30
f 4//31 2//31 64//31 62//31 60//31 58//31 56//31 54//31 52//31 50//31 48//31 46//31 44//31 42//31 40//31 38//31 36//31 34//31 32//31 30//31 28//31 26//31 24//31 22//31 20//31 18//31 16//31 14//31 12//31 10//31 8//31 6//31
f 63//32 64//32 2//32 1//32
f 61//33 62//33 64//33 63//33
f 1//34 3//34 5//34 7//34 9//34 11//34 13//34 15//34 17//34 19//34 21//34 23//34 25//34 27//34 29//34 31//34 33//34 35//34 37//34 39//34 41//34 43//34 45//34 47//34 49//34 51//34 53//34 55//34 57//34 59//34 61//34 63//34
