# Blender v2.76 (sub 0) OBJ File: ''
# www.blender.org
mtllib cil_000008.mtl
o Cylinder
v 0.145274 1.131020 -0.836474
v -0.180389 0.848958 1.116571
v 0.338067 1.110894 -0.807233
v 0.012404 0.828832 1.145812
v 0.524126 1.053496 -0.784498
v 0.198464 0.771434 1.168547
v 0.696301 0.961033 -0.769142
v 0.370639 0.678971 1.183903
v 0.847975 0.837058 -0.761756
v 0.522313 0.554996 1.191289
v 0.973320 0.686334 -0.762623
v 0.647657 0.404272 1.190422
v 1.067517 0.514655 -0.771710
v 0.741855 0.232593 1.181335
v 1.126948 0.328618 -0.788668
v 0.801286 0.046556 1.164377
v 1.149329 0.135372 -0.812845
v 0.823666 -0.146690 1.140200
v 1.133799 -0.057656 -0.843312
v 0.808137 -0.339718 1.109733
v 1.080956 -0.243049 -0.878898
v 0.755293 -0.525111 1.074147
v 0.992829 -0.413682 -0.918236
v 0.667166 -0.695744 1.034809
v 0.872806 -0.562998 -0.959814
v 0.547143 -0.845060 0.993231
v 0.725499 -0.685259 -1.002034
v 0.399836 -0.967321 0.951011
v 0.556569 -0.775765 -1.043274
v 0.230906 -1.057827 0.909771
v 0.372508 -0.831040 -1.081948
v 0.046845 -1.113102 0.871097
v 0.180389 -0.848958 -1.116571
v -0.145274 -1.131020 0.836474
v -0.012405 -0.828832 -1.145812
v -0.338067 -1.110894 0.807233
v -0.198464 -0.771434 -1.168547
v -0.524127 -1.053496 0.784498
v -0.370639 -0.678971 -1.183903
v -0.696302 -0.961033 0.769142
v -0.522313 -0.554995 -1.191289
v -0.847976 -0.837057 0.761756
v -0.647657 -0.404272 -1.190422
v -0.973320 -0.686334 0.762623
v -0.741855 -0.232593 -1.181335
v -1.067518 -0.514655 0.771710
v -0.801286 -0.046555 -1.164377
v -1.126949 -0.328617 0.788668
v -0.823666 0.146691 -1.140200
v -1.149329 -0.135371 0.812845
v -0.808136 0.339719 -1.109733
v -1.133799 0.057657 0.843312
v -0.755292 0.525112 -1.074146
v -1.080955 0.243050 0.878899
v -0.667166 0.695745 -1.034808
v -0.992828 0.413683 0.918237
v -0.547142 0.845061 -0.993231
v -0.872805 0.562999 0.959814
v -0.399835 0.967321 -0.951011
v -0.725498 0.685259 1.002034
v -0.230905 1.057828 -0.909771
v -0.556568 0.775766 1.043274
v -0.046844 1.113102 -0.871097
v -0.372506 0.831040 1.081948
vn 0.079200 0.984700 0.155400
vn 0.269600 0.945700 0.181500
vn 0.449500 0.870400 0.200700
vn 0.612300 0.761700 0.212100
vn 0.751400 0.623700 0.215400
vn 0.861700 0.461700 0.210400
vn 0.938900 0.282000 0.197300
vn 0.980000 0.091400 0.176600
vn 0.983500 -0.102700 0.149200
vn 0.949100 -0.292800 0.116000
vn 0.878300 -0.471700 0.078300
vn 0.773700 -0.632400 0.037700
vn 0.639400 -0.768900 -0.004400
vn 0.480500 -0.875800 -0.046400
vn 0.303200 -0.949000 -0.086500
vn 0.114200 -0.985800 -0.123300
vn -0.079200 -0.984700 -0.155400
vn -0.269600 -0.945700 -0.181500
vn -0.449500 -0.870400 -0.200700
vn -0.612300 -0.761700 -0.212100
vn -0.751400 -0.623700 -0.215400
vn -0.861700 -0.461700 -0.210400
vn -0.938900 -0.282000 -0.197300
vn -0.980000 -0.091400 -0.176600
vn -0.983500 0.102700 -0.149200
vn -0.949100 0.292800 -0.116000
vn -0.878300 0.471700 -0.078300
vn -0.773700 0.632400 -0.037700
vn -0.639400 0.768900 0.004400
vn -0.480500 0.875800 0.046400
vn -0.162800 -0.141000 0.976500
vn -0.114200 0.985800 0.123300
vn -0.303200 0.949000 0.086500
vn 0.162800 0.141000 -0.976500
usemtl None
s off
f 1//1 2//1 4//1 3//1
f 3//2 4//2 6//2 5//2
f 5//3 6//3 8//3 7//3
f 7//4 8//4 10//4 9//4
f 9//5 10//5 12//5 11//5
f 11//6 12//6 14//6 13//6
f 13//7 14//7 16//7 15//7
f 15//8 16//8 18//8 17//8
f 17//9 18//9 20//9 19//9
f 19//10 20//10 22//10 21//10
f 21//11 22//11 24//11 23//11
f 23//12 24//12 26//12 25//12
f 25//13 26//13 28//13 27//13
f 27//14 28//14 30//14 29//14
f 29//15 30//15 32//15 31//15
f 31//16 32//16 34//16 33//16
f 33//17 34//17 36//17 35//17
f 35//18 36//18 38//18 37//18
f 37//19 38//19 40//19 39//19
f 39//20 40//20 42//20 41//20
f 41//21 42//21 44//21 43//21
f 43//22 44//22 46//22 45//22
f 45//23 46//23 48//23 47//23
f 47//24 48//24 50//24 49//24
f 49//25 50//25 52//25 51//25
f 51//26 52//26 54//26 53//26
f 53//27 54//27 56//27 55//27
f 55//28 56//28 58//28 57//28
f 57//29 58//29 60//29 59//29
f 59//30 60//30 62//30 61//30
f 4//31 2//31 64//31 62//31 60//31 58//31 56//31 54//31 52//31 50//31 48//31 46//31 44//31 42//31 40//31 38//31 36//31 34//31 32//31 30//31 28//31 26//31 24//31 22//31 20//31 18//31 16//31 14//31 12//31 10//31 8//31 6//31
f 63//32 64//32 2//32 1//32
f 61//33 62//33 64//33 63//33
f 1//34 3//34 5//34 7//34 9//34 11//34 13//34 15//34 17//34 19//34 21//34 23//34 25//34 27//34 29//34 31//34 33//34 35//34 37//34 39//34 41//34 43//34 45//34 47//34 49//34 51//34 53//34 55//34 57//34 59//34 61//34 63//34
