# Blender v2.76 (sub 0) OBJ File: ''
# www.blender.org
mtllib cil_000001.mtl
o Cylinder
v 0.002507 1.002200 -0.997792
v -0.002341 0.997795 1.002198
v 0.197595 0.982969 -0.997361
v 0.192747 0.978563 1.002628
v 0.385183 0.926046 -0.997032
v 0.380335 0.921641 1.002958
v 0.558062 0.833622 -0.996816
v 0.553213 0.829216 1.003173
v 0.709587 0.709246 -0.996723
v 0.704739 0.704840 1.003266
v 0.833937 0.557698 -0.996755
v 0.829089 0.553293 1.003234
v 0.926333 0.384804 -0.996912
v 0.921484 0.380398 1.003077
v 0.983223 0.197206 -0.997187
v 0.978374 0.192801 1.002802
v 1.002421 0.002115 -0.997571
v 0.997573 -0.002291 1.002419
v 0.983190 -0.192973 -0.998047
v 0.978342 -0.197379 1.001942
v 0.926269 -0.380561 -0.998598
v 0.921421 -0.384967 1.001391
v 0.833845 -0.553439 -0.999203
v 0.828997 -0.557845 1.000786
v 0.709470 -0.704964 -0.999838
v 0.704622 -0.709370 1.000151
v 0.557924 -0.829314 -1.000480
v 0.553076 -0.833719 0.999510
v 0.385030 -0.921708 -1.001102
v 0.380181 -0.926114 0.998887
v 0.197433 -0.978597 -1.001683
v 0.192584 -0.983003 0.998307
v 0.002341 -0.997795 -1.002198
v -0.002507 -1.002200 0.997792
v -0.192747 -0.978563 -1.002628
v -0.197596 -0.982969 0.997361
v -0.380335 -0.921640 -1.002958
v -0.385183 -0.926046 0.997032
v -0.553214 -0.829215 -1.003173
v -0.558062 -0.833621 0.996816
v -0.704740 -0.704839 -1.003266
v -0.709588 -0.709245 0.996723
v -0.829089 -0.553292 -1.003234
v -0.833938 -0.557698 0.996755
v -0.921485 -0.380397 -1.003077
v -0.926333 -0.384803 0.996912
v -0.978375 -0.192800 -1.002802
v -0.983223 -0.197205 0.997187
v -0.997573 0.002292 -1.002419
v -1.002421 -0.002114 0.997571
v -0.978342 0.197380 -1.001942
v -0.983190 0.192974 0.998047
v -0.921421 0.384968 -1.001391
v -0.926269 0.380562 0.998598
v -0.828996 0.557846 -1.000786
v -0.833845 0.553440 0.999203
v -0.704621 0.709371 -1.000151
v -0.709469 0.704965 0.999838
v -0.553075 0.833720 -0.999510
v -0.557923 0.829314 1.000480
v -0.380180 0.926114 -0.998887
v -0.385029 0.921709 1.001102
v -0.192583 0.983003 -0.998307
v -0.197431 0.978597 1.001683
vn 0.098100 0.995200 0.002400
vn 0.290400 0.956900 0.002800
vn 0.471500 0.881900 0.003100
vn 0.634500 0.773000 0.003200
vn 0.773100 0.634300 0.003300
vn 0.882000 0.471300 0.003200
vn 0.957000 0.290200 0.003000
vn 0.995200 0.097900 0.002600
vn 0.995200 -0.098100 0.002200
vn 0.956900 -0.290400 0.001700
vn 0.881900 -0.471500 0.001100
vn 0.773000 -0.634500 0.000500
vn 0.634300 -0.773100 -0.000200
vn 0.471300 -0.882000 -0.000800
vn 0.290200 -0.957000 -0.001400
vn 0.097900 -0.995200 -0.002000
vn -0.098100 -0.995200 -0.002400
vn -0.290400 -0.956900 -0.002800
vn -0.471500 -0.881900 -0.003100
vn -0.634500 -0.773000 -0.003200
vn -0.773100 -0.634300 -0.003300
vn -0.882000 -0.471300 -0.003200
vn -0.957000 -0.290200 -0.003000
vn -0.995200 -0.097900 -0.002600
vn -0.995200 0.098100 -0.002200
vn -0.956900 0.290400 -0.001700
vn -0.881900 0.471500 -0.001100
vn -0.773000 0.634500 -0.000500
vn -0.634300 0.773100 0.000200
vn -0.471300 0.882000 0.000800
vn -0.002400 -0.002200 1.000000
vn -0.097900 0.995200 0.002000
vn -0.290200 0.957000 0.001400
vn 0.002400 0.002200 -1.000000
usemtl None
s off
f 1//1 2//1 4//1 3//1
f 3//2 4//2 6//2 5//2
f 5//3 6//3 8//3 7//3
f 7//4 8//4 10//4 9//4
f 9//5 10//5 12//5 11//5
f 11//6 12//6 14//6 13//6
f 13//7 14//7 16//7 15//7
f 15//8 16//8 18//8 17//8
f 17//9 18//9 20//9 19//9
f 19//10 20//10 22//10 21//10
f 21//11 22//11 24//11 23//11
f 23//12 24//12 26//12 25//12
f 25//13 26//13 28//13 27//13
f 27//14 28//14 30//14 29//14
f 29//15 30//15 32//15 31//15
f 31//16 32//16 34//16 33//16
f 33//17 34//17 36//17 35//17
f 35//18 36//18 38//18 37//18
f 37//19 38//19 40//19 39//19
f 39//20 40//20 42//20 41//20
f 41//21 42//21 44//21 43//21
f 43//22 44//22 46//22 45//22
f 45//23 46//23 48//23 47//23
f 47//24 48//24 50//24 49//24
f 49//25 50//25 52//25 51//25
f 51//26 52//26 54//26 53//26
f 53//27 54//27 56//27 55//27
f 55//28 56//28 58//28 57//28
f 57//29 58//29 60//29 59//29
f 59//30 60//30 62//30 61//30
f 4//31 2//31 64//31 62//31 60//31 58//31 56//31 54//31 52//31 50//31 48//31 46//31 44//31 42//31 40//31 38//31 36//31 34//31 32//31 30//31 28//31 26//31 24//31 22//31 20//31 18//31 16//31 14//31 12//31 10//31 8//31 6//31
f 63//32 64//32 2//32 1//32
f 61//33 62//33 64//33 63//33
f 1//34 3//34 5//34 7//34 9//34 11//34 13//34 15//34 17//34 19//34 21//34 23//34 25//34 27//34 29//34 31//34 33//34 35//34 37//34 39//34 41//34 43//34 45//34 47//34 49//34 51//34 53//34 55//34 57//34 59//34 61//34 63//34
