# Blender v2.76 (sub 0) OBJ File: ''
# www.blender.org
mtllib cil_000015.mtl
o Cylinder
v 0.270777 1.335558 -0.378106
v -0.713416 0.464365 1.129337
v 0.439283 1.314749 -0.280117
v -0.544910 0.443556 1.227327
v 0.609819 1.260154 -0.200327
v -0.374374 0.388961 1.307116
v 0.775831 1.173873 -0.141804
v -0.208362 0.302680 1.365639
v 0.930940 1.059219 -0.106797
v -0.053254 0.188026 1.400646
v 1.069183 0.920601 -0.096651
v 0.084990 0.049407 1.410793
v 1.185250 0.763344 -0.111756
v 0.201057 -0.107850 1.395688
v 1.274679 0.593491 -0.151531
v 0.290486 -0.277702 1.355913
v 1.334034 0.417571 -0.214448
v 0.349841 -0.453622 1.292996
v 1.361034 0.242344 -0.298088
v 0.376840 -0.628849 1.209355
v 1.354641 0.074543 -0.399239
v 0.370447 -0.796650 1.108204
v 1.315101 -0.079383 -0.514012
v 0.330907 -0.950576 0.993431
v 1.243933 -0.213518 -0.637998
v 0.259740 -1.084711 0.869446
v 1.143873 -0.322708 -0.766430
v 0.159679 -1.193902 0.741014
v 1.018765 -0.402757 -0.894374
v 0.034572 -1.273951 0.613070
v 0.873417 -0.450589 -1.016913
v -0.110776 -1.321782 0.490531
v 0.713416 -0.464365 -1.129337
v -0.270777 -1.335558 0.378106
v 0.544910 -0.443556 -1.227327
v -0.439284 -1.314749 0.280116
v 0.374374 -0.388961 -1.307117
v -0.609820 -1.260154 0.200327
v 0.208362 -0.302679 -1.365639
v -0.775832 -1.173872 0.141804
v 0.053253 -0.188026 -1.400646
v -0.930940 -1.059219 0.106797
v -0.084990 -0.049407 -1.410793
v -1.069184 -0.920600 0.096651
v -0.201057 0.107850 -1.395688
v -1.185250 -0.763343 0.111756
v -0.290486 0.277703 -1.355913
v -1.274679 -0.593490 0.151531
v -0.349841 0.453623 -1.292996
v -1.334034 -0.417570 0.214448
v -0.376841 0.628850 -1.209355
v -1.361034 -0.242343 0.298089
v -0.370447 0.796651 -1.108204
v -1.354640 -0.074542 0.399240
v -0.330907 0.950577 -0.993430
v -1.315100 0.079384 0.514013
v -0.259739 1.084712 -0.869445
v -1.243932 0.213519 0.637998
v -0.159679 1.193902 -0.741013
v -1.143872 0.322709 0.766431
v -0.034571 1.273951 -0.613069
v -1.018764 0.402758 0.894375
v 0.110777 1.321782 -0.490530
v -0.873416 0.450589 1.016914
vn -0.137700 0.893900 0.426700
vn 0.032600 0.856000 0.516000
vn 0.201700 0.785200 0.585500
vn 0.363000 0.684200 0.632500
vn 0.510400 0.557000 0.655200
vn 0.638200 0.408300 0.652700
vn 0.741400 0.244000 0.625100
vn 0.816200 0.070300 0.573500
vn 0.859600 -0.106100 0.499900
vn 0.869900 -0.278500 0.407000
vn 0.846900 -0.440100 0.298500
vn 0.791200 -0.584900 0.178600
vn 0.705200 -0.707100 0.051800
vn 0.592100 -0.802200 -0.077100
vn 0.456200 -0.866400 -0.202900
vn 0.302800 -0.897400 -0.320900
vn 0.137700 -0.893900 -0.426700
vn -0.032600 -0.856000 -0.516000
vn -0.201700 -0.785200 -0.585500
vn -0.363000 -0.684200 -0.632500
vn -0.510400 -0.557000 -0.655200
vn -0.638200 -0.408300 -0.652700
vn -0.741400 -0.244000 -0.625100
vn -0.816200 -0.070300 -0.573500
vn -0.859600 0.106200 -0.499900
vn -0.869900 0.278500 -0.407000
vn -0.846900 0.440100 -0.298500
vn -0.791200 0.584900 -0.178600
vn -0.705200 0.707100 -0.051800
vn -0.592100 0.802200 0.077100
vn -0.492100 -0.435600 0.753700
vn -0.302800 0.897400 0.320900
vn -0.456200 0.866400 0.202900
vn 0.492100 0.435600 -0.753700
usemtl None
s off
f 1//1 2//1 4//1 3//1
f 3//2 4//2 6//2 5//2
f 5//3 6//3 8//3 7//3
f 7//4 8//4 10//4 9//4
f 9//5 10//5 12//5 11//5
f 11//6 12//6 14//6 13//6
f 13//7 14//7 16//7 15//7
f 15//8 16//8 18//8 17//8
f 17//9 18//9 20//9 19//9
f 19//10 20//10 22//10 21//10
f 21//11 22//11 24//11 23//11
f 23//12 24//12 26//12 25//12
f 25//13 26//13 28//13 27//13
f 27//14 28//14 30//14 29//14
f 29//15 30//15 32//15 31//15
f 31//16 32//16 34//16 33//16
f 33//17 34//17 36//17 35//17
f 35//18 36//18 38//18 37//18
f 37//19 38//19 40//19 39//19
f 39//20 40//20 42//20 41//20
f 41//21 42//21 44//21 43//21
f 43//22 44//22 46//22 45//22
f 45//23 46//23 48//23 47//23
f 47//24 48//24 50//24 49//24
f 49//25 50//25 52//25 51//25
f 51//26 52//26 54//26 53//26
f 53//27 54//27 56//27 55//27
f 55//28 56//28 58//28 57//28
f 57//29 58//29 60//29 59//29
f 59//30 60//30 62//30 61//30
f 4//31 2//31 64//31 62//31 60//31 58//31 56//31 54//31 52//31 50//31 48//31 46//31 44//31 42//31 40//31 38//31 36//31 34//31 32//31 30//31 28//31 26//31 24//31 22//31 20//31 18//31 16//31 14//31 12//31 10//31 8//31 6//31
f 63//32 64//32 2//32 1//32
f 61//33 62//33 64//33 63//33
f 1//34 3//34 5//34 7//34 9//34 11//34 13//34 15//34 17//34 19//34 21//34 23//34 25//34 27//34 29//34 31//34 33//34 35//34 37//34 39//34 41//34 43//34 45//34 47//34 49//34 51//34 53//34 55//34 57//34 59//34 61//34 63//34
