# Blender v2.76 (sub 0) OBJ File: ''
# www.blender.org
mtllib cil_000009.mtl
o Cylinder
v 0.175416 1.161185 -0.787958
v -0.235099 0.807185 1.137181
v 0.366837 1.140886 -0.750872
v -0.043678 0.786886 1.174267
v 0.552049 1.083545 -0.721922
v 0.141534 0.729545 1.203217
v 0.723933 0.991367 -0.702220
v 0.313419 0.637367 1.222920
v 0.875886 0.867892 -0.692522
v 0.465371 0.513892 1.232617
v 1.002066 0.717867 -0.693203
v 0.591551 0.363867 1.231937
v 1.097625 0.547057 -0.704235
v 0.687111 0.193057 1.220904
v 1.158892 0.362026 -0.725195
v 0.748377 0.008026 1.199945
v 1.183510 0.169884 -0.755276
v 0.772996 -0.184116 1.169863
v 1.170535 -0.021984 -0.793324
v 0.760020 -0.375984 1.131815
v 1.120465 -0.206205 -0.837877
v 0.709950 -0.560205 1.087263
v 1.035224 -0.375700 -0.887221
v 0.624709 -0.729701 1.037919
v 0.918088 -0.523955 -0.939460
v 0.507573 -0.877956 0.985679
v 0.773558 -0.645273 -0.992588
v 0.363043 -0.999273 0.932552
v 0.607188 -0.734992 -1.044562
v 0.196674 -1.088992 0.880577
v 0.425373 -0.789662 -1.093385
v 0.014858 -1.143662 0.831754
v 0.235099 -0.807185 -1.137181
v -0.175416 -1.161185 0.787958
v 0.043677 -0.786886 -1.174267
v -0.366837 -1.140886 0.750872
v -0.141534 -0.729545 -1.203217
v -0.552049 -1.083545 0.721922
v -0.313419 -0.637366 -1.222920
v -0.723934 -0.991366 0.702220
v -0.465371 -0.513892 -1.232617
v -0.875886 -0.867892 0.692522
v -0.591552 -0.363867 -1.231937
v -1.002066 -0.717867 0.693203
v -0.687111 -0.193056 -1.220904
v -1.097626 -0.547057 0.704235
v -0.748377 -0.008025 -1.199945
v -1.158892 -0.362025 0.725195
v -0.772996 0.184117 -1.169863
v -1.183510 -0.169883 0.755277
v -0.760020 0.375985 -1.131815
v -1.170535 0.021985 0.793325
v -0.709950 0.560207 -1.087263
v -1.120465 0.206206 0.837877
v -0.624709 0.729702 -1.037918
v -1.035223 0.375701 0.887221
v -0.507572 0.877956 -0.985679
v -0.918087 0.523956 0.939460
v -0.363042 0.999274 -0.932551
v -0.773557 0.645274 0.992588
v -0.196672 1.088992 -0.880577
v -0.607187 0.734992 1.044562
v -0.014857 1.143663 -0.831754
v -0.425372 0.789663 1.093385
vn 0.066200 0.978700 0.194100
vn 0.255400 0.939700 0.227300
vn 0.434800 0.864600 0.251700
vn 0.597500 0.756300 0.266500
vn 0.737300 0.618900 0.271000
vn 0.848700 0.457700 0.265100
vn 0.927500 0.278900 0.249100
vn 0.970600 0.089400 0.223400
vn 0.976500 -0.103500 0.189200
vn 0.944800 -0.292500 0.147700
vn 0.876800 -0.470200 0.100500
vn 0.775100 -0.629900 0.049500
vn 0.643700 -0.765300 -0.003500
vn 0.487500 -0.871300 -0.056300
vn 0.312500 -0.943900 -0.106900
vn 0.125600 -0.980100 -0.153500
vn -0.066200 -0.978700 -0.194100
vn -0.255400 -0.939700 -0.227300
vn -0.434800 -0.864600 -0.251700
vn -0.597500 -0.756300 -0.266500
vn -0.737300 -0.618900 -0.271000
vn -0.848700 -0.457700 -0.265100
vn -0.927500 -0.278900 -0.249100
vn -0.970600 -0.089400 -0.223400
vn -0.976500 0.103500 -0.189200
vn -0.944800 0.292500 -0.147700
vn -0.876800 0.470200 -0.100500
vn -0.775100 0.629900 -0.049500
vn -0.643700 0.765300 0.003500
vn -0.487500 0.871300 0.056300
vn -0.205300 -0.177000 0.962600
vn -0.125600 0.980100 0.153500
vn -0.312500 0.943900 0.106900
vn 0.205300 0.177000 -0.962600
usemtl None
s off
f 1//1 2//1 4//1 3//1
f 3//2 4//2 6//2 5//2
f 5//3 6//3 8//3 7//3
f 7//4 8//4 10//4 9//4
f 9//5 10//5 12//5 11//5
f 11//6 12//6 14//6 13//6
f 13//7 14//7 16//7 15//7
f 15//8 16//8 18//8 17//8
f 17//9 18//9 20//9 19//9
f 19//10 20//10 22//10 21//10
f 21//11 22//11 24//11 23//11
f 23//12 24//12 26//12 25//12
f 25//13 26//13 28//13 27//13
f 27//14 28//14 30//14 29//14
f 29//15 30//15 32//15 31//15
f 31//16 32//16 34//16 33//16
f 33//17 34//17 36//17 35//17
f 35//18 36//18 38//18 37//18
f 37//19 38//19 40//19 39//19
f 39//20 40//20 42//20 41//20
f 41//21 42//21 44//21 43//21
f 43//22 44//22 46//22 45//22
f 45//23 46//23 48//23 47//23
f 47//24 48//24 50//24 49//24
f 49//25 50//25 52//25 51//25
f 51//26 52//26 54//26 53//26
f 53//27 54//27 56//27 55//27
f 55//28 56//28 58//28 57//28
f 57//29 58//29 60//29 59//29
f 59//30 60//30 62//30 61//30
f 4//31 2//31 64//31 62//31 60//31 58//31 56//31 54//31 52//31 50//31 48//31 46//31 44//31 42//31 40//31 38//31 36//31 34//31 32//31 30//31 28//31 26//31 24//31 22//31 20//31 18//31 16//31 14//31 12//31 10//31 8//31 6//31
f 63//32 64//32 2//32 1//32
f 61//33 62//33 64//33 63//33
f 1//34 3//34 5//34 7//34 9//34 11//34 13//34 15//34 17//34 19//34 21//34 23//34 25//34 27//34 29//34 31//34 33//34 35//34 37//34 39//34 41//34 43//34 45//34 47//34 49//34 51//34 53//34 55//34 57//34 59//34 61//34 63//34
