# Blender v2.76 (sub 0) OBJ File: ''
# www.blender.org
mtllib cil_000011.mtl
o Cylinder
v 0.229992 1.223815 -0.670358
v -0.369252 0.708562 1.166873
v 0.416961 1.203217 -0.615152
v -0.182283 0.687964 1.222080
v 0.599421 1.146281 -0.571608
v 0.000177 0.631027 1.265624
v 0.770360 1.055194 -0.541399
v 0.171116 0.539940 1.295833
v 0.923208 0.933457 -0.525686
v 0.323964 0.418203 1.311546
v 1.052092 0.785748 -0.525073
v 0.452849 0.270495 1.312159
v 1.152060 0.617744 -0.539584
v 0.552816 0.102491 1.297648
v 1.219268 0.435901 -0.568661
v 0.620025 -0.079353 1.268571
v 1.251136 0.247206 -0.611186
v 0.651892 -0.268047 1.226046
v 1.246437 0.058913 -0.665526
v 0.647193 -0.456341 1.171706
v 1.205352 -0.121745 -0.729592
v 0.606108 -0.636998 1.107640
v 1.129461 -0.287823 -0.800922
v 0.530217 -0.803076 1.036310
v 1.021679 -0.432940 -0.876775
v 0.422436 -0.948193 0.960457
v 0.886150 -0.551519 -0.954236
v 0.286906 -1.066772 0.882996
v 0.728080 -0.639003 -1.030328
v 0.128836 -1.154256 0.806904
v 0.553545 -0.692030 -1.102127
v -0.045699 -1.207283 0.735105
v 0.369251 -0.708562 -1.166873
v -0.229992 -1.223815 0.670358
v 0.182282 -0.687964 -1.222080
v -0.416961 -1.203217 0.615152
v -0.000178 -0.631027 -1.265624
v -0.599421 -1.146281 0.571608
v -0.171116 -0.539940 -1.295833
v -0.770360 -1.055193 0.541399
v -0.323965 -0.418203 -1.311546
v -0.923208 -0.933456 0.525686
v -0.452849 -0.270494 -1.312159
v -1.052093 -0.785748 0.525073
v -0.552816 -0.102490 -1.297648
v -1.152060 -0.617743 0.539584
v -0.620025 0.079354 -1.268571
v -1.219269 -0.435900 0.568661
v -0.651892 0.268048 -1.226045
v -1.251136 -0.247205 0.611187
v -0.647193 0.456342 -1.171705
v -1.246437 -0.058912 0.665526
v -0.606108 0.636999 -1.107640
v -1.205352 0.121746 0.729592
v -0.530217 0.803077 -1.036309
v -1.129460 0.287824 0.800922
v -0.422435 0.948194 -0.960456
v -1.021679 0.432941 0.876775
v -0.286905 1.066773 -0.882996
v -0.886149 0.551520 0.954236
v -0.128835 1.154257 -0.806904
v -0.728079 0.639003 1.030328
v 0.045700 1.207283 -0.735105
v -0.553544 0.692030 1.102127
vn 0.024000 0.960500 0.277200
vn 0.209600 0.921600 0.326800
vn 0.387100 0.847200 0.363900
vn 0.549800 0.740300 0.386900
vn 0.691400 0.604900 0.395100
vn 0.806300 0.446300 0.388200
vn 0.890300 0.270500 0.366300
vn 0.940100 0.084300 0.330300
vn 0.953800 -0.105100 0.281600
vn 0.930800 -0.290400 0.222100
vn 0.872000 -0.464600 0.154100
vn 0.779700 -0.621000 0.080200
vn 0.657500 -0.753500 0.003100
vn 0.509900 -0.857000 -0.074000
vn 0.342800 -0.927600 -0.148300
vn 0.162600 -0.962600 -0.216900
vn -0.024000 -0.960500 -0.277200
vn -0.209600 -0.921600 -0.326800
vn -0.387100 -0.847200 -0.363900
vn -0.549800 -0.740300 -0.386900
vn -0.691400 -0.604900 -0.395100
vn -0.806300 -0.446300 -0.388200
vn -0.890300 -0.270500 -0.366300
vn -0.940100 -0.084300 -0.330300
vn -0.953800 0.105100 -0.281600
vn -0.930800 0.290400 -0.222100
vn -0.872000 0.464600 -0.154100
vn -0.779700 0.621000 -0.080200
vn -0.657500 0.753500 -0.003100
vn -0.509900 0.857000 0.074000
vn -0.299600 -0.257600 0.918600
vn -0.162600 0.962600 0.216900
vn -0.342800 0.927600 0.148300
vn 0.299600 0.257600 -0.918600
usemtl None
s off
f 1//1 2//1 4//1 3//1
f 3//2 4//2 6//2 5//2
f 5//3 6//3 8//3 7//3
f 7//4 8//4 10//4 9//4
f 9//5 10//5 12//5 11//5
f 11//6 12//6 14//6 13//6
f 13//7 14//7 16//7 15//7
f 15//8 16//8 18//8 17//8
f 17//9 18//9 20//9 19//9
f 19//10 20//10 22//10 21//10
f 21//11 22//11 24//11 23//11
f 23//12 24//12 26//12 25//12
f 25//13 26//13 28//13 27//13
f 27//14 28//14 30//14 29//14
f 29//15 30//15 32//15 31//15
f 31//16 32//16 34//16 33//16
f 33//17 34//17 36//17 35//17
f 35//18 36//18 38//18 37//18
f 37//19 38//19 40//19 39//19
f 39//20 40//20 42//20 41//20
f 41//21 42//21 44//21 43//21
f 43//22 44//22 46//22 45//22
f 45//23 46//23 48//23 47//23
f 47//24 48//24 50//24 49//24
f 49//25 50//25 52//25 51//25
f 51//26 52//26 54//26 53//26
f 53//27 54//27 56//27 55//27
f 55//28 56//28 58//28 57//28
f 57//29 58//29 60//29 59//29
f 59//30 60//30 62//30 61//30
f 4//31 2//31 64//31 62//31 60//31 58//31 56//31 54//31 52//31 50//31 48//31 46//31 44//31 42//31 40//31 38//31 36//31 34//31 32//31 30//31 28//31 26//31 24//31 22//31 20//31 18//31 16//31 14//31 12//31 10//31 8//31 6//31
f 63//32 64//32 2//32 1//32
f 61//33 62//33 64//33 63//33
f 1//34 3//34 5//34 7//34 9//34 11//34 13//34 15//34 17//34 19//34 21//34 23//34 25//34 27//34 29//34 31//34 33//34 35//34 37//34 39//34 41//34 43//34 45//34 47//34 49//34 51//34 53//34 55//34 57//34 59//34 61//34 63//34
