# Blender v2.76 (sub 0) OBJ File: ''
# www.blender.org
mtllib cil_000041.mtl
o Cylinder
v 0.125136 1.399032 0.164475
v -1.031373 0.203463 -0.945977
v 0.001482 1.378636 0.315217
v -1.155027 0.183067 -0.795235
v -0.100008 1.328232 0.475182
v -1.256516 0.132663 -0.635270
v -0.175431 1.249758 0.638223
v -1.331940 0.054189 -0.472229
v -0.221891 1.146229 0.798075
v -1.378400 -0.049340 -0.312377
v -0.237602 1.021623 0.948595
v -1.394111 -0.173946 -0.161858
v -0.221960 0.880730 1.083997
v -1.378469 -0.314839 -0.026455
v -0.175567 0.728963 1.199079
v -1.332075 -0.466606 0.088627
v -0.100204 0.572155 1.289418
v -1.256712 -0.623414 0.178966
v 0.001231 0.416332 1.351542
v -1.155277 -0.779237 0.241090
v 0.124842 0.267482 1.383065
v -1.031667 -0.928087 0.272613
v 0.265876 0.131325 1.382774
v -0.890632 -1.064244 0.272322
v 0.418915 0.013094 1.350681
v -0.737593 -1.182475 0.240229
v 0.578077 -0.082667 1.288019
v -0.578431 -1.278236 0.177567
v 0.737247 -0.152280 1.197196
v -0.419262 -1.347848 0.086744
v 0.890306 -0.193067 1.081703
v -0.266203 -1.388636 -0.028749
v 1.031373 -0.203463 0.945977
v -0.125135 -1.399032 -0.164475
v 1.155027 -0.183067 0.795235
v -0.001481 -1.378636 -0.315217
v 1.256516 -0.132663 0.635270
v 0.100008 -1.328232 -0.475182
v 1.331940 -0.054189 0.472228
v 0.175431 -1.249758 -0.638224
v 1.378400 0.049340 0.312376
v 0.221892 -1.146228 -0.798076
v 1.394111 0.173946 0.161857
v 0.237602 -1.021623 -0.948595
v 1.378469 0.314840 0.026455
v 0.221960 -0.880729 -1.083997
v 1.332075 0.466607 -0.088627
v 0.175566 -0.728962 -1.199079
v 1.256712 0.623415 -0.178966
v 0.100204 -0.572154 -1.289418
v 1.155276 0.779238 -0.241090
v -0.001232 -0.416331 -1.351542
v 1.031666 0.928088 -0.272613
v -0.124842 -0.267481 -1.383065
v 0.890631 1.064245 -0.272322
v -0.265877 -0.131324 -1.382774
v 0.737592 1.182475 -0.240228
v -0.418916 -0.013093 -1.350681
v 0.578430 1.278237 -0.177566
v -0.578079 0.082668 -1.288018
v 0.419261 1.347849 -0.086743
v -0.737248 0.152280 -1.197195
v 0.266202 1.388636 0.028750
v -0.890307 0.193067 -1.081702
vn -0.517400 0.794900 -0.316900
vn -0.630600 0.759300 -0.160800
vn -0.719400 0.694600 0.001500
vn -0.780700 0.603100 0.163700
vn -0.811900 0.488500 0.319600
vn -0.811900 0.355100 0.463300
vn -0.780800 0.208100 0.589100
vn -0.719600 0.053000 0.692400
vn -0.630800 -0.104000 0.769000
vn -0.517700 -0.257100 0.816000
vn -0.384700 -0.400300 0.831700
vn -0.237000 -0.528100 0.815400
vn -0.080100 -0.635600 0.767800
vn 0.079800 -0.718700 0.690700
vn 0.236700 -0.774200 0.587100
vn 0.384400 -0.799900 0.460800
vn 0.517400 -0.794900 0.316900
vn 0.630600 -0.759300 0.160800
vn 0.719400 -0.694600 -0.001500
vn 0.780700 -0.603100 -0.163700
vn 0.811900 -0.488500 -0.319600
vn 0.811900 -0.355100 -0.463300
vn 0.780800 -0.208100 -0.589100
vn 0.719600 -0.053000 -0.692400
vn 0.630800 0.104000 -0.769000
vn 0.517700 0.257100 -0.816000
vn 0.384700 0.400300 -0.831700
vn 0.237000 0.528100 -0.815400
vn 0.080100 0.635600 -0.767800
vn -0.079800 0.718700 -0.690700
vn -0.578300 -0.597800 -0.555200
vn -0.384400 0.799900 -0.460800
vn -0.236700 0.774200 -0.587000
vn 0.578300 0.597800 0.555200
usemtl None
s off
f 1//1 2//1 4//1 3//1
f 3//2 4//2 6//2 5//2
f 5//3 6//3 8//3 7//3
f 7//4 8//4 10//4 9//4
f 9//5 10//5 12//5 11//5
f 11//6 12//6 14//6 13//6
f 13//7 14//7 16//7 15//7
f 15//8 16//8 18//8 17//8
f 17//9 18//9 20//9 19//9
f 19//10 20//10 22//10 21//10
f 21//11 22//11 24//11 23//11
f 23//12 24//12 26//12 25//12
f 25//13 26//13 28//13 27//13
f 27//14 28//14 30//14 29//14
f 29//15 30//15 32//15 31//15
f 31//16 32//16 34//16 33//16
f 33//17 34//17 36//17 35//17
f 35//18 36//18 38//18 37//18
f 37//19 38//19 40//19 39//19
f 39//20 40//20 42//20 41//20
f 41//21 42//21 44//21 43//21
f 43//22 44//22 46//22 45//22
f 45//23 46//23 48//23 47//23
f 47//24 48//24 50//24 49//24
f 49//25 50//25 52//25 51//25
f 51//26 52//26 54//26 53//26
f 53//27 54//27 56//27 55//27
f 55//28 56//28 58//28 57//28
f 57//29 58//29 60//29 59//29
f 59//30 60//30 62//30 61//30
f 4//31 2//31 64//31 62//31 60//31 58//31 56//31 54//31 52//31 50//31 48//31 46//31 44//31 42//31 40//31 38//31 36//31 34//31 32//31 30//31 28//31 26//31 24//31 22//31 20//31 18//31 16//31 14//31 12//31 10//31 8//31 6//31
f 63//32 64//32 2//32 1//32
f 61//33 62//33 64//33 63//33
f 1//34 3//34 5//34 7//34 9//34 11//34 13//34 15//34 17//34 19//34 21//34 23//34 25//34 27//34 29//34 31//34 33//34 35//34 37//34 39//34 41//34 43//34 45//34 47//34 49//34 51//34 53//34 55//34 57//34 59//34 61//34 63//34
