# Blender v2.76 (sub 0) OBJ File: ''
# www.blender.org
mtllib cil_000048.mtl
o Cylinder
v 0.210475 1.254611 0.617780
v -0.439939 0.652421 -1.175075
v 0.029557 1.233903 0.690369
v -0.620858 0.631713 -1.102485
v -0.140000 1.177348 0.770877
v -0.790414 0.575158 -1.021978
v -0.291679 1.087119 0.856210
v -0.942093 0.484929 -0.936645
v -0.419651 0.966684 0.943088
v -1.070066 0.364494 -0.849767
v -0.518999 0.820670 1.028173
v -1.169414 0.218480 -0.764682
v -0.585905 0.654690 1.108195
v -1.236319 0.052500 -0.684659
v -0.617797 0.475121 1.180079
v -1.268211 -0.127069 -0.612775
v -0.613450 0.288864 1.241063
v -1.263864 -0.313326 -0.551792
v -0.573031 0.103077 1.288802
v -1.223445 -0.499113 -0.504053
v -0.498093 -0.075100 1.321463
v -1.148507 -0.677289 -0.471392
v -0.391516 -0.238820 1.337789
v -1.041930 -0.841010 -0.455065
v -0.257396 -0.381791 1.337155
v -0.907810 -0.983981 -0.455700
v -0.100886 -0.498520 1.319583
v -0.751301 -1.100710 -0.473272
v 0.071998 -0.584520 1.285750
v -0.578417 -1.186709 -0.507105
v 0.254612 -0.636485 1.236956
v -0.395802 -1.238675 -0.555899
v 0.439940 -0.652421 1.175075
v -0.210475 -1.254611 -0.617780
v 0.620858 -0.631713 1.102485
v -0.029556 -1.233903 -0.690370
v 0.790415 -0.575158 1.021977
v 0.140000 -1.177348 -0.770877
v 0.942094 -0.484929 0.936645
v 0.291680 -1.087119 -0.856210
v 1.070066 -0.364493 0.849766
v 0.419652 -0.966683 -0.943088
v 1.169414 -0.218480 0.764681
v 0.519000 -0.820670 -1.028174
v 1.236319 -0.052499 0.684659
v 0.585905 -0.654689 -1.108196
v 1.268211 0.127070 0.612775
v 0.617797 -0.475120 -1.180080
v 1.263864 0.313327 0.551792
v 0.613450 -0.288863 -1.241063
v 1.223445 0.499114 0.504053
v 0.573030 -0.103076 -1.288802
v 1.148506 0.677291 0.471392
v 0.498092 0.075101 -1.321463
v 1.041929 0.841011 0.455065
v 0.391515 0.238821 -1.337790
v 0.907809 0.983982 0.455700
v 0.257395 0.381792 -1.337155
v 0.751300 1.100710 0.473272
v 0.100885 0.498520 -1.319583
v 0.578416 1.186710 0.507105
v -0.071999 0.584520 -1.285750
v 0.395801 1.238675 0.555900
v -0.254613 0.636486 -1.236955
vn -0.206200 0.947700 -0.243500
vn -0.382300 0.908900 -0.166600
vn -0.543700 0.835200 -0.083300
vn -0.684200 0.729300 0.003200
vn -0.798400 0.595400 0.089600
vn -0.881900 0.438700 0.172600
vn -0.931500 0.265100 0.248900
vn -0.945400 0.081300 0.315700
vn -0.922900 -0.105600 0.370300
vn -0.864900 -0.288500 0.410700
vn -0.773700 -0.460300 0.435300
vn -0.652800 -0.614400 0.443200
vn -0.506800 -0.744800 0.434000
vn -0.341300 -0.846700 0.408200
vn -0.162700 -0.916000 0.366700
vn 0.022200 -0.950100 0.311100
vn 0.206200 -0.947700 0.243500
vn 0.382300 -0.908900 0.166600
vn 0.543700 -0.835200 0.083300
vn 0.684200 -0.729300 -0.003200
vn 0.798400 -0.595400 -0.089600
vn 0.881900 -0.438700 -0.172600
vn 0.931500 -0.265100 -0.248900
vn 0.945400 -0.081300 -0.315700
vn 0.922900 0.105600 -0.370300
vn 0.864900 0.288500 -0.410700
vn 0.773700 0.460300 -0.435300
vn 0.652800 0.614400 -0.443200
vn 0.506800 0.744800 -0.434000
vn 0.341300 0.846700 -0.408200
vn -0.325200 -0.301100 -0.896400
vn -0.022200 0.950100 -0.311100
vn 0.162700 0.916000 -0.366700
vn 0.325200 0.301100 0.896400
usemtl None
s off
f 1//1 2//1 4//1 3//1
f 3//2 4//2 6//2 5//2
f 5//3 6//3 8//3 7//3
f 7//4 8//4 10//4 9//4
f 9//5 10//5 12//5 11//5
f 11//6 12//6 14//6 13//6
f 13//7 14//7 16//7 15//7
f 15//8 16//8 18//8 17//8
f 17//9 18//9 20//9 19//9
f 19//10 20//10 22//10 21//10
f 21//11 22//11 24//11 23//11
f 23//12 24//12 26//12 25//12
f 25//13 26//13 28//13 27//13
f 27//14 28//14 30//14 29//14
f 29//15 30//15 32//15 31//15
f 31//16 32//16 34//16 33//16
f 33//17 34//17 36//17 35//17
f 35//18 36//18 38//18 37//18
f 37//19 38//19 40//19 39//19
f 39//20 40//20 42//20 41//20
f 41//21 42//21 44//21 43//21
f 43//22 44//22 46//22 45//22
f 45//23 46//23 48//23 47//23
f 47//24 48//24 50//24 49//24
f 49//25 50//25 52//25 51//25
f 51//26 52//26 54//26 53//26
f 53//27 54//27 56//27 55//27
f 55//28 56//28 58//28 57//28
f 57//29 58//29 60//29 59//29
f 59//30 60//30 62//30 61//30
f 4//31 2//31 64//31 62//31 60//31 58//31 56//31 54//31 52//31 50//31 48//31 46//31 44//31 42//31 40//31 38//31 36//31 34//31 32//31 30//31 28//31 26//31 24//31 22//31 20//31 18//31 16//31 14//31 12//31 10//31 8//31 6//31
f 63//32 64//32 2//32 1//32
f 61//33 62//33 64//33 63//33
f 1//34 3//34 5//34 7//34 9//34 11//34 13//34 15//34 17//34 19//34 21//34 23//34 25//34 27//34 29//34 31//34 33//34 35//34 37//34 39//34 41//34 43//34 45//34 47//34 49//34 51//34 53//34 55//34 57//34 59//34 61//34 63//34
