# Blender v2.76 (sub 0) OBJ File: ''
# www.blender.org
mtllib cil_000039.mtl
o Cylinder
v 0.048926 1.410924 0.083056
v -1.165636 0.087280 -0.796037
v -0.050611 1.390886 0.250747
v -1.265172 0.067241 -0.628346
v -0.124864 1.342830 0.425694
v -1.339426 0.019185 -0.453399
v -0.170982 1.268604 0.601174
v -1.385544 -0.055041 -0.277919
v -0.187192 1.171059 0.770442
v -1.401753 -0.152586 -0.108651
v -0.172870 1.053944 0.926994
v -1.387432 -0.269701 0.047901
v -0.128568 0.921761 1.064813
v -1.343130 -0.401884 0.185720
v -0.055988 0.779588 1.178604
v -1.270549 -0.544057 0.299511
v 0.042082 0.632889 1.263994
v -1.172480 -0.690755 0.384901
v 0.161872 0.487303 1.317700
v -1.052690 -0.836342 0.438607
v 0.298778 0.348423 1.337659
v -0.915783 -0.975222 0.458567
v 0.447541 0.221587 1.323105
v -0.767021 -1.102058 0.444012
v 0.602442 0.111668 1.274596
v -0.612120 -1.211976 0.395503
v 0.757529 0.022892 1.193996
v -0.457033 -1.300752 0.314903
v 0.906842 -0.041330 1.084403
v -0.307720 -1.364975 0.205310
v 1.044643 -0.078530 0.950029
v -0.169919 -1.402175 0.070936
v 1.165636 -0.087280 0.796037
v -0.048925 -1.410924 -0.083056
v 1.265172 -0.067241 0.628345
v 0.050611 -1.390886 -0.250748
v 1.339426 -0.019185 0.453398
v 0.124865 -1.342830 -0.425695
v 1.385544 0.055041 0.277919
v 0.170982 -1.268603 -0.601174
v 1.401753 0.152586 0.108651
v 0.187192 -1.171058 -0.770442
v 1.387432 0.269701 -0.047901
v 0.172870 -1.053944 -0.926994
v 1.343129 0.401885 -0.185721
v 0.128568 -0.921760 -1.064814
v 1.270549 0.544058 -0.299512
v 0.055987 -0.779587 -1.178605
v 1.172479 0.690756 -0.384901
v -0.042082 -0.632889 -1.263994
v 1.052689 0.836343 -0.438607
v -0.161872 -0.487302 -1.317700
v 0.915782 0.975223 -0.458567
v -0.298779 -0.348422 -1.337659
v 0.767020 1.102059 -0.444012
v -0.447542 -0.221586 -1.323105
v 0.612119 1.211977 -0.395502
v -0.602443 -0.111668 -1.274595
v 0.457032 1.300753 -0.314902
v -0.757529 -0.022892 -1.193995
v 0.307719 1.364975 -0.205309
v -0.906843 0.041330 -1.084402
v 0.169918 1.402175 -0.070935
v -1.044643 0.078531 -0.950028
vn -0.611100 0.742700 -0.274000
vn -0.698400 0.708400 -0.101800
vn -0.758900 0.647000 0.074200
vn -0.790200 0.560700 0.247500
vn -0.791100 0.452900 0.411200
vn -0.761700 0.327600 0.559000
vn -0.702900 0.189800 0.685500
vn -0.617200 0.044600 0.785500
vn -0.507700 -0.102200 0.855400
vn -0.378800 -0.245100 0.892400
vn -0.235300 -0.378600 0.895100
vn -0.082700 -0.497600 0.863500
vn 0.073100 -0.597400 0.798600
vn 0.226000 -0.674300 0.703000
vn 0.370200 -0.725200 0.580500
vn 0.500300 -0.748300 0.435600
vn 0.611100 -0.742700 0.274000
vn 0.698400 -0.708400 0.101800
vn 0.758900 -0.647000 -0.074200
vn 0.790200 -0.560700 -0.247500
vn 0.791100 -0.452900 -0.411200
vn 0.761700 -0.327600 -0.559000
vn 0.702900 -0.189800 -0.685500
vn 0.617200 -0.044600 -0.785500
vn 0.507700 0.102200 -0.855400
vn 0.378800 0.245100 -0.892400
vn 0.235300 0.378600 -0.895100
vn 0.082700 0.497600 -0.863500
vn -0.073100 0.597400 -0.798600
vn -0.226000 0.674300 -0.703000
vn -0.607300 -0.661800 -0.439500
vn -0.500300 0.748300 -0.435600
vn -0.370200 0.725200 -0.580500
vn 0.607300 0.661800 0.439500
usemtl None
s off
f 1//1 2//1 4//1 3//1
f 3//2 4//2 6//2 5//2
f 5//3 6//3 8//3 7//3
f 7//4 8//4 10//4 9//4
f 9//5 10//5 12//5 11//5
f 11//6 12//6 14//6 13//6
f 13//7 14//7 16//7 15//7
f 15//8 16//8 18//8 17//8
f 17//9 18//9 20//9 19//9
f 19//10 20//10 22//10 21//10
f 21//11 22//11 24//11 23//11
f 23//12 24//12 26//12 25//12
f 25//13 26//13 28//13 27//13
f 27//14 28//14 30//14 29//14
f 29//15 30//15 32//15 31//15
f 31//16 32//16 34//16 33//16
f 33//17 34//17 36//17 35//17
f 35//18 36//18 38//18 37//18
f 37//19 38//19 40//19 39//19
f 39//20 40//20 42//20 41//20
f 41//21 42//21 44//21 43//21
f 43//22 44//22 46//22 45//22
f 45//23 46//23 48//23 47//23
f 47//24 48//24 50//24 49//24
f 49//25 50//25 52//25 51//25
f 51//26 52//26 54//26 53//26
f 53//27 54//27 56//27 55//27
f 55//28 56//28 58//28 57//28
f 57//29 58//29 60//29 59//29
f 59//30 60//30 62//30 61//30
f 4//31 2//31 64//31 62//31 60//31 58//31 56//31 54//31 52//31 50//31 48//31 46//31 44//31 42//31 40//31 38//31 36//31 34//31 32//31 30//31 28//31 26//31 24//31 22//31 20//31 18//31 16//31 14//31 12//31 10//31 8//31 6//31
f 63//32 64//32 2//32 1//32
f 61//33 62//33 64//33 63//33
f 1//34 3//34 5//34 7//34 9//34 11//34 13//34 15//34 17//34 19//34 21//34 23//34 25//34 27//34 29//34 31//34 33//34 35//34 37//34 39//34 41//34 43//34 45//34 47//34 49//34 51//34 53//34 55//34 57//34 59//34 61//34 63//34
