# Blender v2.76 (sub 0) OBJ File: ''
# www.blender.org
mtllib cil_000045.mtl
o Cylinder
v 0.218616 1.335558 0.410477
v -0.695291 0.464365 -1.140586
v 0.056010 1.314749 0.517975
v -0.857897 0.443556 -1.033088
v -0.091188 1.260154 0.635370
v -1.005095 0.388961 -0.915693
v -0.217321 1.173873 0.758152
v -1.131228 0.302680 -0.792911
v -0.317542 1.059219 0.881601
v -1.231449 0.188026 -0.669462
v -0.388000 0.920601 1.000975
v -1.301907 0.049407 -0.550089
v -0.425987 0.763344 1.111684
v -1.339893 -0.107850 -0.439379
v -0.430043 0.593491 1.209476
v -1.343949 -0.277702 -0.341588
v -0.400012 0.417571 1.290591
v -1.313918 -0.453622 -0.260472
v -0.337048 0.242344 1.351913
v -1.250955 -0.628849 -0.199150
v -0.243571 0.074543 1.391085
v -1.157478 -0.796650 -0.159979
v -0.123174 -0.079383 1.406601
v -1.037080 -0.950576 -0.144462
v 0.019518 -0.213518 1.397866
v -0.894389 -1.084711 -0.153197
v 0.179020 -0.322708 1.365215
v -0.734887 -1.193902 -0.185848
v 0.349202 -0.402757 1.309902
v -0.564704 -1.273951 -0.241161
v 0.523526 -0.450589 1.234054
v -0.390381 -1.321782 -0.317009
v 0.695291 -0.464365 1.140586
v -0.218616 -1.335558 -0.410478
v 0.857897 -0.443556 1.033088
v -0.056010 -1.314749 -0.517975
v 1.005095 -0.388961 0.915693
v 0.091188 -1.260154 -0.635370
v 1.131228 -0.302679 0.792911
v 0.217322 -1.173872 -0.758152
v 1.231449 -0.188026 0.669462
v 0.317543 -1.059219 -0.881602
v 1.301907 -0.049407 0.550088
v 0.388000 -0.920600 -1.000975
v 1.339894 0.107850 0.439379
v 0.425987 -0.763343 -1.111685
v 1.343949 0.277703 0.341587
v 0.430043 -0.593490 -1.209476
v 1.313918 0.453623 0.260472
v 0.400011 -0.417570 -1.290591
v 1.250954 0.628850 0.199150
v 0.337048 -0.242343 -1.351913
v 1.157477 0.796651 0.159978
v 0.243571 -0.074542 -1.391085
v 1.037080 0.950577 0.144462
v 0.123173 0.079384 -1.406601
v 0.894388 1.084712 0.153197
v -0.019519 0.213519 -1.397866
v 0.734886 1.193902 0.185849
v -0.179021 0.322709 -1.365214
v 0.564703 1.273951 0.241161
v -0.349203 0.402758 -1.309902
v 0.390380 1.321782 0.317009
v -0.523527 0.450589 -1.234054
vn -0.321200 0.893900 -0.312800
vn -0.476800 0.856000 -0.199800
vn -0.614200 0.785200 -0.079200
vn -0.727900 0.684200 0.044600
vn -0.813600 0.557000 0.166600
vn -0.868100 0.408300 0.282200
vn -0.889300 0.244000 0.386900
vn -0.876200 0.070300 0.476800
vn -0.829500 -0.106200 0.548400
vn -0.750900 -0.278500 0.598900
vn -0.643400 -0.440100 0.626300
vn -0.511200 -0.584900 0.629700
vn -0.359400 -0.707100 0.608900
vn -0.193800 -0.802200 0.564700
vn -0.020700 -0.866400 0.498800
vn 0.153200 -0.897400 0.413800
vn 0.321200 -0.893900 0.312800
vn 0.476800 -0.856000 0.199800
vn 0.614200 -0.785200 0.079200
vn 0.727900 -0.684200 -0.044600
vn 0.813600 -0.557000 -0.166600
vn 0.868100 -0.408300 -0.282200
vn 0.889300 -0.244000 -0.386900
vn 0.876200 -0.070300 -0.476800
vn 0.829500 0.106200 -0.548400
vn 0.750900 0.278500 -0.598900
vn 0.643400 0.440100 -0.626300
vn 0.511200 0.584900 -0.629700
vn 0.359400 0.707100 -0.608900
vn 0.193800 0.802200 -0.564700
vn -0.457000 -0.435600 -0.775500
vn -0.153200 0.897400 -0.413800
vn 0.020700 0.866400 -0.498800
vn 0.457000 0.435600 0.775500
usemtl None
s off
f 1//1 2//1 4//1 3//1
f 3//2 4//2 6//2 5//2
f 5//3 6//3 8//3 7//3
f 7//4 8//4 10//4 9//4
f 9//5 10//5 12//5 11//5
f 11//6 12//6 14//6 13//6
f 13//7 14//7 16//7 15//7
f 15//8 16//8 18//8 17//8
f 17//9 18//9 20//9 19//9
f 19//10 20//10 22//10 21//10
f 21//11 22//11 24//11 23//11
f 23//12 24//12 26//12 25//12
f 25//13 26//13 28//13 27//13
f 27//14 28//14 30//14 29//14
f 29//15 30//15 32//15 31//15
f 31//16 32//16 34//16 33//16
f 33//17 34//17 36//17 35//17
f 35//18 36//18 38//18 37//18
f 37//19 38//19 40//19 39//19
f 39//20 40//20 42//20 41//20
f 41//21 42//21 44//21 43//21
f 43//22 44//22 46//22 45//22
f 45//23 46//23 48//23 47//23
f 47//24 48//24 50//24 49//24
f 49//25 50//25 52//25 51//25
f 51//26 52//26 54//26 53//26
f 53//27 54//27 56//27 55//27
f 55//28 56//28 58//28 57//28
f 57//29 58//29 60//29 59//29
f 59//30 60//30 62//30 61//30
f 4//31 2//31 64//31 62//31 60//31 58//31 56//31 54//31 52//31 50//31 48//31 46//31 44//31 42//31 40//31 38//31 36//31 34//31 32//31 30//31 28//31 26//31 24//31 22//31 20//31 18//31 16//31 14//31 12//31 10//31 8//31 6//31
f 63//32 64//32 2//32 1//32
f 61//33 62//33 64//33 63//33
f 1//34 3//34 5//34 7//34 9//34 11//34 13//34 15//34 17//34 19//34 21//34 23//34 25//34 27//34 29//34 31//34 33//34 35//34 37//34 39//34 41//34 43//34 45//34 47//34 49//34 51//34 53//34 55//34 57//34 59//34 61//34 63//34
