# Blender v2.76 (sub 0) OBJ File: ''
# www.blender.org
mtllib cil_000037.mtl
o Cylinder
v -0.029189 1.413465 0.035570
v -1.267441 -0.010388 -0.627285
v -0.103184 1.393801 0.216035
v -1.341435 -0.030051 -0.446820
v -0.149420 1.347934 0.400934
v -1.387672 -0.075919 -0.261921
v -0.166122 1.277625 0.583162
v -1.404374 -0.146228 -0.079693
v -0.152648 1.185576 0.755717
v -1.390899 -0.238276 0.092862
v -0.109514 1.075326 0.911966
v -1.347766 -0.348527 0.249111
v -0.038380 0.951110 1.045905
v -1.276631 -0.472743 0.383050
v 0.058023 0.817702 1.152387
v -1.180229 -0.606150 0.489532
v 0.175988 0.680230 1.227320
v -1.062264 -0.743623 0.564465
v 0.310982 0.543976 1.267825
v -0.927269 -0.879877 0.604970
v 0.457819 0.414176 1.272344
v -0.780433 -1.009677 0.609489
v 0.610854 0.295818 1.240705
v -0.627397 -1.128035 0.577850
v 0.764208 0.193451 1.174122
v -0.474044 -1.230402 0.511267
v 0.911986 0.111009 1.075155
v -0.326266 -1.312844 0.412300
v 1.048509 0.051659 0.947607
v -0.189742 -1.372193 0.284752
v 1.168532 0.017684 0.796380
v -0.069720 -1.406169 0.133525
v 1.267441 0.010388 0.627285
v 0.029189 -1.413465 -0.035570
v 1.341435 0.030051 0.446820
v 0.103184 -1.393801 -0.216035
v 1.387672 0.075919 0.261920
v 0.149421 -1.347934 -0.400935
v 1.404374 0.146228 0.079692
v 0.166122 -1.277624 -0.583163
v 1.390899 0.238277 -0.092862
v 0.152648 -1.185576 -0.755717
v 1.347766 0.348527 -0.249111
v 0.109514 -1.075325 -0.911966
v 1.276631 0.472743 -0.383050
v 0.038379 -0.951109 -1.045905
v 1.180228 0.606151 -0.489533
v -0.058023 -0.817702 -1.152388
v 1.062263 0.743623 -0.564466
v -0.175988 -0.680229 -1.227321
v 0.927268 0.879878 -0.604970
v -0.310983 -0.543975 -1.267825
v 0.780432 1.009678 -0.609489
v -0.457820 -0.414175 -1.272344
v 0.627396 1.128035 -0.577850
v -0.610855 -0.295817 -1.240705
v 0.474043 1.230402 -0.511267
v -0.764209 -0.193450 -1.174122
v 0.326265 1.312844 -0.412300
v -0.911987 -0.111008 -1.075155
v 0.189742 1.372193 -0.284752
v -1.048510 -0.051659 -0.947607
v 0.069719 1.406169 -0.133524
v -1.168532 -0.017684 -0.796379
vn -0.688600 0.695100 -0.206600
vn -0.749000 0.662100 -0.023100
vn -0.780700 0.603800 0.161400
vn -0.782300 0.522200 0.339600
vn -0.753800 0.420500 0.504800
vn -0.696400 0.302700 0.650600
vn -0.612300 0.173300 0.771400
vn -0.504500 0.037200 0.862600
vn -0.377500 -0.100300 0.920600
vn -0.235900 -0.234000 0.943200
vn -0.085200 -0.358700 0.929600
vn 0.068700 -0.469600 0.880200
vn 0.220000 -0.562400 0.797000
vn 0.362900 -0.633600 0.683200
vn 0.491800 -0.680500 0.543200
vn 0.601800 -0.701300 0.382200
vn 0.688600 -0.695100 0.206600
vn 0.749000 -0.662100 0.023100
vn 0.780700 -0.603800 -0.161400
vn 0.782300 -0.522200 -0.339600
vn 0.753800 -0.420500 -0.504800
vn 0.696400 -0.302700 -0.650600
vn 0.612300 -0.173300 -0.771400
vn 0.504500 -0.037200 -0.862600
vn 0.377500 0.100300 -0.920600
vn 0.235900 0.234000 -0.943200
vn 0.085200 0.358700 -0.929600
vn -0.068700 0.469600 -0.880200
vn -0.220000 0.562400 -0.797000
vn -0.362900 0.633600 -0.683200
vn -0.619100 -0.711900 -0.331400
vn -0.601800 0.701300 -0.382200
vn -0.491800 0.680500 -0.543200
vn 0.619100 0.711900 0.331400
usemtl None
s off
f 1//1 2//1 4//1 3//1
f 3//2 4//2 6//2 5//2
f 5//3 6//3 8//3 7//3
f 7//4 8//4 10//4 9//4
f 9//5 10//5 12//5 11//5
f 11//6 12//6 14//6 13//6
f 13//7 14//7 16//7 15//7
f 15//8 16//8 18//8 17//8
f 17//9 18//9 20//9 19//9
f 19//10 20//10 22//10 21//10
f 21//11 22//11 24//11 23//11
f 23//12 24//12 26//12 25//12
f 25//13 26//13 28//13 27//13
f 27//14 28//14 30//14 29//14
f 29//15 30//15 32//15 31//15
f 31//16 32//16 34//16 33//16
f 33//17 34//17 36//17 35//17
f 35//18 36//18 38//18 37//18
f 37//19 38//19 40//19 39//19
f 39//20 40//20 42//20 41//20
f 41//21 42//21 44//21 43//21
f 43//22 44//22 46//22 45//22
f 45//23 46//23 48//23 47//23
f 47//24 48//24 50//24 49//24
f 49//25 50//25 52//25 51//25
f 51//26 52//26 54//26 53//26
f 53//27 54//27 56//27 55//27
f 55//28 56//28 58//28 57//28
f 57//29 58//29 60//29 59//29
f 59//30 60//30 62//30 61//30
f 4//31 2//31 64//31 62//31 60//31 58//31 56//31 54//31 52//31 50//31 48//31 46//31 44//31 42//31 40//31 38//31 36//31 34//31 32//31 30//31 28//31 26//31 24//31 22//31 20//31 18//31 16//31 14//31 12//31 10//31 8//31 6//31
f 63//32 64//32 2//32 1//32
f 61//33 62//33 64//33 63//33
f 1//34 3//34 5//34 7//34 9//34 11//34 13//34 15//34 17//34 19//34 21//34 23//34 25//34 27//34 29//34 31//34 33//34 35//34 37//34 39//34 41//34 43//34 45//34 47//34 49//34 51//34 53//34 55//34 57//34 59//34 61//34 63//34
