# Blender v2.76 (sub 0) OBJ File: ''
# www.blender.org
mtllib cil_000052.mtl
o Cylinder
v 0.125137 1.131020 0.839723
v -0.179883 0.848958 -1.116652
v -0.067071 1.110894 0.872592
v -0.372091 0.828832 -1.083783
v -0.250841 1.053496 0.909519
v -0.555861 0.771434 -1.046856
v -0.419110 0.961033 0.949085
v -0.724131 0.678971 -1.007290
v -0.565412 0.837058 0.989769
v -0.870433 0.554996 -0.966606
v -0.684125 0.686334 1.030009
v -0.989146 0.404272 -0.926366
v -0.770687 0.514655 1.068256
v -1.075707 0.232593 -0.888119
v -0.821770 0.328618 1.103043
v -1.126791 0.046556 -0.853332
v -0.835413 0.135372 1.133031
v -1.140433 -0.146690 -0.823344
v -0.811090 -0.057656 1.157069
v -1.116110 -0.339718 -0.799306
v -0.749736 -0.243049 1.174233
v -1.054757 -0.525111 -0.782142
v -0.653710 -0.413682 1.183862
v -0.958730 -0.695744 -0.772513
v -0.526701 -0.562998 1.185588
v -0.831721 -0.845060 -0.770787
v -0.373590 -0.685259 1.179343
v -0.678611 -0.967321 -0.777032
v -0.200262 -0.775765 1.165368
v -0.505282 -1.057827 -0.791007
v -0.013377 -0.831040 1.144200
v -0.318397 -1.113102 -0.812175
v 0.179884 -0.848958 1.116652
v -0.125137 -1.131020 -0.839723
v 0.372092 -0.828832 1.083783
v 0.067071 -1.110894 -0.872592
v 0.555862 -0.771434 1.046856
v 0.250841 -1.053496 -0.909519
v 0.724131 -0.678971 1.007290
v 0.419111 -0.961033 -0.949085
v 0.870433 -0.554995 0.966606
v 0.565413 -0.837057 -0.989770
v 0.989146 -0.404272 0.926366
v 0.684126 -0.686334 -1.030009
v 1.075707 -0.232593 0.888118
v 0.770687 -0.514655 -1.068257
v 1.126791 -0.046555 0.853332
v 0.821770 -0.328617 -1.103043
v 1.140433 0.146691 0.823344
v 0.835413 -0.135371 -1.133032
v 1.116110 0.339719 0.799306
v 0.811089 0.057657 -1.157069
v 1.054756 0.525112 0.782142
v 0.749736 0.243050 -1.174233
v 0.958730 0.695745 0.772513
v 0.653709 0.413683 -1.183862
v 0.831720 0.845061 0.770787
v 0.526700 0.562999 -1.185588
v 0.678610 0.967321 0.777032
v 0.373589 0.685259 -1.179343
v 0.505281 1.057828 0.791007
v 0.200261 0.775766 -1.165368
v 0.318396 1.113102 0.812175
v 0.013375 0.831040 -1.144200
vn -0.124100 0.984700 -0.122600
vn -0.313000 0.945700 -0.087600
vn -0.489800 0.870400 -0.049100
vn -0.647900 0.761700 -0.008800
vn -0.781000 0.623700 0.031900
vn -0.884200 0.461700 0.071300
vn -0.953300 0.282000 0.108000
vn -0.985800 0.091400 0.140500
vn -0.980500 -0.102700 0.167700
vn -0.937400 -0.292800 0.188400
vn -0.858400 -0.471700 0.201800
vn -0.746300 -0.632400 0.207500
vn -0.605600 -0.768900 0.205300
vn -0.441600 -0.875800 0.195100
vn -0.260600 -0.949000 0.177500
vn -0.069600 -0.985800 0.153000
vn 0.124100 -0.984700 0.122600
vn 0.313000 -0.945700 0.087600
vn 0.489800 -0.870400 0.049100
vn 0.647900 -0.761700 0.008800
vn 0.781000 -0.623700 -0.031900
vn 0.884200 -0.461700 -0.071300
vn 0.953300 -0.282000 -0.108000
vn 0.985800 -0.091400 -0.140500
vn 0.980500 0.102700 -0.167700
vn 0.937400 0.292800 -0.188400
vn 0.858400 0.471700 -0.201800
vn 0.746300 0.632400 -0.207500
vn 0.605600 0.768900 -0.205300
vn 0.441600 0.875800 -0.195100
vn -0.152500 -0.141000 -0.978200
vn 0.069600 0.985800 -0.153000
vn 0.260600 0.949000 -0.177500
vn 0.152500 0.141000 0.978200
usemtl None
s off
f 1//1 2//1 4//1 3//1
f 3//2 4//2 6//2 5//2
f 5//3 6//3 8//3 7//3
f 7//4 8//4 10//4 9//4
f 9//5 10//5 12//5 11//5
f 11//6 12//6 14//6 13//6
f 13//7 14//7 16//7 15//7
f 15//8 16//8 18//8 17//8
f 17//9 18//9 20//9 19//9
f 19//10 20//10 22//10 21//10
f 21//11 22//11 24//11 23//11
f 23//12 24//12 26//12 25//12
f 25//13 26//13 28//13 27//13
f 27//14 28//14 30//14 29//14
f 29//15 30//15 32//15 31//15
f 31//16 32//16 34//16 33//16
f 33//17 34//17 36//17 35//17
f 35//18 36//18 38//18 37//18
f 37//19 38//19 40//19 39//19
f 39//20 40//20 42//20 41//20
f 41//21 42//21 44//21 43//21
f 43//22 44//22 46//22 45//22
f 45//23 46//23 48//23 47//23
f 47//24 48//24 50//24 49//24
f 49//25 50//25 52//25 51//25
f 51//26 52//26 54//26 53//26
f 53//27 54//27 56//27 55//27
f 55//28 56//28 58//28 57//28
f 57//29 58//29 60//29 59//29
f 59//30 60//30 62//30 61//30
f 4//31 2//31 64//31 62//31 60//31 58//31 56//31 54//31 52//31 50//31 48//31 46//31 44//31 42//31 40//31 38//31 36//31 34//31 32//31 30//31 28//31 26//31 24//31 22//31 20//31 18//31 16//31 14//31 12//31 10//31 8//31 6//31
f 63//32 64//32 2//32 1//32
f 61//33 62//33 64//33 63//33
f 1//34 3//34 5//34 7//34 9//34 11//34 13//34 15//34 17//34 19//34 21//34 23//34 25//34 27//34 29//34 31//34 33//34 35//34 37//34 39//34 41//34 43//34 45//34 47//34 49//34 51//34 53//34 55//34 57//34 59//34 61//34 63//34
