# Blender v2.76 (sub 0) OBJ File: ''
# www.blender.org
mtllib cil_000044.mtl
o Cylinder
v 0.205836 1.356724 0.341954
v -0.783759 0.398123 -1.107799
v 0.051501 1.335964 0.461030
v -0.938095 0.377363 -0.988724
v -0.085799 1.282283 0.590245
v -1.075395 0.323682 -0.859509
v -0.200787 1.197744 0.724634
v -1.190383 0.239143 -0.725120
v -0.289044 1.085596 0.859032
v -1.278640 0.126995 -0.590722
v -0.347179 0.950148 0.988274
v -1.336774 -0.008453 -0.461479
v -0.372956 0.796605 1.107395
v -1.362552 -0.161995 -0.342358
v -0.365387 0.630869 1.211815
v -1.354982 -0.327732 -0.237938
v -0.324761 0.459308 1.297523
v -1.314356 -0.499292 -0.152230
v -0.252640 0.288516 1.361224
v -1.242235 -0.670085 -0.088529
v -0.151795 0.125055 1.400471
v -1.141391 -0.833546 -0.049282
v -0.026102 -0.024793 1.413755
v -1.015698 -0.983393 -0.035998
v 0.119609 -0.155268 1.400566
v -0.869987 -1.113869 -0.049187
v 0.279738 -0.261357 1.361411
v -0.709857 -1.219958 -0.088343
v 0.448132 -0.338984 1.297793
v -0.541464 -1.297585 -0.151960
v 0.618319 -0.385164 1.212159
v -0.371276 -1.343765 -0.237594
v 0.783760 -0.398123 1.107799
v -0.205836 -1.356724 -0.341954
v 0.938095 -0.377363 0.988724
v -0.051500 -1.335964 -0.461030
v 1.075395 -0.323682 0.859508
v 0.085799 -1.282283 -0.590245
v 1.190383 -0.239143 0.725120
v 0.200787 -1.197744 -0.724634
v 1.278640 -0.126995 0.590721
v 0.289044 -1.085595 -0.859032
v 1.336775 0.008454 0.461479
v 0.347179 -0.950147 -0.988275
v 1.362552 0.161996 0.342358
v 0.372956 -0.796605 -1.107395
v 1.354982 0.327732 0.237938
v 0.365387 -0.630868 -1.211816
v 1.314356 0.499293 0.152230
v 0.324760 -0.459307 -1.297523
v 1.242235 0.670086 0.088529
v 0.252639 -0.288515 -1.361225
v 1.141390 0.833547 0.049282
v 0.151794 -0.125054 -1.400471
v 1.015697 0.983394 0.035998
v 0.026101 0.024794 -1.413755
v 0.869986 1.113870 0.049187
v -0.119610 0.155269 -1.400566
v 0.709856 1.219959 0.088343
v -0.279739 0.261358 -1.361410
v 0.541463 1.297585 0.151960
v -0.448133 0.338984 -1.297793
v 0.371275 1.343765 0.237595
v -0.618320 0.385164 -1.212159
vn -0.367900 0.871200 -0.324900
vn -0.514400 0.833800 -0.200200
vn -0.641200 0.764400 -0.067800
vn -0.743300 0.665600 0.067300
vn -0.816800 0.541200 0.199700
vn -0.859000 0.396000 0.324500
vn -0.868100 0.235600 0.436800
vn -0.843900 0.066100 0.532400
vn -0.787300 -0.105900 0.607400
vn -0.700400 -0.273800 0.659100
vn -0.586600 -0.431200 0.685500
vn -0.450200 -0.572100 0.685600
vn -0.296600 -0.690900 0.659300
vn -0.131500 -0.783200 0.607700
vn 0.038600 -0.845400 0.532700
vn 0.207200 -0.875200 0.437200
vn 0.367900 -0.871200 0.324900
vn 0.514400 -0.833800 0.200200
vn 0.641200 -0.764400 0.067800
vn 0.743300 -0.665600 -0.067300
vn 0.816800 -0.541200 -0.199700
vn 0.859000 -0.396000 -0.324500
vn 0.868100 -0.235600 -0.436800
vn 0.843900 -0.066100 -0.532400
vn 0.787300 0.105900 -0.607400
vn 0.700400 0.273800 -0.659100
vn 0.586600 0.431200 -0.685500
vn 0.450200 0.572100 -0.685600
vn 0.296600 0.690900 -0.659300
vn 0.131500 0.783200 -0.607700
vn -0.494800 -0.479300 -0.724900
vn -0.207200 0.875200 -0.437200
vn -0.038600 0.845400 -0.532700
vn 0.494800 0.479300 0.724900
usemtl None
s off
f 1//1 2//1 4//1 3//1
f 3//2 4//2 6//2 5//2
f 5//3 6//3 8//3 7//3
f 7//4 8//4 10//4 9//4
f 9//5 10//5 12//5 11//5
f 11//6 12//6 14//6 13//6
f 13//7 14//7 16//7 15//7
f 15//8 16//8 18//8 17//8
f 17//9 18//9 20//9 19//9
f 19//10 20//10 22//10 21//10
f 21//11 22//11 24//11 23//11
f 23//12 24//12 26//12 25//12
f 25//13 26//13 28//13 27//13
f 27//14 28//14 30//14 29//14
f 29//15 30//15 32//15 31//15
f 31//16 32//16 34//16 33//16
f 33//17 34//17 36//17 35//17
f 35//18 36//18 38//18 37//18
f 37//19 38//19 40//19 39//19
f 39//20 40//20 42//20 41//20
f 41//21 42//21 44//21 43//21
f 43//22 44//22 46//22 45//22
f 45//23 46//23 48//23 47//23
f 47//24 48//24 50//24 49//24
f 49//25 50//25 52//25 51//25
f 51//26 52//26 54//26 53//26
f 53//27 54//27 56//27 55//27
f 55//28 56//28 58//28 57//28
f 57//29 58//29 60//29 59//29
f 59//30 60//30 62//30 61//30
f 4//31 2//31 64//31 62//31 60//31 58//31 56//31 54//31 52//31 50//31 48//31 46//31 44//31 42//31 40//31 38//31 36//31 34//31 32//31 30//31 28//31 26//31 24//31 22//31 20//31 18//31 16//31 14//31 12//31 10//31 8//31 6//31
f 63//32 64//32 2//32 1//32
f 61//33 62//33 64//33 63//33
f 1//34 3//34 5//34 7//34 9//34 11//34 13//34 15//34 17//34 19//34 21//34 23//34 25//34 27//34 29//34 31//34 33//34 35//34 37//34 39//34 41//34 43//34 45//34 47//34 49//34 51//34 53//34 55//34 57//34 59//34 61//34 63//34
