# Blender v2.76 (sub 0) OBJ File: ''
# www.blender.org
mtllib cil_000043.mtl
o Cylinder
v 0.185384 1.374381 0.276967
v -0.870532 0.331837 -1.063983
v 0.040359 1.353710 0.407236
v -1.015556 0.311166 -0.933714
v -0.085928 1.301049 0.547621
v -1.141843 0.258505 -0.793329
v -0.188623 1.218421 0.692728
v -1.244538 0.175878 -0.648222
v -0.263780 1.109002 0.836979
v -1.319695 0.066459 -0.503971
v -0.308512 0.976998 0.974831
v -1.364427 -0.065546 -0.366119
v -0.321098 0.827480 1.100987
v -1.377013 -0.215064 -0.239963
v -0.301056 0.666194 1.210599
v -1.356971 -0.376349 -0.130351
v -0.249155 0.499340 1.299454
v -1.305070 -0.543204 -0.041496
v -0.167390 0.333328 1.364138
v -1.223305 -0.709215 0.023188
v -0.058903 0.174539 1.402165
v -1.114819 -0.868005 0.061215
v 0.072136 0.029074 1.412073
v -0.983779 -1.013469 0.071123
v 0.220692 -0.097476 1.393482
v -0.835223 -1.140019 0.052532
v 0.381057 -0.200247 1.347107
v -0.674858 -1.242791 0.006157
v 0.547067 -0.275291 1.274729
v -0.508848 -1.317835 -0.066221
v 0.712342 -0.319724 1.179129
v -0.343573 -1.362267 -0.161821
v 0.870532 -0.331837 1.063982
v -0.185383 -1.374381 -0.276968
v 1.015557 -0.311166 0.933713
v -0.040359 -1.353709 -0.407237
v 1.141843 -0.258505 0.793328
v 0.085928 -1.301048 -0.547622
v 1.244538 -0.175877 0.648222
v 0.188623 -1.218421 -0.692728
v 1.319696 -0.066459 0.503971
v 0.263781 -1.109002 -0.836979
v 1.364427 0.065546 0.366118
v 0.308512 -0.976997 -0.974832
v 1.377013 0.215064 0.239962
v 0.321098 -0.827479 -1.100988
v 1.356971 0.376350 0.130350
v 0.301056 -0.666194 -1.210600
v 1.305070 0.543204 0.041495
v 0.249155 -0.499339 -1.299455
v 1.223305 0.709216 -0.023189
v 0.167390 -0.333327 -1.364139
v 1.114818 0.868006 -0.061215
v 0.058903 -0.174538 -1.402165
v 0.983778 1.013470 -0.071123
v -0.072137 -0.029073 -1.412073
v 0.835222 1.140020 -0.052532
v -0.220693 0.097476 -1.393482
v 0.674857 1.242791 -0.006156
v -0.381058 0.200248 -1.347106
v 0.508847 1.317835 0.066222
v -0.547068 0.275292 -1.274728
v 0.343572 1.362267 0.161822
v -0.712343 0.319724 -1.179128
vn -0.417100 0.846900 -0.330000
vn -0.553400 0.810000 -0.194000
vn -0.668500 0.742000 -0.050500
vn -0.757800 0.645500 0.094800
vn -0.818000 0.524300 0.236600
vn -0.846800 0.382800 0.369200
vn -0.843100 0.226700 0.487700
vn -0.806900 0.061800 0.587400
vn -0.739800 -0.105400 0.664500
vn -0.644200 -0.268600 0.716100
vn -0.523900 -0.421500 0.740200
vn -0.383400 -0.558200 0.735800
vn -0.228200 -0.673400 0.703200
vn -0.064200 -0.762700 0.643500
vn 0.102200 -0.822700 0.559100
vn 0.264800 -0.851200 0.453300
vn 0.417100 -0.846900 0.330000
vn 0.553400 -0.810000 0.194000
vn 0.668500 -0.742000 0.050500
vn 0.757800 -0.645500 -0.094800
vn 0.818000 -0.524300 -0.236600
vn 0.846800 -0.382800 -0.369200
vn 0.843100 -0.226700 -0.487700
vn 0.806900 -0.061800 -0.587400
vn 0.739800 0.105400 -0.664500
vn 0.644200 0.268600 -0.716100
vn 0.523900 0.421500 -0.740200
vn 0.383400 0.558200 -0.735800
vn 0.228200 0.673400 -0.703200
vn 0.064200 0.762700 -0.643500
vn -0.528000 -0.521300 -0.670500
vn -0.264800 0.851200 -0.453300
vn -0.102200 0.822700 -0.559100
vn 0.528000 0.521300 0.670500
usemtl None
s off
f 1//1 2//1 4//1 3//1
f 3//2 4//2 6//2 5//2
f 5//3 6//3 8//3 7//3
f 7//4 8//4 10//4 9//4
f 9//5 10//5 12//5 11//5
f 11//6 12//6 14//6 13//6
f 13//7 14//7 16//7 15//7
f 15//8 16//8 18//8 17//8
f 17//9 18//9 20//9 19//9
f 19//10 20//10 22//10 21//10
f 21//11 22//11 24//11 23//11
f 23//12 24//12 26//12 25//12
f 25//13 26//13 28//13 27//13
f 27//14 28//14 30//14 29//14
f 29//15 30//15 32//15 31//15
f 31//16 32//16 34//16 33//16
f 33//17 34//17 36//17 35//17
f 35//18 36//18 38//18 37//18
f 37//19 38//19 40//19 39//19
f 39//20 40//20 42//20 41//20
f 41//21 42//21 44//21 43//21
f 43//22 44//22 46//22 45//22
f 45//23 46//23 48//23 47//23
f 47//24 48//24 50//24 49//24
f 49//25 50//25 52//25 51//25
f 51//26 52//26 54//26 53//26
f 53//27 54//27 56//27 55//27
f 55//28 56//28 58//28 57//28
f 57//29 58//29 60//29 59//29
f 59//30 60//30 62//30 61//30
f 4//31 2//31 64//31 62//31 60//31 58//31 56//31 54//31 52//31 50//31 48//31 46//31 44//31 42//31 40//31 38//31 36//31 34//31 32//31 30//31 28//31 26//31 24//31 22//31 20//31 18//31 16//31 14//31 12//31 10//31 8//31 6//31
f 63//32 64//32 2//32 1//32
f 61//33 62//33 64//33 63//33
f 1//34 3//34 5//34 7//34 9//34 11//34 13//34 15//34 17//34 19//34 21//34 23//34 25//34 27//34 29//34 31//34 33//34 35//34 37//34 39//34 41//34 43//34 45//34 47//34 49//34 51//34 53//34 55//34 57//34 59//34 61//34 63//34
