# Blender v2.76 (sub 0) OBJ File: ''
# www.blender.org
mtllib cil_000036.mtl
o Cylinder
v -0.064774 1.412534 0.023513
v -1.306083 -0.050905 -0.539959
v -0.125886 1.393045 0.208756
v -1.367195 -0.070393 -0.354716
v -0.158308 1.348142 0.396803
v -1.399617 -0.115297 -0.166668
v -0.160796 1.279550 0.580429
v -1.402105 -0.183889 0.016957
v -0.133252 1.189905 0.752576
v -1.374561 -0.273534 0.189104
v -0.076737 1.082652 0.906629
v -1.318046 -0.380786 0.343157
v 0.006579 0.961913 1.036668
v -1.234730 -0.501525 0.473196
v 0.113493 0.832328 1.137695
v -1.127816 -0.631110 0.574223
v 0.239898 0.698877 1.205828
v -1.001411 -0.764561 0.642356
v 0.380934 0.566688 1.238448
v -0.860375 -0.896751 0.674977
v 0.531183 0.440840 1.234303
v -0.710126 -1.022598 0.670831
v 0.684871 0.326171 1.193551
v -0.556439 -1.137267 0.630080
v 0.836090 0.227087 1.117759
v -0.405219 -1.236351 0.554287
v 0.979030 0.147396 1.009838
v -0.262279 -1.316042 0.446367
v 1.108199 0.090160 0.873937
v -0.133110 -1.373278 0.310466
v 1.218631 0.057579 0.715279
v -0.022678 -1.405859 0.151807
v 1.306083 0.050905 0.539959
v 0.064774 -1.412534 -0.023513
v 1.367195 0.070394 0.354716
v 0.125886 -1.393045 -0.208756
v 1.399617 0.115297 0.166668
v 0.158308 -1.348141 -0.396804
v 1.402105 0.183889 -0.016958
v 0.160796 -1.279549 -0.580429
v 1.374561 0.273534 -0.189105
v 0.133252 -1.189904 -0.752577
v 1.318046 0.380787 -0.343158
v 0.076737 -1.082652 -0.906629
v 1.234730 0.501526 -0.473196
v -0.006579 -0.961913 -1.036668
v 1.127815 0.631111 -0.574223
v -0.113494 -0.832328 -1.137695
v 1.001411 0.764562 -0.642356
v -0.239898 -0.698876 -1.205828
v 0.860374 0.896751 -0.674977
v -0.380935 -0.566687 -1.238448
v 0.710125 1.022599 -0.670831
v -0.531184 -0.440840 -1.234303
v 0.556437 1.137268 -0.630079
v -0.684872 -0.326171 -1.193551
v 0.405218 1.236351 -0.554287
v -0.836091 -0.227087 -1.117758
v 0.262278 1.316042 -0.446366
v -0.979031 -0.147396 -1.009838
v 0.133109 1.373278 -0.310465
v -1.108200 -0.090160 -0.873936
v 0.022677 1.405859 -0.151806
v -1.218632 -0.057579 -0.715277
vn -0.719400 0.674300 -0.166400
vn -0.766400 0.642000 0.021100
vn -0.784000 0.584900 0.207900
vn -0.771400 0.505400 0.386600
vn -0.729200 0.406500 0.550500
vn -0.658900 0.292000 0.693300
vn -0.563300 0.166200 0.809300
vn -0.446100 0.034000 0.894300
vn -0.311700 -0.099400 0.945000
vn -0.165400 -0.229100 0.959300
vn -0.012700 -0.349900 0.936700
vn 0.140500 -0.457300 0.878100
vn 0.288300 -0.547100 0.785800
vn 0.425000 -0.615900 0.663300
vn 0.545400 -0.661000 0.515400
vn 0.644800 -0.680800 0.347600
vn 0.719400 -0.674300 0.166400
vn 0.766400 -0.642000 -0.021100
vn 0.784000 -0.584900 -0.207900
vn 0.771400 -0.505400 -0.386600
vn 0.729200 -0.406500 -0.550500
vn 0.658900 -0.292000 -0.693300
vn 0.563300 -0.166200 -0.809300
vn 0.446100 -0.034000 -0.894300
vn 0.311700 0.099400 -0.945000
vn 0.165400 0.229100 -0.959300
vn 0.012700 0.349900 -0.936700
vn -0.140500 0.457300 -0.878100
vn -0.288300 0.547100 -0.785800
vn -0.425000 0.615900 -0.663300
vn -0.620700 -0.731700 -0.281700
vn -0.644800 0.680800 -0.347600
vn -0.545400 0.661000 -0.515400
vn 0.620700 0.731700 0.281700
usemtl None
s off
f 1//1 2//1 4//1 3//1
f 3//2 4//2 6//2 5//2
f 5//3 6//3 8//3 7//3
f 7//4 8//4 10//4 9//4
f 9//5 10//5 12//5 11//5
f 11//6 12//6 14//6 13//6
f 13//7 14//7 16//7 15//7
f 15//8 16//8 18//8 17//8
f 17//9 18//9 20//9 19//9
f 19//10 20//10 22//10 21//10
f 21//11 22//11 24//11 23//11
f 23//12 24//12 26//12 25//12
f 25//13 26//13 28//13 27//13
f 27//14 28//14 30//14 29//14
f 29//15 30//15 32//15 31//15
f 31//16 32//16 34//16 33//16
f 33//17 34//17 36//17 35//17
f 35//18 36//18 38//18 37//18
f 37//19 38//19 40//19 39//19
f 39//20 40//20 42//20 41//20
f 41//21 42//21 44//21 43//21
f 43//22 44//22 46//22 45//22
f 45//23 46//23 48//23 47//23
f 47//24 48//24 50//24 49//24
f 49//25 50//25 52//25 51//25
f 51//26 52//26 54//26 53//26
f 53//27 54//27 56//27 55//27
f 55//28 56//28 58//28 57//28
f 57//29 58//29 60//29 59//29
f 59//30 60//30 62//30 61//30
f 4//31 2//31 64//31 62//31 60//31 58//31 56//31 54//31 52//31 50//31 48//31 46//31 44//31 42//31 40//31 38//31 36//31 34//31 32//31 30//31 28//31 26//31 24//31 22//31 20//31 18//31 16//31 14//31 12//31 10//31 8//31 6//31
f 63//32 64//32 2//32 1//32
f 61//33 62//33 64//33 63//33
f 1//34 3//34 5//34 7//34 9//34 11//34 13//34 15//34 17//34 19//34 21//34 23//34 25//34 27//34 29//34 31//34 33//34 35//34 37//34 39//34 41//34 43//34 45//34 47//34 49//34 51//34 53//34 55//34 57//34 59//34 61//34 63//34
